G04 (created by PCBNEW (2013-07-07 BZR 4022)-stable) date 06/01/2015 12:36:27*
%MOIN*%
G04 Gerber Fmt 3.4, Leading zero omitted, Abs format*
%FSLAX34Y34*%
G01*
G70*
G90*
G04 APERTURE LIST*
%ADD10C,0.00590551*%
%ADD11C,0.012*%
%ADD12C,0.005*%
%ADD13C,0.01*%
%ADD14C,0.006*%
%ADD15C,0.008*%
%ADD16C,0.015*%
%ADD17C,0.0075*%
%ADD18C,0.0045*%
%ADD19C,0.01125*%
%ADD20C,0.0113*%
G04 APERTURE END LIST*
G54D10*
G54D11*
X40092Y-57299D02*
X40092Y-56957D01*
X40692Y-57128D02*
X40092Y-57128D01*
X40692Y-56757D02*
X40092Y-56757D01*
X40378Y-56757D02*
X40378Y-56414D01*
X40692Y-56414D02*
X40092Y-56414D01*
X40378Y-56128D02*
X40378Y-55928D01*
X40692Y-55842D02*
X40692Y-56128D01*
X40092Y-56128D01*
X40092Y-55842D01*
X40692Y-55242D02*
X40407Y-55442D01*
X40692Y-55585D02*
X40092Y-55585D01*
X40092Y-55357D01*
X40121Y-55300D01*
X40150Y-55271D01*
X40207Y-55242D01*
X40292Y-55242D01*
X40350Y-55271D01*
X40378Y-55300D01*
X40407Y-55357D01*
X40407Y-55585D01*
X40692Y-54985D02*
X40092Y-54985D01*
X40521Y-54785D01*
X40092Y-54585D01*
X40692Y-54585D01*
G54D12*
X74207Y-61047D02*
X74207Y-61180D01*
X74159Y-60971D02*
X74111Y-61114D01*
X74235Y-61114D01*
X74340Y-61066D02*
X74321Y-61057D01*
X74311Y-61047D01*
X74302Y-61028D01*
X74302Y-61019D01*
X74311Y-61000D01*
X74321Y-60990D01*
X74340Y-60980D01*
X74378Y-60980D01*
X74397Y-60990D01*
X74407Y-61000D01*
X74416Y-61019D01*
X74416Y-61028D01*
X74407Y-61047D01*
X74397Y-61057D01*
X74378Y-61066D01*
X74340Y-61066D01*
X74321Y-61076D01*
X74311Y-61085D01*
X74302Y-61104D01*
X74302Y-61142D01*
X74311Y-61161D01*
X74321Y-61171D01*
X74340Y-61180D01*
X74378Y-61180D01*
X74397Y-61171D01*
X74407Y-61161D01*
X74416Y-61142D01*
X74416Y-61104D01*
X74407Y-61085D01*
X74397Y-61076D01*
X74378Y-61066D01*
X74540Y-60980D02*
X74559Y-60980D01*
X74578Y-60990D01*
X74588Y-61000D01*
X74597Y-61019D01*
X74607Y-61057D01*
X74607Y-61104D01*
X74597Y-61142D01*
X74588Y-61161D01*
X74578Y-61171D01*
X74559Y-61180D01*
X74540Y-61180D01*
X74521Y-61171D01*
X74511Y-61161D01*
X74502Y-61142D01*
X74492Y-61104D01*
X74492Y-61057D01*
X74502Y-61019D01*
X74511Y-61000D01*
X74521Y-60990D01*
X74540Y-60980D01*
X74673Y-60980D02*
X74807Y-60980D01*
X74721Y-61180D01*
X74892Y-61180D02*
X74930Y-61180D01*
X74950Y-61171D01*
X74959Y-61161D01*
X74978Y-61133D01*
X74988Y-61095D01*
X74988Y-61019D01*
X74978Y-61000D01*
X74969Y-60990D01*
X74950Y-60980D01*
X74911Y-60980D01*
X74892Y-60990D01*
X74883Y-61000D01*
X74873Y-61019D01*
X74873Y-61066D01*
X74883Y-61085D01*
X74892Y-61095D01*
X74911Y-61104D01*
X74950Y-61104D01*
X74969Y-61095D01*
X74978Y-61085D01*
X74988Y-61066D01*
G54D11*
X71028Y-26992D02*
X71028Y-26392D01*
X71371Y-26992D01*
X71371Y-26392D01*
X73960Y-26992D02*
X73675Y-26992D01*
X73675Y-26392D01*
G54D13*
X62780Y-61250D02*
X62780Y-62250D01*
G54D14*
X63860Y-62134D02*
G75*
G03X64000Y-61750I-460J384D01*
G74*
G01*
X63999Y-61750D02*
G75*
G03X63848Y-61352I-599J0D01*
G74*
G01*
X62800Y-61750D02*
G75*
G03X62944Y-62139I599J0D01*
G74*
G01*
X62939Y-61365D02*
G75*
G03X62800Y-61750I460J-384D01*
G74*
G01*
X62912Y-62099D02*
G75*
G03X63400Y-62350I487J349D01*
G74*
G01*
X63400Y-62350D02*
G75*
G03X63879Y-62110I0J600D01*
G74*
G01*
X63400Y-61150D02*
G75*
G03X62927Y-61381I0J-599D01*
G74*
G01*
X63873Y-61381D02*
G75*
G03X63400Y-61150I-473J-368D01*
G74*
G01*
X63400Y-62000D02*
G75*
G03X63650Y-61750I0J250D01*
G74*
G01*
X63400Y-62150D02*
G75*
G03X63800Y-61750I0J400D01*
G74*
G01*
X63400Y-61500D02*
G75*
G03X63150Y-61750I0J-250D01*
G74*
G01*
X63400Y-61350D02*
G75*
G03X63000Y-61750I0J-400D01*
G74*
G01*
G54D13*
X62786Y-62263D02*
G75*
G03X63400Y-62550I613J513D01*
G74*
G01*
X63400Y-62549D02*
G75*
G03X64104Y-62126I0J799D01*
G74*
G01*
X63398Y-60951D02*
G75*
G03X62789Y-61234I1J-798D01*
G74*
G01*
X64094Y-61352D02*
G75*
G03X63400Y-60950I-694J-397D01*
G74*
G01*
X64104Y-62129D02*
G75*
G03X64200Y-61750I-704J379D01*
G74*
G01*
X64199Y-61750D02*
G75*
G03X64081Y-61331I-799J0D01*
G74*
G01*
X62780Y-59550D02*
X62780Y-60550D01*
G54D14*
X63860Y-60434D02*
G75*
G03X64000Y-60050I-460J384D01*
G74*
G01*
X63999Y-60050D02*
G75*
G03X63848Y-59652I-599J0D01*
G74*
G01*
X62800Y-60050D02*
G75*
G03X62944Y-60439I599J0D01*
G74*
G01*
X62939Y-59665D02*
G75*
G03X62800Y-60050I460J-384D01*
G74*
G01*
X62912Y-60399D02*
G75*
G03X63400Y-60650I487J349D01*
G74*
G01*
X63400Y-60650D02*
G75*
G03X63879Y-60410I0J600D01*
G74*
G01*
X63400Y-59450D02*
G75*
G03X62927Y-59681I0J-599D01*
G74*
G01*
X63873Y-59681D02*
G75*
G03X63400Y-59450I-473J-368D01*
G74*
G01*
X63400Y-60300D02*
G75*
G03X63650Y-60050I0J250D01*
G74*
G01*
X63400Y-60450D02*
G75*
G03X63800Y-60050I0J400D01*
G74*
G01*
X63400Y-59800D02*
G75*
G03X63150Y-60050I0J-250D01*
G74*
G01*
X63400Y-59650D02*
G75*
G03X63000Y-60050I0J-400D01*
G74*
G01*
G54D13*
X62786Y-60563D02*
G75*
G03X63400Y-60850I613J513D01*
G74*
G01*
X63400Y-60849D02*
G75*
G03X64104Y-60426I0J799D01*
G74*
G01*
X63398Y-59251D02*
G75*
G03X62789Y-59534I1J-798D01*
G74*
G01*
X64094Y-59652D02*
G75*
G03X63400Y-59250I-694J-397D01*
G74*
G01*
X64104Y-60429D02*
G75*
G03X64200Y-60050I-704J379D01*
G74*
G01*
X64199Y-60050D02*
G75*
G03X64081Y-59631I-799J0D01*
G74*
G01*
X77850Y-53500D02*
X77350Y-53500D01*
X77850Y-48500D02*
X77400Y-48500D01*
X77850Y-53500D02*
X77850Y-48500D01*
X78350Y-56000D02*
X78350Y-50000D01*
X77350Y-53500D02*
X77350Y-51000D01*
X58950Y-27250D02*
X60650Y-27250D01*
X58950Y-23550D02*
X60650Y-23550D01*
X60650Y-27250D02*
X60650Y-23550D01*
X58950Y-27250D02*
X58950Y-23550D01*
X61550Y-27250D02*
X63250Y-27250D01*
X61550Y-23550D02*
X63250Y-23550D01*
X63250Y-27250D02*
X63250Y-23550D01*
X61550Y-27250D02*
X61550Y-23550D01*
X43350Y-27250D02*
X45050Y-27250D01*
X43350Y-23550D02*
X45050Y-23550D01*
X45050Y-27250D02*
X45050Y-23550D01*
X43350Y-27250D02*
X43350Y-23550D01*
G54D12*
X61550Y-50900D02*
X61550Y-50850D01*
X61550Y-50850D02*
X59450Y-50850D01*
X59450Y-52350D02*
X61550Y-52350D01*
X61550Y-52350D02*
X61550Y-50900D01*
X61550Y-51800D02*
X61350Y-51800D01*
X61350Y-51800D02*
X61350Y-51400D01*
X61350Y-51400D02*
X61550Y-51400D01*
X59450Y-52350D02*
X59450Y-50850D01*
G54D13*
X50520Y-55150D02*
X50520Y-61050D01*
X41020Y-55150D02*
X41020Y-61050D01*
X50270Y-63850D02*
X50270Y-62850D01*
X41270Y-63850D02*
X41270Y-62850D01*
X50520Y-55150D02*
X41020Y-55150D01*
X50770Y-61350D02*
X50770Y-61040D01*
X40770Y-61340D02*
X40770Y-61040D01*
X50770Y-62850D02*
X50770Y-61350D01*
X40770Y-62850D02*
X40770Y-61350D01*
X50770Y-61040D02*
X40770Y-61040D01*
X50770Y-62850D02*
X40770Y-62850D01*
X50270Y-63850D02*
X41270Y-63850D01*
G54D11*
X51970Y-47630D02*
X51970Y-51570D01*
X51970Y-51570D02*
X48030Y-51570D01*
X48030Y-47820D02*
X48030Y-51570D01*
X48220Y-47630D02*
X51970Y-47630D01*
X48030Y-47820D02*
X48220Y-47630D01*
G54D15*
X48750Y-48100D02*
G75*
G03X48750Y-48100I-250J0D01*
G74*
G01*
G54D16*
X74750Y-31500D02*
X74750Y-31250D01*
X74750Y-31250D02*
X78750Y-31250D01*
X78750Y-31250D02*
X78750Y-31500D01*
X74750Y-33000D02*
X74750Y-31500D01*
X74750Y-31500D02*
X78750Y-31500D01*
X78750Y-31500D02*
X78750Y-33000D01*
X78750Y-33000D02*
X74750Y-33000D01*
X70000Y-31500D02*
X70000Y-31250D01*
X70000Y-31250D02*
X74000Y-31250D01*
X74000Y-31250D02*
X74000Y-31500D01*
X70000Y-33000D02*
X70000Y-31500D01*
X70000Y-31500D02*
X74000Y-31500D01*
X74000Y-31500D02*
X74000Y-33000D01*
X74000Y-33000D02*
X70000Y-33000D01*
X41500Y-31500D02*
X41500Y-31250D01*
X41500Y-31250D02*
X45500Y-31250D01*
X45500Y-31250D02*
X45500Y-31500D01*
X41500Y-33000D02*
X41500Y-31500D01*
X41500Y-31500D02*
X45500Y-31500D01*
X45500Y-31500D02*
X45500Y-33000D01*
X45500Y-33000D02*
X41500Y-33000D01*
X46250Y-31500D02*
X46250Y-31250D01*
X46250Y-31250D02*
X50250Y-31250D01*
X50250Y-31250D02*
X50250Y-31500D01*
X46250Y-33000D02*
X46250Y-31500D01*
X46250Y-31500D02*
X50250Y-31500D01*
X50250Y-31500D02*
X50250Y-33000D01*
X50250Y-33000D02*
X46250Y-33000D01*
X51000Y-31500D02*
X51000Y-31250D01*
X51000Y-31250D02*
X55000Y-31250D01*
X55000Y-31250D02*
X55000Y-31500D01*
X51000Y-33000D02*
X51000Y-31500D01*
X51000Y-31500D02*
X55000Y-31500D01*
X55000Y-31500D02*
X55000Y-33000D01*
X55000Y-33000D02*
X51000Y-33000D01*
X55750Y-31500D02*
X55750Y-31250D01*
X55750Y-31250D02*
X59750Y-31250D01*
X59750Y-31250D02*
X59750Y-31500D01*
X55750Y-33000D02*
X55750Y-31500D01*
X55750Y-31500D02*
X59750Y-31500D01*
X59750Y-31500D02*
X59750Y-33000D01*
X59750Y-33000D02*
X55750Y-33000D01*
X60500Y-31500D02*
X60500Y-31250D01*
X60500Y-31250D02*
X64500Y-31250D01*
X64500Y-31250D02*
X64500Y-31500D01*
X60500Y-33000D02*
X60500Y-31500D01*
X60500Y-31500D02*
X64500Y-31500D01*
X64500Y-31500D02*
X64500Y-33000D01*
X64500Y-33000D02*
X60500Y-33000D01*
X65250Y-31500D02*
X65250Y-31250D01*
X65250Y-31250D02*
X69250Y-31250D01*
X69250Y-31250D02*
X69250Y-31500D01*
X65250Y-33000D02*
X65250Y-31500D01*
X65250Y-31500D02*
X69250Y-31500D01*
X69250Y-31500D02*
X69250Y-33000D01*
X69250Y-33000D02*
X65250Y-33000D01*
G54D12*
X45750Y-50700D02*
X45750Y-50650D01*
X45750Y-50650D02*
X43650Y-50650D01*
X43650Y-52150D02*
X45750Y-52150D01*
X45750Y-52150D02*
X45750Y-50700D01*
X45750Y-51600D02*
X45550Y-51600D01*
X45550Y-51600D02*
X45550Y-51200D01*
X45550Y-51200D02*
X45750Y-51200D01*
X43650Y-52150D02*
X43650Y-50650D01*
X65900Y-45725D02*
X65000Y-45725D01*
X65000Y-45725D02*
X65000Y-45225D01*
X65000Y-45225D02*
X65900Y-45225D01*
X65900Y-45225D02*
X65900Y-45725D01*
X59600Y-49550D02*
X60500Y-49550D01*
X60500Y-49550D02*
X60500Y-50050D01*
X60500Y-50050D02*
X59600Y-50050D01*
X59600Y-50050D02*
X59600Y-49550D01*
X61150Y-45725D02*
X60250Y-45725D01*
X60250Y-45725D02*
X60250Y-45225D01*
X60250Y-45225D02*
X61150Y-45225D01*
X61150Y-45225D02*
X61150Y-45725D01*
X47150Y-50700D02*
X47150Y-51600D01*
X47150Y-51600D02*
X46650Y-51600D01*
X46650Y-51600D02*
X46650Y-50700D01*
X46650Y-50700D02*
X47150Y-50700D01*
X54050Y-45750D02*
X53150Y-45750D01*
X53150Y-45750D02*
X53150Y-45250D01*
X53150Y-45250D02*
X54050Y-45250D01*
X54050Y-45250D02*
X54050Y-45750D01*
X51350Y-45250D02*
X52250Y-45250D01*
X52250Y-45250D02*
X52250Y-45750D01*
X52250Y-45750D02*
X51350Y-45750D01*
X51350Y-45750D02*
X51350Y-45250D01*
X46600Y-45250D02*
X47500Y-45250D01*
X47500Y-45250D02*
X47500Y-45750D01*
X47500Y-45750D02*
X46600Y-45750D01*
X46600Y-45750D02*
X46600Y-45250D01*
X41850Y-45250D02*
X42750Y-45250D01*
X42750Y-45250D02*
X42750Y-45750D01*
X42750Y-45750D02*
X41850Y-45750D01*
X41850Y-45750D02*
X41850Y-45250D01*
X56400Y-52325D02*
X57300Y-52325D01*
X57300Y-52325D02*
X57300Y-52825D01*
X57300Y-52825D02*
X56400Y-52825D01*
X56400Y-52825D02*
X56400Y-52325D01*
X45400Y-54150D02*
X45400Y-53250D01*
X45400Y-53250D02*
X45900Y-53250D01*
X45900Y-53250D02*
X45900Y-54150D01*
X45900Y-54150D02*
X45400Y-54150D01*
X45350Y-46500D02*
X46250Y-46500D01*
X46250Y-46500D02*
X46250Y-47000D01*
X46250Y-47000D02*
X45350Y-47000D01*
X45350Y-47000D02*
X45350Y-46500D01*
X61850Y-52050D02*
X61850Y-51150D01*
X61850Y-51150D02*
X62350Y-51150D01*
X62350Y-51150D02*
X62350Y-52050D01*
X62350Y-52050D02*
X61850Y-52050D01*
X75400Y-45750D02*
X74500Y-45750D01*
X74500Y-45750D02*
X74500Y-45250D01*
X74500Y-45250D02*
X75400Y-45250D01*
X75400Y-45250D02*
X75400Y-45750D01*
X47800Y-54550D02*
X48700Y-54550D01*
X48700Y-54550D02*
X48700Y-55050D01*
X48700Y-55050D02*
X47800Y-55050D01*
X47800Y-55050D02*
X47800Y-54550D01*
X70650Y-45750D02*
X69750Y-45750D01*
X69750Y-45750D02*
X69750Y-45250D01*
X69750Y-45250D02*
X70650Y-45250D01*
X70650Y-45250D02*
X70650Y-45750D01*
X50750Y-46450D02*
X49850Y-46450D01*
X49850Y-46450D02*
X49850Y-45950D01*
X49850Y-45950D02*
X50750Y-45950D01*
X50750Y-45950D02*
X50750Y-46450D01*
X43500Y-51700D02*
X43500Y-52600D01*
X43500Y-52600D02*
X43000Y-52600D01*
X43000Y-52600D02*
X43000Y-51700D01*
X43000Y-51700D02*
X43500Y-51700D01*
X49800Y-54550D02*
X50700Y-54550D01*
X50700Y-54550D02*
X50700Y-55050D01*
X50700Y-55050D02*
X49800Y-55050D01*
X49800Y-55050D02*
X49800Y-54550D01*
G54D11*
X40050Y-46400D02*
X41050Y-46400D01*
X41050Y-46400D02*
X41050Y-51400D01*
X41050Y-51400D02*
X40050Y-51400D01*
X40050Y-51400D02*
X40050Y-46400D01*
X40050Y-47400D02*
X41050Y-47400D01*
X47700Y-46550D02*
X47700Y-45550D01*
X47700Y-45550D02*
X49700Y-45550D01*
X49700Y-45550D02*
X49700Y-46550D01*
X49700Y-46550D02*
X47700Y-46550D01*
G54D16*
X73500Y-42000D02*
X77000Y-42000D01*
X77000Y-42000D02*
X77000Y-44000D01*
X77000Y-44000D02*
X73500Y-44000D01*
X73500Y-44000D02*
X73500Y-42000D01*
X73500Y-42750D02*
X74000Y-42750D01*
X74000Y-42750D02*
X74000Y-43250D01*
X74000Y-43250D02*
X73500Y-43250D01*
X68750Y-42000D02*
X72250Y-42000D01*
X72250Y-42000D02*
X72250Y-44000D01*
X72250Y-44000D02*
X68750Y-44000D01*
X68750Y-44000D02*
X68750Y-42000D01*
X68750Y-42750D02*
X69250Y-42750D01*
X69250Y-42750D02*
X69250Y-43250D01*
X69250Y-43250D02*
X68750Y-43250D01*
X64000Y-42000D02*
X67500Y-42000D01*
X67500Y-42000D02*
X67500Y-44000D01*
X67500Y-44000D02*
X64000Y-44000D01*
X64000Y-44000D02*
X64000Y-42000D01*
X64000Y-42750D02*
X64500Y-42750D01*
X64500Y-42750D02*
X64500Y-43250D01*
X64500Y-43250D02*
X64000Y-43250D01*
X59250Y-42000D02*
X62750Y-42000D01*
X62750Y-42000D02*
X62750Y-44000D01*
X62750Y-44000D02*
X59250Y-44000D01*
X59250Y-44000D02*
X59250Y-42000D01*
X59250Y-42750D02*
X59750Y-42750D01*
X59750Y-42750D02*
X59750Y-43250D01*
X59750Y-43250D02*
X59250Y-43250D01*
X54500Y-42000D02*
X58000Y-42000D01*
X58000Y-42000D02*
X58000Y-44000D01*
X58000Y-44000D02*
X54500Y-44000D01*
X54500Y-44000D02*
X54500Y-42000D01*
X54500Y-42750D02*
X55000Y-42750D01*
X55000Y-42750D02*
X55000Y-43250D01*
X55000Y-43250D02*
X54500Y-43250D01*
X49750Y-42000D02*
X53250Y-42000D01*
X53250Y-42000D02*
X53250Y-44000D01*
X53250Y-44000D02*
X49750Y-44000D01*
X49750Y-44000D02*
X49750Y-42000D01*
X49750Y-42750D02*
X50250Y-42750D01*
X50250Y-42750D02*
X50250Y-43250D01*
X50250Y-43250D02*
X49750Y-43250D01*
X45000Y-42000D02*
X48500Y-42000D01*
X48500Y-42000D02*
X48500Y-44000D01*
X48500Y-44000D02*
X45000Y-44000D01*
X45000Y-44000D02*
X45000Y-42000D01*
X45000Y-42750D02*
X45500Y-42750D01*
X45500Y-42750D02*
X45500Y-43250D01*
X45500Y-43250D02*
X45000Y-43250D01*
X40250Y-42000D02*
X43750Y-42000D01*
X43750Y-42000D02*
X43750Y-44000D01*
X43750Y-44000D02*
X40250Y-44000D01*
X40250Y-44000D02*
X40250Y-42000D01*
X40250Y-42750D02*
X40750Y-42750D01*
X40750Y-42750D02*
X40750Y-43250D01*
X40750Y-43250D02*
X40250Y-43250D01*
G54D12*
X60525Y-47900D02*
G75*
G03X60525Y-47900I-1250J0D01*
G74*
G01*
X55250Y-48900D02*
G75*
G03X55250Y-48900I-1250J0D01*
G74*
G01*
G54D13*
X61650Y-55150D02*
X61650Y-61050D01*
X52150Y-55150D02*
X52150Y-61050D01*
X61400Y-63850D02*
X61400Y-62850D01*
X52400Y-63850D02*
X52400Y-62850D01*
X61650Y-55150D02*
X52150Y-55150D01*
X61900Y-61350D02*
X61900Y-61040D01*
X51900Y-61340D02*
X51900Y-61040D01*
X61900Y-62850D02*
X61900Y-61350D01*
X51900Y-62850D02*
X51900Y-61350D01*
X61900Y-61040D02*
X51900Y-61040D01*
X61900Y-62850D02*
X51900Y-62850D01*
X61400Y-63850D02*
X52400Y-63850D01*
G54D16*
X76050Y-62500D02*
X65450Y-62500D01*
X76050Y-58500D02*
X65450Y-58500D01*
X65450Y-58500D02*
X65450Y-62500D01*
X76050Y-58500D02*
X76050Y-62500D01*
G54D13*
X43950Y-33800D02*
X41000Y-33800D01*
X41000Y-40700D02*
X43950Y-40700D01*
X43950Y-33800D02*
X43950Y-40700D01*
X41000Y-33800D02*
X41000Y-40700D01*
X48700Y-33800D02*
X45750Y-33800D01*
X45750Y-40700D02*
X48700Y-40700D01*
X48700Y-33800D02*
X48700Y-40700D01*
X45750Y-33800D02*
X45750Y-40700D01*
X53450Y-33800D02*
X50500Y-33800D01*
X50500Y-40700D02*
X53450Y-40700D01*
X53450Y-33800D02*
X53450Y-40700D01*
X50500Y-33800D02*
X50500Y-40700D01*
X58200Y-33800D02*
X55250Y-33800D01*
X55250Y-40700D02*
X58200Y-40700D01*
X58200Y-33800D02*
X58200Y-40700D01*
X55250Y-33800D02*
X55250Y-40700D01*
X62950Y-33800D02*
X60000Y-33800D01*
X60000Y-40700D02*
X62950Y-40700D01*
X62950Y-33800D02*
X62950Y-40700D01*
X60000Y-33800D02*
X60000Y-40700D01*
X67700Y-33800D02*
X64750Y-33800D01*
X64750Y-40700D02*
X67700Y-40700D01*
X67700Y-33800D02*
X67700Y-40700D01*
X64750Y-33800D02*
X64750Y-40700D01*
X72450Y-33800D02*
X69500Y-33800D01*
X69500Y-40700D02*
X72450Y-40700D01*
X72450Y-33800D02*
X72450Y-40700D01*
X69500Y-33800D02*
X69500Y-40700D01*
X77200Y-33800D02*
X74250Y-33800D01*
X74250Y-40700D02*
X77200Y-40700D01*
X77200Y-33800D02*
X77200Y-40700D01*
X74250Y-33800D02*
X74250Y-40700D01*
G54D11*
X49900Y-33900D02*
X49900Y-34100D01*
X49900Y-36900D02*
X49900Y-36700D01*
X49900Y-36700D02*
X50300Y-36700D01*
X50300Y-36700D02*
X50300Y-34100D01*
X50300Y-34100D02*
X49500Y-34100D01*
X49500Y-34100D02*
X49500Y-36700D01*
X49500Y-36700D02*
X49900Y-36700D01*
X50100Y-34100D02*
X50300Y-34300D01*
X49900Y-37750D02*
X49900Y-37950D01*
X49900Y-40750D02*
X49900Y-40550D01*
X49900Y-40550D02*
X50300Y-40550D01*
X50300Y-40550D02*
X50300Y-37950D01*
X50300Y-37950D02*
X49500Y-37950D01*
X49500Y-37950D02*
X49500Y-40550D01*
X49500Y-40550D02*
X49900Y-40550D01*
X50100Y-37950D02*
X50300Y-38150D01*
X45150Y-37750D02*
X45150Y-37950D01*
X45150Y-40750D02*
X45150Y-40550D01*
X45150Y-40550D02*
X45550Y-40550D01*
X45550Y-40550D02*
X45550Y-37950D01*
X45550Y-37950D02*
X44750Y-37950D01*
X44750Y-37950D02*
X44750Y-40550D01*
X44750Y-40550D02*
X45150Y-40550D01*
X45350Y-37950D02*
X45550Y-38150D01*
X40400Y-37750D02*
X40400Y-37950D01*
X40400Y-40750D02*
X40400Y-40550D01*
X40400Y-40550D02*
X40800Y-40550D01*
X40800Y-40550D02*
X40800Y-37950D01*
X40800Y-37950D02*
X40000Y-37950D01*
X40000Y-37950D02*
X40000Y-40550D01*
X40000Y-40550D02*
X40400Y-40550D01*
X40600Y-37950D02*
X40800Y-38150D01*
X54650Y-37750D02*
X54650Y-37950D01*
X54650Y-40750D02*
X54650Y-40550D01*
X54650Y-40550D02*
X55050Y-40550D01*
X55050Y-40550D02*
X55050Y-37950D01*
X55050Y-37950D02*
X54250Y-37950D01*
X54250Y-37950D02*
X54250Y-40550D01*
X54250Y-40550D02*
X54650Y-40550D01*
X54850Y-37950D02*
X55050Y-38150D01*
X59400Y-37750D02*
X59400Y-37950D01*
X59400Y-40750D02*
X59400Y-40550D01*
X59400Y-40550D02*
X59800Y-40550D01*
X59800Y-40550D02*
X59800Y-37950D01*
X59800Y-37950D02*
X59000Y-37950D01*
X59000Y-37950D02*
X59000Y-40550D01*
X59000Y-40550D02*
X59400Y-40550D01*
X59600Y-37950D02*
X59800Y-38150D01*
X64150Y-37750D02*
X64150Y-37950D01*
X64150Y-40750D02*
X64150Y-40550D01*
X64150Y-40550D02*
X64550Y-40550D01*
X64550Y-40550D02*
X64550Y-37950D01*
X64550Y-37950D02*
X63750Y-37950D01*
X63750Y-37950D02*
X63750Y-40550D01*
X63750Y-40550D02*
X64150Y-40550D01*
X64350Y-37950D02*
X64550Y-38150D01*
X68900Y-37750D02*
X68900Y-37950D01*
X68900Y-40750D02*
X68900Y-40550D01*
X68900Y-40550D02*
X69300Y-40550D01*
X69300Y-40550D02*
X69300Y-37950D01*
X69300Y-37950D02*
X68500Y-37950D01*
X68500Y-37950D02*
X68500Y-40550D01*
X68500Y-40550D02*
X68900Y-40550D01*
X69100Y-37950D02*
X69300Y-38150D01*
X73650Y-37750D02*
X73650Y-37950D01*
X73650Y-40750D02*
X73650Y-40550D01*
X73650Y-40550D02*
X74050Y-40550D01*
X74050Y-40550D02*
X74050Y-37950D01*
X74050Y-37950D02*
X73250Y-37950D01*
X73250Y-37950D02*
X73250Y-40550D01*
X73250Y-40550D02*
X73650Y-40550D01*
X73850Y-37950D02*
X74050Y-38150D01*
X40400Y-33900D02*
X40400Y-34100D01*
X40400Y-36900D02*
X40400Y-36700D01*
X40400Y-36700D02*
X40800Y-36700D01*
X40800Y-36700D02*
X40800Y-34100D01*
X40800Y-34100D02*
X40000Y-34100D01*
X40000Y-34100D02*
X40000Y-36700D01*
X40000Y-36700D02*
X40400Y-36700D01*
X40600Y-34100D02*
X40800Y-34300D01*
X45150Y-33900D02*
X45150Y-34100D01*
X45150Y-36900D02*
X45150Y-36700D01*
X45150Y-36700D02*
X45550Y-36700D01*
X45550Y-36700D02*
X45550Y-34100D01*
X45550Y-34100D02*
X44750Y-34100D01*
X44750Y-34100D02*
X44750Y-36700D01*
X44750Y-36700D02*
X45150Y-36700D01*
X45350Y-34100D02*
X45550Y-34300D01*
X54650Y-33900D02*
X54650Y-34100D01*
X54650Y-36900D02*
X54650Y-36700D01*
X54650Y-36700D02*
X55050Y-36700D01*
X55050Y-36700D02*
X55050Y-34100D01*
X55050Y-34100D02*
X54250Y-34100D01*
X54250Y-34100D02*
X54250Y-36700D01*
X54250Y-36700D02*
X54650Y-36700D01*
X54850Y-34100D02*
X55050Y-34300D01*
X59400Y-33900D02*
X59400Y-34100D01*
X59400Y-36900D02*
X59400Y-36700D01*
X59400Y-36700D02*
X59800Y-36700D01*
X59800Y-36700D02*
X59800Y-34100D01*
X59800Y-34100D02*
X59000Y-34100D01*
X59000Y-34100D02*
X59000Y-36700D01*
X59000Y-36700D02*
X59400Y-36700D01*
X59600Y-34100D02*
X59800Y-34300D01*
X64150Y-33900D02*
X64150Y-34100D01*
X64150Y-36900D02*
X64150Y-36700D01*
X64150Y-36700D02*
X64550Y-36700D01*
X64550Y-36700D02*
X64550Y-34100D01*
X64550Y-34100D02*
X63750Y-34100D01*
X63750Y-34100D02*
X63750Y-36700D01*
X63750Y-36700D02*
X64150Y-36700D01*
X64350Y-34100D02*
X64550Y-34300D01*
X68900Y-33900D02*
X68900Y-34100D01*
X68900Y-36900D02*
X68900Y-36700D01*
X68900Y-36700D02*
X69300Y-36700D01*
X69300Y-36700D02*
X69300Y-34100D01*
X69300Y-34100D02*
X68500Y-34100D01*
X68500Y-34100D02*
X68500Y-36700D01*
X68500Y-36700D02*
X68900Y-36700D01*
X69100Y-34100D02*
X69300Y-34300D01*
X73650Y-33900D02*
X73650Y-34100D01*
X73650Y-36900D02*
X73650Y-36700D01*
X73650Y-36700D02*
X74050Y-36700D01*
X74050Y-36700D02*
X74050Y-34100D01*
X74050Y-34100D02*
X73250Y-34100D01*
X73250Y-34100D02*
X73250Y-36700D01*
X73250Y-36700D02*
X73650Y-36700D01*
X73850Y-34100D02*
X74050Y-34300D01*
G54D14*
X51700Y-53950D02*
X51200Y-54450D01*
X46700Y-54450D02*
X46200Y-53950D01*
X46200Y-52950D02*
X46700Y-52450D01*
X51700Y-52950D02*
X51200Y-52450D01*
X51200Y-54450D02*
X46700Y-54450D01*
X51700Y-53950D02*
X51700Y-52950D01*
X51200Y-52450D02*
X46700Y-52450D01*
X46200Y-52950D02*
X46200Y-53950D01*
G54D12*
X58750Y-52050D02*
X58750Y-51150D01*
X58750Y-51150D02*
X59250Y-51150D01*
X59250Y-51150D02*
X59250Y-52050D01*
X59250Y-52050D02*
X58750Y-52050D01*
X62350Y-49750D02*
X62350Y-50650D01*
X62350Y-50650D02*
X61850Y-50650D01*
X61850Y-50650D02*
X61850Y-49750D01*
X61850Y-49750D02*
X62350Y-49750D01*
G54D16*
X57075Y-46400D02*
X57325Y-46400D01*
X57325Y-46400D02*
X57325Y-50400D01*
X57325Y-50400D02*
X57075Y-50400D01*
X55575Y-46400D02*
X57075Y-46400D01*
X57075Y-46400D02*
X57075Y-50400D01*
X57075Y-50400D02*
X55575Y-50400D01*
X55575Y-50400D02*
X55575Y-46400D01*
G54D13*
X61425Y-48850D02*
X61425Y-46900D01*
X62875Y-48850D02*
X61225Y-48850D01*
X62875Y-46900D02*
X61225Y-46900D01*
X61225Y-48850D02*
X61225Y-46900D01*
X62875Y-48850D02*
X62875Y-46900D01*
G54D11*
X45500Y-27500D02*
X55500Y-27500D01*
X55500Y-27500D02*
X55500Y-29500D01*
X55500Y-29500D02*
X45500Y-29500D01*
X45500Y-29500D02*
X45500Y-27500D01*
X48500Y-27500D02*
X48500Y-29500D01*
X52500Y-27500D02*
X52500Y-29500D01*
X64800Y-27500D02*
X74800Y-27500D01*
X74800Y-27500D02*
X74800Y-29500D01*
X74800Y-29500D02*
X64800Y-29500D01*
X64800Y-29500D02*
X64800Y-27500D01*
X67800Y-27500D02*
X67800Y-29500D01*
X71800Y-27500D02*
X71800Y-29500D01*
X43050Y-46550D02*
X43050Y-45550D01*
X43050Y-45550D02*
X45050Y-45550D01*
X45050Y-45550D02*
X45050Y-46550D01*
X45050Y-46550D02*
X43050Y-46550D01*
G54D13*
X45950Y-27250D02*
X47650Y-27250D01*
X45950Y-23550D02*
X47650Y-23550D01*
X47650Y-27250D02*
X47650Y-23550D01*
X45950Y-27250D02*
X45950Y-23550D01*
X48550Y-27250D02*
X50250Y-27250D01*
X48550Y-23550D02*
X50250Y-23550D01*
X50250Y-27250D02*
X50250Y-23550D01*
X48550Y-27250D02*
X48550Y-23550D01*
X51150Y-27250D02*
X52850Y-27250D01*
X51150Y-23550D02*
X52850Y-23550D01*
X52850Y-27250D02*
X52850Y-23550D01*
X51150Y-27250D02*
X51150Y-23550D01*
X53750Y-27250D02*
X55450Y-27250D01*
X53750Y-23550D02*
X55450Y-23550D01*
X55450Y-27250D02*
X55450Y-23550D01*
X53750Y-27250D02*
X53750Y-23550D01*
X56350Y-27250D02*
X58050Y-27250D01*
X56350Y-23550D02*
X58050Y-23550D01*
X58050Y-27250D02*
X58050Y-23550D01*
X56350Y-27250D02*
X56350Y-23550D01*
G54D16*
X42681Y-53500D02*
G75*
G03X42681Y-53500I-806J0D01*
G74*
G01*
X43175Y-53500D02*
G75*
G03X43175Y-53500I-1300J0D01*
G74*
G01*
X42375Y-53000D02*
X42125Y-53500D01*
X42125Y-53500D02*
X41875Y-53250D01*
X41875Y-53250D02*
X42375Y-53000D01*
X41375Y-54000D02*
X42375Y-53000D01*
G54D13*
X76050Y-45250D02*
X76050Y-59250D01*
X76050Y-59250D02*
X64450Y-59250D01*
X64450Y-45250D02*
X64450Y-59250D01*
X64450Y-45250D02*
X76050Y-45250D01*
X76946Y-56000D02*
G75*
G03X76946Y-56000I-696J0D01*
G74*
G01*
X70000Y-56500D02*
X70000Y-48000D01*
X70000Y-48000D02*
X70250Y-48000D01*
X70250Y-48000D02*
X70250Y-56500D01*
X66000Y-56500D02*
X66000Y-48000D01*
X66000Y-48000D02*
X74500Y-48000D01*
X74500Y-48000D02*
X74500Y-56500D01*
X74500Y-56500D02*
X66000Y-56500D01*
G54D12*
X62600Y-52050D02*
X62600Y-51150D01*
X62600Y-51150D02*
X63100Y-51150D01*
X63100Y-51150D02*
X63100Y-52050D01*
X63100Y-52050D02*
X62600Y-52050D01*
G54D13*
X64304Y-61311D02*
X64304Y-60911D01*
X64400Y-60911D01*
X64457Y-60930D01*
X64495Y-60969D01*
X64514Y-61007D01*
X64533Y-61083D01*
X64533Y-61140D01*
X64514Y-61216D01*
X64495Y-61254D01*
X64457Y-61292D01*
X64400Y-61311D01*
X64304Y-61311D01*
X64685Y-60950D02*
X64704Y-60930D01*
X64742Y-60911D01*
X64838Y-60911D01*
X64876Y-60930D01*
X64895Y-60950D01*
X64914Y-60988D01*
X64914Y-61026D01*
X64895Y-61083D01*
X64666Y-61311D01*
X64914Y-61311D01*
G54D17*
X64707Y-61921D02*
X64607Y-61778D01*
X64535Y-61921D02*
X64535Y-61621D01*
X64650Y-61621D01*
X64678Y-61635D01*
X64692Y-61650D01*
X64707Y-61678D01*
X64707Y-61721D01*
X64692Y-61750D01*
X64678Y-61764D01*
X64650Y-61778D01*
X64535Y-61778D01*
X64835Y-61764D02*
X64935Y-61764D01*
X64978Y-61921D02*
X64835Y-61921D01*
X64835Y-61621D01*
X64978Y-61621D01*
X65107Y-61921D02*
X65107Y-61621D01*
X65178Y-61621D01*
X65221Y-61635D01*
X65250Y-61664D01*
X65264Y-61692D01*
X65278Y-61750D01*
X65278Y-61792D01*
X65264Y-61850D01*
X65250Y-61878D01*
X65221Y-61907D01*
X65178Y-61921D01*
X65107Y-61921D01*
G54D13*
X64304Y-59561D02*
X64304Y-59161D01*
X64400Y-59161D01*
X64457Y-59180D01*
X64495Y-59219D01*
X64514Y-59257D01*
X64533Y-59333D01*
X64533Y-59390D01*
X64514Y-59466D01*
X64495Y-59504D01*
X64457Y-59542D01*
X64400Y-59561D01*
X64304Y-59561D01*
X64914Y-59561D02*
X64685Y-59561D01*
X64800Y-59561D02*
X64800Y-59161D01*
X64761Y-59219D01*
X64723Y-59257D01*
X64685Y-59276D01*
G54D17*
X64671Y-59885D02*
X64642Y-59871D01*
X64600Y-59871D01*
X64557Y-59885D01*
X64528Y-59914D01*
X64514Y-59942D01*
X64500Y-60000D01*
X64500Y-60042D01*
X64514Y-60100D01*
X64528Y-60128D01*
X64557Y-60157D01*
X64600Y-60171D01*
X64628Y-60171D01*
X64671Y-60157D01*
X64685Y-60142D01*
X64685Y-60042D01*
X64628Y-60042D01*
X64985Y-60171D02*
X64885Y-60028D01*
X64814Y-60171D02*
X64814Y-59871D01*
X64928Y-59871D01*
X64957Y-59885D01*
X64971Y-59900D01*
X64985Y-59928D01*
X64985Y-59971D01*
X64971Y-60000D01*
X64957Y-60014D01*
X64928Y-60028D01*
X64814Y-60028D01*
X65114Y-60171D02*
X65114Y-59871D01*
X65285Y-60171D01*
X65285Y-59871D01*
X78571Y-54900D02*
X78871Y-54800D01*
X78571Y-54700D01*
X78571Y-54542D02*
X78571Y-54485D01*
X78585Y-54457D01*
X78614Y-54428D01*
X78671Y-54414D01*
X78771Y-54414D01*
X78828Y-54428D01*
X78857Y-54457D01*
X78871Y-54485D01*
X78871Y-54542D01*
X78857Y-54571D01*
X78828Y-54599D01*
X78771Y-54614D01*
X78671Y-54614D01*
X78614Y-54599D01*
X78585Y-54571D01*
X78571Y-54542D01*
X78871Y-54142D02*
X78871Y-54285D01*
X78571Y-54285D01*
X78571Y-54085D02*
X78571Y-53914D01*
X78871Y-53999D02*
X78571Y-53999D01*
X78785Y-53828D02*
X78785Y-53685D01*
X78871Y-53857D02*
X78571Y-53757D01*
X78871Y-53657D01*
X78585Y-53400D02*
X78571Y-53428D01*
X78571Y-53471D01*
X78585Y-53514D01*
X78614Y-53542D01*
X78642Y-53557D01*
X78700Y-53571D01*
X78742Y-53571D01*
X78800Y-53557D01*
X78828Y-53542D01*
X78857Y-53514D01*
X78871Y-53471D01*
X78871Y-53442D01*
X78857Y-53400D01*
X78842Y-53385D01*
X78742Y-53385D01*
X78742Y-53442D01*
X78714Y-53257D02*
X78714Y-53157D01*
X78871Y-53114D02*
X78871Y-53257D01*
X78571Y-53257D01*
X78571Y-53114D01*
X78900Y-53057D02*
X78900Y-52828D01*
X78571Y-52671D02*
X78785Y-52671D01*
X78828Y-52685D01*
X78857Y-52714D01*
X78871Y-52757D01*
X78871Y-52785D01*
X78571Y-52528D02*
X78814Y-52528D01*
X78842Y-52514D01*
X78857Y-52500D01*
X78871Y-52471D01*
X78871Y-52414D01*
X78857Y-52385D01*
X78842Y-52371D01*
X78814Y-52357D01*
X78571Y-52357D01*
X78871Y-52214D02*
X78571Y-52214D01*
X78785Y-52114D01*
X78571Y-52014D01*
X78871Y-52014D01*
X78871Y-51871D02*
X78571Y-51871D01*
X78571Y-51757D01*
X78585Y-51728D01*
X78600Y-51714D01*
X78628Y-51700D01*
X78671Y-51700D01*
X78700Y-51714D01*
X78714Y-51728D01*
X78728Y-51757D01*
X78728Y-51871D01*
X78714Y-51571D02*
X78714Y-51471D01*
X78871Y-51428D02*
X78871Y-51571D01*
X78571Y-51571D01*
X78571Y-51428D01*
X78871Y-51128D02*
X78728Y-51228D01*
X78871Y-51299D02*
X78571Y-51299D01*
X78571Y-51185D01*
X78585Y-51157D01*
X78600Y-51142D01*
X78628Y-51128D01*
X78671Y-51128D01*
X78700Y-51142D01*
X78714Y-51157D01*
X78728Y-51185D01*
X78728Y-51299D01*
G54D12*
X78180Y-52519D02*
X78180Y-52633D01*
X78180Y-52576D02*
X77980Y-52576D01*
X78009Y-52595D01*
X78028Y-52614D01*
X78038Y-52633D01*
X78000Y-52442D02*
X77990Y-52433D01*
X77980Y-52414D01*
X77980Y-52366D01*
X77990Y-52347D01*
X78000Y-52338D01*
X78019Y-52328D01*
X78038Y-52328D01*
X78066Y-52338D01*
X78180Y-52452D01*
X78180Y-52328D01*
X77980Y-52204D02*
X77980Y-52185D01*
X77990Y-52166D01*
X78000Y-52157D01*
X78019Y-52147D01*
X78057Y-52138D01*
X78104Y-52138D01*
X78142Y-52147D01*
X78161Y-52157D01*
X78171Y-52166D01*
X78180Y-52185D01*
X78180Y-52204D01*
X78171Y-52223D01*
X78161Y-52233D01*
X78142Y-52242D01*
X78104Y-52252D01*
X78057Y-52252D01*
X78019Y-52242D01*
X78000Y-52233D01*
X77990Y-52223D01*
X77980Y-52204D01*
X77980Y-52080D02*
X78180Y-52014D01*
X77980Y-51947D01*
X77000Y-52633D02*
X76990Y-52623D01*
X76980Y-52604D01*
X76980Y-52557D01*
X76990Y-52538D01*
X77000Y-52528D01*
X77019Y-52519D01*
X77038Y-52519D01*
X77066Y-52528D01*
X77180Y-52642D01*
X77180Y-52519D01*
X77047Y-52347D02*
X77180Y-52347D01*
X76971Y-52395D02*
X77114Y-52442D01*
X77114Y-52319D01*
X76980Y-52204D02*
X76980Y-52185D01*
X76990Y-52166D01*
X77000Y-52157D01*
X77019Y-52147D01*
X77057Y-52138D01*
X77104Y-52138D01*
X77142Y-52147D01*
X77161Y-52157D01*
X77171Y-52166D01*
X77180Y-52185D01*
X77180Y-52204D01*
X77171Y-52223D01*
X77161Y-52233D01*
X77142Y-52242D01*
X77104Y-52252D01*
X77057Y-52252D01*
X77019Y-52242D01*
X77000Y-52233D01*
X76990Y-52223D01*
X76980Y-52204D01*
X76980Y-52080D02*
X77180Y-52014D01*
X76980Y-51947D01*
G54D11*
X61254Y-25745D02*
X61278Y-25769D01*
X61302Y-25840D01*
X61302Y-25888D01*
X61278Y-25959D01*
X61230Y-26007D01*
X61183Y-26030D01*
X61088Y-26054D01*
X61016Y-26054D01*
X60921Y-26030D01*
X60873Y-26007D01*
X60826Y-25959D01*
X60802Y-25888D01*
X60802Y-25840D01*
X60826Y-25769D01*
X60850Y-25745D01*
X61302Y-25530D02*
X60802Y-25530D01*
X61040Y-25530D02*
X61040Y-25245D01*
X61302Y-25245D02*
X60802Y-25245D01*
X60850Y-25030D02*
X60826Y-25007D01*
X60802Y-24959D01*
X60802Y-24840D01*
X60826Y-24792D01*
X60850Y-24769D01*
X60897Y-24745D01*
X60945Y-24745D01*
X61016Y-24769D01*
X61302Y-25054D01*
X61302Y-24745D01*
X63854Y-25745D02*
X63878Y-25769D01*
X63902Y-25840D01*
X63902Y-25888D01*
X63878Y-25959D01*
X63830Y-26007D01*
X63783Y-26030D01*
X63688Y-26054D01*
X63616Y-26054D01*
X63521Y-26030D01*
X63473Y-26007D01*
X63426Y-25959D01*
X63402Y-25888D01*
X63402Y-25840D01*
X63426Y-25769D01*
X63450Y-25745D01*
X63902Y-25530D02*
X63402Y-25530D01*
X63640Y-25530D02*
X63640Y-25245D01*
X63902Y-25245D02*
X63402Y-25245D01*
X63902Y-24745D02*
X63902Y-25030D01*
X63902Y-24888D02*
X63402Y-24888D01*
X63473Y-24935D01*
X63521Y-24983D01*
X63545Y-25030D01*
X69307Y-24292D02*
X69307Y-23692D01*
X69535Y-23692D01*
X69592Y-23721D01*
X69621Y-23750D01*
X69650Y-23807D01*
X69650Y-23892D01*
X69621Y-23950D01*
X69592Y-23978D01*
X69535Y-24007D01*
X69307Y-24007D01*
X70221Y-24292D02*
X69878Y-24292D01*
X70050Y-24292D02*
X70050Y-23692D01*
X69992Y-23778D01*
X69935Y-23835D01*
X69878Y-23864D01*
X45654Y-25745D02*
X45678Y-25769D01*
X45702Y-25840D01*
X45702Y-25888D01*
X45678Y-25959D01*
X45630Y-26007D01*
X45583Y-26030D01*
X45488Y-26054D01*
X45416Y-26054D01*
X45321Y-26030D01*
X45273Y-26007D01*
X45226Y-25959D01*
X45202Y-25888D01*
X45202Y-25840D01*
X45226Y-25769D01*
X45250Y-25745D01*
X45702Y-25530D02*
X45202Y-25530D01*
X45440Y-25530D02*
X45440Y-25245D01*
X45702Y-25245D02*
X45202Y-25245D01*
X45416Y-24935D02*
X45392Y-24983D01*
X45369Y-25007D01*
X45321Y-25030D01*
X45297Y-25030D01*
X45250Y-25007D01*
X45226Y-24983D01*
X45202Y-24935D01*
X45202Y-24840D01*
X45226Y-24792D01*
X45250Y-24769D01*
X45297Y-24745D01*
X45321Y-24745D01*
X45369Y-24769D01*
X45392Y-24792D01*
X45416Y-24840D01*
X45416Y-24935D01*
X45440Y-24983D01*
X45464Y-25007D01*
X45511Y-25030D01*
X45607Y-25030D01*
X45654Y-25007D01*
X45678Y-24983D01*
X45702Y-24935D01*
X45702Y-24840D01*
X45678Y-24792D01*
X45654Y-24769D01*
X45607Y-24745D01*
X45511Y-24745D01*
X45464Y-24769D01*
X45440Y-24792D01*
X45416Y-24840D01*
G54D13*
X58795Y-50311D02*
X58795Y-50635D01*
X58814Y-50673D01*
X58833Y-50692D01*
X58871Y-50711D01*
X58947Y-50711D01*
X58985Y-50692D01*
X59004Y-50673D01*
X59023Y-50635D01*
X59023Y-50311D01*
X59423Y-50711D02*
X59195Y-50711D01*
X59309Y-50711D02*
X59309Y-50311D01*
X59271Y-50369D01*
X59233Y-50407D01*
X59195Y-50426D01*
G54D14*
X59507Y-50971D02*
X59678Y-50971D01*
X59592Y-51271D02*
X59592Y-50971D01*
X59764Y-51257D02*
X59807Y-51271D01*
X59878Y-51271D01*
X59907Y-51257D01*
X59921Y-51242D01*
X59935Y-51214D01*
X59935Y-51185D01*
X59921Y-51157D01*
X59907Y-51142D01*
X59878Y-51128D01*
X59821Y-51114D01*
X59792Y-51100D01*
X59778Y-51085D01*
X59764Y-51057D01*
X59764Y-51028D01*
X59778Y-51000D01*
X59792Y-50985D01*
X59821Y-50971D01*
X59892Y-50971D01*
X59935Y-50985D01*
X60107Y-51100D02*
X60078Y-51085D01*
X60064Y-51071D01*
X60050Y-51042D01*
X60050Y-51028D01*
X60064Y-51000D01*
X60078Y-50985D01*
X60107Y-50971D01*
X60164Y-50971D01*
X60192Y-50985D01*
X60207Y-51000D01*
X60221Y-51028D01*
X60221Y-51042D01*
X60207Y-51071D01*
X60192Y-51085D01*
X60164Y-51100D01*
X60107Y-51100D01*
X60078Y-51114D01*
X60064Y-51128D01*
X60050Y-51157D01*
X60050Y-51214D01*
X60064Y-51242D01*
X60078Y-51257D01*
X60107Y-51271D01*
X60164Y-51271D01*
X60192Y-51257D01*
X60207Y-51242D01*
X60221Y-51214D01*
X60221Y-51157D01*
X60207Y-51128D01*
X60192Y-51114D01*
X60164Y-51100D01*
X60478Y-50971D02*
X60421Y-50971D01*
X60392Y-50985D01*
X60378Y-51000D01*
X60350Y-51042D01*
X60335Y-51100D01*
X60335Y-51214D01*
X60350Y-51242D01*
X60364Y-51257D01*
X60392Y-51271D01*
X60450Y-51271D01*
X60478Y-51257D01*
X60492Y-51242D01*
X60507Y-51214D01*
X60507Y-51142D01*
X60492Y-51114D01*
X60478Y-51100D01*
X60450Y-51085D01*
X60392Y-51085D01*
X60364Y-51100D01*
X60350Y-51114D01*
X60335Y-51142D01*
X60792Y-51271D02*
X60621Y-51271D01*
X60707Y-51271D02*
X60707Y-50971D01*
X60678Y-51014D01*
X60650Y-51042D01*
X60621Y-51057D01*
X60921Y-51271D02*
X60921Y-50971D01*
X61064Y-51271D02*
X61064Y-50971D01*
X61135Y-50971D01*
X61178Y-50985D01*
X61207Y-51014D01*
X61221Y-51042D01*
X61235Y-51100D01*
X61235Y-51142D01*
X61221Y-51200D01*
X61207Y-51228D01*
X61178Y-51257D01*
X61135Y-51271D01*
X61064Y-51271D01*
X61321Y-50971D02*
X61492Y-50971D01*
X61407Y-51271D02*
X61407Y-50971D01*
G54D13*
X41474Y-56011D02*
X41474Y-55611D01*
X41627Y-55611D01*
X41665Y-55630D01*
X41684Y-55650D01*
X41703Y-55688D01*
X41703Y-55745D01*
X41684Y-55783D01*
X41665Y-55802D01*
X41627Y-55821D01*
X41474Y-55821D01*
X41855Y-55650D02*
X41874Y-55630D01*
X41912Y-55611D01*
X42008Y-55611D01*
X42046Y-55630D01*
X42065Y-55650D01*
X42084Y-55688D01*
X42084Y-55726D01*
X42065Y-55783D01*
X41836Y-56011D01*
X42084Y-56011D01*
G54D11*
X42428Y-61342D02*
X42828Y-61942D01*
X42828Y-61342D02*
X42428Y-61942D01*
X43342Y-61942D02*
X43057Y-61942D01*
X43057Y-61342D01*
X43885Y-61942D02*
X43685Y-61657D01*
X43542Y-61942D02*
X43542Y-61342D01*
X43771Y-61342D01*
X43828Y-61371D01*
X43857Y-61400D01*
X43885Y-61457D01*
X43885Y-61542D01*
X43857Y-61600D01*
X43828Y-61628D01*
X43771Y-61657D01*
X43542Y-61657D01*
X44142Y-61714D02*
X44600Y-61714D01*
X44828Y-61342D02*
X45200Y-61342D01*
X45000Y-61571D01*
X45085Y-61571D01*
X45142Y-61600D01*
X45171Y-61628D01*
X45200Y-61685D01*
X45200Y-61828D01*
X45171Y-61885D01*
X45142Y-61914D01*
X45085Y-61942D01*
X44914Y-61942D01*
X44857Y-61914D01*
X44828Y-61885D01*
X45314Y-62000D02*
X45771Y-62000D01*
X45914Y-61942D02*
X45914Y-61342D01*
X46114Y-61771D01*
X46314Y-61342D01*
X46314Y-61942D01*
G54D13*
X49504Y-48611D02*
X49504Y-48935D01*
X49523Y-48973D01*
X49542Y-48992D01*
X49580Y-49011D01*
X49657Y-49011D01*
X49695Y-48992D01*
X49714Y-48973D01*
X49733Y-48935D01*
X49733Y-48611D01*
X50133Y-49011D02*
X49904Y-49011D01*
X50019Y-49011D02*
X50019Y-48611D01*
X49980Y-48669D01*
X49942Y-48707D01*
X49904Y-48726D01*
X50285Y-48650D02*
X50304Y-48630D01*
X50342Y-48611D01*
X50438Y-48611D01*
X50476Y-48630D01*
X50495Y-48650D01*
X50514Y-48688D01*
X50514Y-48726D01*
X50495Y-48783D01*
X50266Y-49011D01*
X50514Y-49011D01*
G54D17*
X48600Y-50471D02*
X48600Y-50171D01*
X48700Y-50385D01*
X48800Y-50171D01*
X48800Y-50471D01*
X48942Y-50314D02*
X49042Y-50314D01*
X49085Y-50471D02*
X48942Y-50471D01*
X48942Y-50171D01*
X49085Y-50171D01*
X49371Y-50185D02*
X49342Y-50171D01*
X49300Y-50171D01*
X49257Y-50185D01*
X49228Y-50214D01*
X49214Y-50242D01*
X49200Y-50300D01*
X49200Y-50342D01*
X49214Y-50400D01*
X49228Y-50428D01*
X49257Y-50457D01*
X49300Y-50471D01*
X49328Y-50471D01*
X49371Y-50457D01*
X49385Y-50442D01*
X49385Y-50342D01*
X49328Y-50342D01*
X49500Y-50385D02*
X49642Y-50385D01*
X49471Y-50471D02*
X49571Y-50171D01*
X49671Y-50471D01*
X49814Y-50300D02*
X49785Y-50285D01*
X49771Y-50271D01*
X49757Y-50242D01*
X49757Y-50228D01*
X49771Y-50200D01*
X49785Y-50185D01*
X49814Y-50171D01*
X49871Y-50171D01*
X49900Y-50185D01*
X49914Y-50200D01*
X49928Y-50228D01*
X49928Y-50242D01*
X49914Y-50271D01*
X49900Y-50285D01*
X49871Y-50300D01*
X49814Y-50300D01*
X49785Y-50314D01*
X49771Y-50328D01*
X49757Y-50357D01*
X49757Y-50414D01*
X49771Y-50442D01*
X49785Y-50457D01*
X49814Y-50471D01*
X49871Y-50471D01*
X49900Y-50457D01*
X49914Y-50442D01*
X49928Y-50414D01*
X49928Y-50357D01*
X49914Y-50328D01*
X49900Y-50314D01*
X49871Y-50300D01*
X50200Y-50171D02*
X50057Y-50171D01*
X50042Y-50314D01*
X50057Y-50300D01*
X50085Y-50285D01*
X50157Y-50285D01*
X50185Y-50300D01*
X50200Y-50314D01*
X50214Y-50342D01*
X50214Y-50414D01*
X50200Y-50442D01*
X50185Y-50457D01*
X50157Y-50471D01*
X50085Y-50471D01*
X50057Y-50457D01*
X50042Y-50442D01*
X50500Y-50471D02*
X50328Y-50471D01*
X50414Y-50471D02*
X50414Y-50171D01*
X50385Y-50214D01*
X50357Y-50242D01*
X50328Y-50257D01*
X50771Y-50171D02*
X50628Y-50171D01*
X50614Y-50314D01*
X50628Y-50300D01*
X50657Y-50285D01*
X50728Y-50285D01*
X50757Y-50300D01*
X50771Y-50314D01*
X50785Y-50342D01*
X50785Y-50414D01*
X50771Y-50442D01*
X50757Y-50457D01*
X50728Y-50471D01*
X50657Y-50471D01*
X50628Y-50457D01*
X50614Y-50442D01*
X50914Y-50357D02*
X51142Y-50357D01*
X51271Y-50385D02*
X51414Y-50385D01*
X51242Y-50471D02*
X51342Y-50171D01*
X51442Y-50471D01*
G54D15*
X76245Y-33211D02*
X76473Y-33211D01*
X76359Y-33611D02*
X76359Y-33211D01*
X76835Y-33611D02*
X76702Y-33421D01*
X76607Y-33611D02*
X76607Y-33211D01*
X76759Y-33211D01*
X76797Y-33230D01*
X76816Y-33250D01*
X76835Y-33288D01*
X76835Y-33345D01*
X76816Y-33383D01*
X76797Y-33402D01*
X76759Y-33421D01*
X76607Y-33421D01*
X77216Y-33611D02*
X76988Y-33611D01*
X77102Y-33611D02*
X77102Y-33211D01*
X77064Y-33269D01*
X77026Y-33307D01*
X76988Y-33326D01*
X71495Y-33211D02*
X71723Y-33211D01*
X71609Y-33611D02*
X71609Y-33211D01*
X72085Y-33611D02*
X71952Y-33421D01*
X71857Y-33611D02*
X71857Y-33211D01*
X72009Y-33211D01*
X72047Y-33230D01*
X72066Y-33250D01*
X72085Y-33288D01*
X72085Y-33345D01*
X72066Y-33383D01*
X72047Y-33402D01*
X72009Y-33421D01*
X71857Y-33421D01*
X72238Y-33250D02*
X72257Y-33230D01*
X72295Y-33211D01*
X72390Y-33211D01*
X72428Y-33230D01*
X72447Y-33250D01*
X72466Y-33288D01*
X72466Y-33326D01*
X72447Y-33383D01*
X72219Y-33611D01*
X72466Y-33611D01*
X42995Y-33211D02*
X43223Y-33211D01*
X43109Y-33611D02*
X43109Y-33211D01*
X43585Y-33611D02*
X43452Y-33421D01*
X43357Y-33611D02*
X43357Y-33211D01*
X43509Y-33211D01*
X43547Y-33230D01*
X43566Y-33250D01*
X43585Y-33288D01*
X43585Y-33345D01*
X43566Y-33383D01*
X43547Y-33402D01*
X43509Y-33421D01*
X43357Y-33421D01*
X43814Y-33383D02*
X43776Y-33364D01*
X43757Y-33345D01*
X43738Y-33307D01*
X43738Y-33288D01*
X43757Y-33250D01*
X43776Y-33230D01*
X43814Y-33211D01*
X43890Y-33211D01*
X43928Y-33230D01*
X43947Y-33250D01*
X43966Y-33288D01*
X43966Y-33307D01*
X43947Y-33345D01*
X43928Y-33364D01*
X43890Y-33383D01*
X43814Y-33383D01*
X43776Y-33402D01*
X43757Y-33421D01*
X43738Y-33459D01*
X43738Y-33535D01*
X43757Y-33573D01*
X43776Y-33592D01*
X43814Y-33611D01*
X43890Y-33611D01*
X43928Y-33592D01*
X43947Y-33573D01*
X43966Y-33535D01*
X43966Y-33459D01*
X43947Y-33421D01*
X43928Y-33402D01*
X43890Y-33383D01*
X47795Y-33211D02*
X48023Y-33211D01*
X47909Y-33611D02*
X47909Y-33211D01*
X48385Y-33611D02*
X48252Y-33421D01*
X48157Y-33611D02*
X48157Y-33211D01*
X48309Y-33211D01*
X48347Y-33230D01*
X48366Y-33250D01*
X48385Y-33288D01*
X48385Y-33345D01*
X48366Y-33383D01*
X48347Y-33402D01*
X48309Y-33421D01*
X48157Y-33421D01*
X48519Y-33211D02*
X48785Y-33211D01*
X48614Y-33611D01*
X52495Y-33211D02*
X52723Y-33211D01*
X52609Y-33611D02*
X52609Y-33211D01*
X53085Y-33611D02*
X52952Y-33421D01*
X52857Y-33611D02*
X52857Y-33211D01*
X53009Y-33211D01*
X53047Y-33230D01*
X53066Y-33250D01*
X53085Y-33288D01*
X53085Y-33345D01*
X53066Y-33383D01*
X53047Y-33402D01*
X53009Y-33421D01*
X52857Y-33421D01*
X53428Y-33211D02*
X53352Y-33211D01*
X53314Y-33230D01*
X53295Y-33250D01*
X53257Y-33307D01*
X53238Y-33383D01*
X53238Y-33535D01*
X53257Y-33573D01*
X53276Y-33592D01*
X53314Y-33611D01*
X53390Y-33611D01*
X53428Y-33592D01*
X53447Y-33573D01*
X53466Y-33535D01*
X53466Y-33440D01*
X53447Y-33402D01*
X53428Y-33383D01*
X53390Y-33364D01*
X53314Y-33364D01*
X53276Y-33383D01*
X53257Y-33402D01*
X53238Y-33440D01*
X57245Y-33211D02*
X57473Y-33211D01*
X57359Y-33611D02*
X57359Y-33211D01*
X57835Y-33611D02*
X57702Y-33421D01*
X57607Y-33611D02*
X57607Y-33211D01*
X57759Y-33211D01*
X57797Y-33230D01*
X57816Y-33250D01*
X57835Y-33288D01*
X57835Y-33345D01*
X57816Y-33383D01*
X57797Y-33402D01*
X57759Y-33421D01*
X57607Y-33421D01*
X58197Y-33211D02*
X58007Y-33211D01*
X57988Y-33402D01*
X58007Y-33383D01*
X58045Y-33364D01*
X58140Y-33364D01*
X58178Y-33383D01*
X58197Y-33402D01*
X58216Y-33440D01*
X58216Y-33535D01*
X58197Y-33573D01*
X58178Y-33592D01*
X58140Y-33611D01*
X58045Y-33611D01*
X58007Y-33592D01*
X57988Y-33573D01*
X61995Y-33211D02*
X62223Y-33211D01*
X62109Y-33611D02*
X62109Y-33211D01*
X62585Y-33611D02*
X62452Y-33421D01*
X62357Y-33611D02*
X62357Y-33211D01*
X62509Y-33211D01*
X62547Y-33230D01*
X62566Y-33250D01*
X62585Y-33288D01*
X62585Y-33345D01*
X62566Y-33383D01*
X62547Y-33402D01*
X62509Y-33421D01*
X62357Y-33421D01*
X62928Y-33345D02*
X62928Y-33611D01*
X62833Y-33192D02*
X62738Y-33478D01*
X62985Y-33478D01*
X66745Y-33211D02*
X66973Y-33211D01*
X66859Y-33611D02*
X66859Y-33211D01*
X67335Y-33611D02*
X67202Y-33421D01*
X67107Y-33611D02*
X67107Y-33211D01*
X67259Y-33211D01*
X67297Y-33230D01*
X67316Y-33250D01*
X67335Y-33288D01*
X67335Y-33345D01*
X67316Y-33383D01*
X67297Y-33402D01*
X67259Y-33421D01*
X67107Y-33421D01*
X67469Y-33211D02*
X67716Y-33211D01*
X67583Y-33364D01*
X67640Y-33364D01*
X67678Y-33383D01*
X67697Y-33402D01*
X67716Y-33440D01*
X67716Y-33535D01*
X67697Y-33573D01*
X67678Y-33592D01*
X67640Y-33611D01*
X67526Y-33611D01*
X67488Y-33592D01*
X67469Y-33573D01*
G54D13*
X45895Y-52011D02*
X45895Y-52335D01*
X45914Y-52373D01*
X45933Y-52392D01*
X45971Y-52411D01*
X46047Y-52411D01*
X46085Y-52392D01*
X46104Y-52373D01*
X46123Y-52335D01*
X46123Y-52011D01*
X46295Y-52050D02*
X46314Y-52030D01*
X46352Y-52011D01*
X46447Y-52011D01*
X46485Y-52030D01*
X46504Y-52050D01*
X46523Y-52088D01*
X46523Y-52126D01*
X46504Y-52183D01*
X46276Y-52411D01*
X46523Y-52411D01*
G54D14*
X43916Y-50791D02*
X44150Y-50791D01*
X44000Y-51141D01*
X44450Y-50791D02*
X44283Y-50791D01*
X44266Y-50958D01*
X44283Y-50941D01*
X44316Y-50925D01*
X44400Y-50925D01*
X44433Y-50941D01*
X44450Y-50958D01*
X44466Y-50991D01*
X44466Y-51075D01*
X44450Y-51108D01*
X44433Y-51125D01*
X44400Y-51141D01*
X44316Y-51141D01*
X44283Y-51125D01*
X44266Y-51108D01*
X44800Y-51141D02*
X44600Y-51141D01*
X44700Y-51141D02*
X44700Y-50791D01*
X44666Y-50841D01*
X44633Y-50875D01*
X44600Y-50891D01*
X44916Y-50791D02*
X45150Y-50791D01*
X45000Y-51141D01*
X45433Y-50791D02*
X45366Y-50791D01*
X45333Y-50808D01*
X45316Y-50825D01*
X45283Y-50875D01*
X45266Y-50941D01*
X45266Y-51075D01*
X45283Y-51108D01*
X45300Y-51125D01*
X45333Y-51141D01*
X45400Y-51141D01*
X45433Y-51125D01*
X45450Y-51108D01*
X45466Y-51075D01*
X45466Y-50991D01*
X45450Y-50958D01*
X45433Y-50941D01*
X45400Y-50925D01*
X45333Y-50925D01*
X45300Y-50941D01*
X45283Y-50958D01*
X45266Y-50991D01*
G54D18*
X64471Y-45580D02*
X64404Y-45485D01*
X64357Y-45580D02*
X64357Y-45380D01*
X64433Y-45380D01*
X64452Y-45390D01*
X64461Y-45400D01*
X64471Y-45419D01*
X64471Y-45447D01*
X64461Y-45466D01*
X64452Y-45476D01*
X64433Y-45485D01*
X64357Y-45485D01*
X64661Y-45580D02*
X64547Y-45580D01*
X64604Y-45580D02*
X64604Y-45380D01*
X64585Y-45409D01*
X64566Y-45428D01*
X64547Y-45438D01*
X64852Y-45580D02*
X64738Y-45580D01*
X64795Y-45580D02*
X64795Y-45380D01*
X64776Y-45409D01*
X64757Y-45428D01*
X64738Y-45438D01*
X60016Y-49430D02*
X59950Y-49335D01*
X59902Y-49430D02*
X59902Y-49230D01*
X59978Y-49230D01*
X59997Y-49240D01*
X60007Y-49250D01*
X60016Y-49269D01*
X60016Y-49297D01*
X60007Y-49316D01*
X59997Y-49326D01*
X59978Y-49335D01*
X59902Y-49335D01*
X60207Y-49430D02*
X60092Y-49430D01*
X60150Y-49430D02*
X60150Y-49230D01*
X60130Y-49259D01*
X60111Y-49278D01*
X60092Y-49288D01*
X59721Y-45580D02*
X59654Y-45485D01*
X59607Y-45580D02*
X59607Y-45380D01*
X59683Y-45380D01*
X59702Y-45390D01*
X59711Y-45400D01*
X59721Y-45419D01*
X59721Y-45447D01*
X59711Y-45466D01*
X59702Y-45476D01*
X59683Y-45485D01*
X59607Y-45485D01*
X59911Y-45580D02*
X59797Y-45580D01*
X59854Y-45580D02*
X59854Y-45380D01*
X59835Y-45409D01*
X59816Y-45428D01*
X59797Y-45438D01*
X60035Y-45380D02*
X60054Y-45380D01*
X60073Y-45390D01*
X60083Y-45400D01*
X60092Y-45419D01*
X60102Y-45457D01*
X60102Y-45504D01*
X60092Y-45542D01*
X60083Y-45561D01*
X60073Y-45571D01*
X60054Y-45580D01*
X60035Y-45580D01*
X60016Y-45571D01*
X60007Y-45561D01*
X59997Y-45542D01*
X59988Y-45504D01*
X59988Y-45457D01*
X59997Y-45419D01*
X60007Y-45400D01*
X60016Y-45390D01*
X60035Y-45380D01*
X46183Y-51392D02*
X46183Y-51430D01*
X46196Y-51450D01*
X46210Y-51459D01*
X46250Y-51478D01*
X46303Y-51488D01*
X46410Y-51488D01*
X46436Y-51478D01*
X46450Y-51469D01*
X46463Y-51450D01*
X46463Y-51411D01*
X46450Y-51392D01*
X46436Y-51383D01*
X46410Y-51373D01*
X46343Y-51373D01*
X46316Y-51383D01*
X46303Y-51392D01*
X46290Y-51411D01*
X46290Y-51450D01*
X46303Y-51469D01*
X46316Y-51478D01*
X46343Y-51488D01*
X46183Y-51250D02*
X46183Y-51230D01*
X46196Y-51211D01*
X46210Y-51202D01*
X46236Y-51192D01*
X46290Y-51183D01*
X46356Y-51183D01*
X46410Y-51192D01*
X46436Y-51202D01*
X46450Y-51211D01*
X46463Y-51230D01*
X46463Y-51250D01*
X46450Y-51269D01*
X46436Y-51278D01*
X46410Y-51288D01*
X46356Y-51297D01*
X46290Y-51297D01*
X46236Y-51288D01*
X46210Y-51278D01*
X46196Y-51269D01*
X46183Y-51250D01*
X46463Y-51097D02*
X46183Y-51097D01*
X46316Y-51097D02*
X46316Y-50983D01*
X46463Y-50983D02*
X46183Y-50983D01*
X46276Y-50907D02*
X46276Y-50802D01*
X46463Y-50907D01*
X46463Y-50802D01*
X52816Y-45580D02*
X52750Y-45485D01*
X52702Y-45580D02*
X52702Y-45380D01*
X52778Y-45380D01*
X52797Y-45390D01*
X52807Y-45400D01*
X52816Y-45419D01*
X52816Y-45447D01*
X52807Y-45466D01*
X52797Y-45476D01*
X52778Y-45485D01*
X52702Y-45485D01*
X52911Y-45580D02*
X52950Y-45580D01*
X52969Y-45571D01*
X52978Y-45561D01*
X52997Y-45533D01*
X53007Y-45495D01*
X53007Y-45419D01*
X52997Y-45400D01*
X52988Y-45390D01*
X52969Y-45380D01*
X52930Y-45380D01*
X52911Y-45390D01*
X52902Y-45400D01*
X52892Y-45419D01*
X52892Y-45466D01*
X52902Y-45485D01*
X52911Y-45495D01*
X52930Y-45504D01*
X52969Y-45504D01*
X52988Y-45495D01*
X52997Y-45485D01*
X53007Y-45466D01*
X51016Y-45580D02*
X50950Y-45485D01*
X50902Y-45580D02*
X50902Y-45380D01*
X50978Y-45380D01*
X50997Y-45390D01*
X51007Y-45400D01*
X51016Y-45419D01*
X51016Y-45447D01*
X51007Y-45466D01*
X50997Y-45476D01*
X50978Y-45485D01*
X50902Y-45485D01*
X51130Y-45466D02*
X51111Y-45457D01*
X51102Y-45447D01*
X51092Y-45428D01*
X51092Y-45419D01*
X51102Y-45400D01*
X51111Y-45390D01*
X51130Y-45380D01*
X51169Y-45380D01*
X51188Y-45390D01*
X51197Y-45400D01*
X51207Y-45419D01*
X51207Y-45428D01*
X51197Y-45447D01*
X51188Y-45457D01*
X51169Y-45466D01*
X51130Y-45466D01*
X51111Y-45476D01*
X51102Y-45485D01*
X51092Y-45504D01*
X51092Y-45542D01*
X51102Y-45561D01*
X51111Y-45571D01*
X51130Y-45580D01*
X51169Y-45580D01*
X51188Y-45571D01*
X51197Y-45561D01*
X51207Y-45542D01*
X51207Y-45504D01*
X51197Y-45485D01*
X51188Y-45476D01*
X51169Y-45466D01*
X46266Y-45580D02*
X46200Y-45485D01*
X46152Y-45580D02*
X46152Y-45380D01*
X46228Y-45380D01*
X46247Y-45390D01*
X46257Y-45400D01*
X46266Y-45419D01*
X46266Y-45447D01*
X46257Y-45466D01*
X46247Y-45476D01*
X46228Y-45485D01*
X46152Y-45485D01*
X46333Y-45380D02*
X46466Y-45380D01*
X46380Y-45580D01*
X41516Y-45580D02*
X41450Y-45485D01*
X41402Y-45580D02*
X41402Y-45380D01*
X41478Y-45380D01*
X41497Y-45390D01*
X41507Y-45400D01*
X41516Y-45419D01*
X41516Y-45447D01*
X41507Y-45466D01*
X41497Y-45476D01*
X41478Y-45485D01*
X41402Y-45485D01*
X41688Y-45380D02*
X41650Y-45380D01*
X41630Y-45390D01*
X41621Y-45400D01*
X41602Y-45428D01*
X41592Y-45466D01*
X41592Y-45542D01*
X41602Y-45561D01*
X41611Y-45571D01*
X41630Y-45580D01*
X41669Y-45580D01*
X41688Y-45571D01*
X41697Y-45561D01*
X41707Y-45542D01*
X41707Y-45495D01*
X41697Y-45476D01*
X41688Y-45466D01*
X41669Y-45457D01*
X41630Y-45457D01*
X41611Y-45466D01*
X41602Y-45476D01*
X41592Y-45495D01*
X56816Y-52180D02*
X56750Y-52085D01*
X56702Y-52180D02*
X56702Y-51980D01*
X56778Y-51980D01*
X56797Y-51990D01*
X56807Y-52000D01*
X56816Y-52019D01*
X56816Y-52047D01*
X56807Y-52066D01*
X56797Y-52076D01*
X56778Y-52085D01*
X56702Y-52085D01*
X56997Y-51980D02*
X56902Y-51980D01*
X56892Y-52076D01*
X56902Y-52066D01*
X56921Y-52057D01*
X56969Y-52057D01*
X56988Y-52066D01*
X56997Y-52076D01*
X57007Y-52095D01*
X57007Y-52142D01*
X56997Y-52161D01*
X56988Y-52171D01*
X56969Y-52180D01*
X56921Y-52180D01*
X56902Y-52171D01*
X56892Y-52161D01*
X45280Y-53733D02*
X45185Y-53800D01*
X45280Y-53847D02*
X45080Y-53847D01*
X45080Y-53771D01*
X45090Y-53752D01*
X45100Y-53742D01*
X45119Y-53733D01*
X45147Y-53733D01*
X45166Y-53742D01*
X45176Y-53752D01*
X45185Y-53771D01*
X45185Y-53847D01*
X45147Y-53561D02*
X45280Y-53561D01*
X45071Y-53609D02*
X45214Y-53657D01*
X45214Y-53533D01*
X45016Y-47080D02*
X44950Y-46985D01*
X44902Y-47080D02*
X44902Y-46880D01*
X44978Y-46880D01*
X44997Y-46890D01*
X45007Y-46900D01*
X45016Y-46919D01*
X45016Y-46947D01*
X45007Y-46966D01*
X44997Y-46976D01*
X44978Y-46985D01*
X44902Y-46985D01*
X45083Y-46880D02*
X45207Y-46880D01*
X45140Y-46957D01*
X45169Y-46957D01*
X45188Y-46966D01*
X45197Y-46976D01*
X45207Y-46995D01*
X45207Y-47042D01*
X45197Y-47061D01*
X45188Y-47071D01*
X45169Y-47080D01*
X45111Y-47080D01*
X45092Y-47071D01*
X45083Y-47061D01*
X62180Y-52433D02*
X62085Y-52500D01*
X62180Y-52547D02*
X61980Y-52547D01*
X61980Y-52471D01*
X61990Y-52452D01*
X62000Y-52442D01*
X62019Y-52433D01*
X62047Y-52433D01*
X62066Y-52442D01*
X62076Y-52452D01*
X62085Y-52471D01*
X62085Y-52547D01*
X62000Y-52357D02*
X61990Y-52347D01*
X61980Y-52328D01*
X61980Y-52280D01*
X61990Y-52261D01*
X62000Y-52252D01*
X62019Y-52242D01*
X62038Y-52242D01*
X62066Y-52252D01*
X62180Y-52366D01*
X62180Y-52242D01*
X73971Y-45580D02*
X73904Y-45485D01*
X73857Y-45580D02*
X73857Y-45380D01*
X73933Y-45380D01*
X73952Y-45390D01*
X73961Y-45400D01*
X73971Y-45419D01*
X73971Y-45447D01*
X73961Y-45466D01*
X73952Y-45476D01*
X73933Y-45485D01*
X73857Y-45485D01*
X74161Y-45580D02*
X74047Y-45580D01*
X74104Y-45580D02*
X74104Y-45380D01*
X74085Y-45409D01*
X74066Y-45428D01*
X74047Y-45438D01*
X74228Y-45380D02*
X74352Y-45380D01*
X74285Y-45457D01*
X74314Y-45457D01*
X74333Y-45466D01*
X74342Y-45476D01*
X74352Y-45495D01*
X74352Y-45542D01*
X74342Y-45561D01*
X74333Y-45571D01*
X74314Y-45580D01*
X74257Y-45580D01*
X74238Y-45571D01*
X74228Y-45561D01*
X47516Y-54861D02*
X47507Y-54871D01*
X47478Y-54880D01*
X47459Y-54880D01*
X47430Y-54871D01*
X47411Y-54852D01*
X47402Y-54833D01*
X47392Y-54795D01*
X47392Y-54766D01*
X47402Y-54728D01*
X47411Y-54709D01*
X47430Y-54690D01*
X47459Y-54680D01*
X47478Y-54680D01*
X47507Y-54690D01*
X47516Y-54700D01*
X47707Y-54880D02*
X47592Y-54880D01*
X47650Y-54880D02*
X47650Y-54680D01*
X47630Y-54709D01*
X47611Y-54728D01*
X47592Y-54738D01*
X69221Y-45580D02*
X69154Y-45485D01*
X69107Y-45580D02*
X69107Y-45380D01*
X69183Y-45380D01*
X69202Y-45390D01*
X69211Y-45400D01*
X69221Y-45419D01*
X69221Y-45447D01*
X69211Y-45466D01*
X69202Y-45476D01*
X69183Y-45485D01*
X69107Y-45485D01*
X69411Y-45580D02*
X69297Y-45580D01*
X69354Y-45580D02*
X69354Y-45380D01*
X69335Y-45409D01*
X69316Y-45428D01*
X69297Y-45438D01*
X69488Y-45400D02*
X69497Y-45390D01*
X69516Y-45380D01*
X69564Y-45380D01*
X69583Y-45390D01*
X69592Y-45400D01*
X69602Y-45419D01*
X69602Y-45438D01*
X69592Y-45466D01*
X69478Y-45580D01*
X69602Y-45580D01*
X50266Y-45811D02*
X50257Y-45821D01*
X50228Y-45830D01*
X50209Y-45830D01*
X50180Y-45821D01*
X50161Y-45802D01*
X50152Y-45783D01*
X50142Y-45745D01*
X50142Y-45716D01*
X50152Y-45678D01*
X50161Y-45659D01*
X50180Y-45640D01*
X50209Y-45630D01*
X50228Y-45630D01*
X50257Y-45640D01*
X50266Y-45650D01*
X50438Y-45630D02*
X50400Y-45630D01*
X50380Y-45640D01*
X50371Y-45650D01*
X50352Y-45678D01*
X50342Y-45716D01*
X50342Y-45792D01*
X50352Y-45811D01*
X50361Y-45821D01*
X50380Y-45830D01*
X50419Y-45830D01*
X50438Y-45821D01*
X50447Y-45811D01*
X50457Y-45792D01*
X50457Y-45745D01*
X50447Y-45726D01*
X50438Y-45716D01*
X50419Y-45707D01*
X50380Y-45707D01*
X50361Y-45716D01*
X50352Y-45726D01*
X50342Y-45745D01*
X42861Y-52183D02*
X42871Y-52192D01*
X42880Y-52221D01*
X42880Y-52240D01*
X42871Y-52269D01*
X42852Y-52288D01*
X42833Y-52297D01*
X42795Y-52307D01*
X42766Y-52307D01*
X42728Y-52297D01*
X42709Y-52288D01*
X42690Y-52269D01*
X42680Y-52240D01*
X42680Y-52221D01*
X42690Y-52192D01*
X42700Y-52183D01*
X42680Y-52002D02*
X42680Y-52097D01*
X42776Y-52107D01*
X42766Y-52097D01*
X42757Y-52078D01*
X42757Y-52030D01*
X42766Y-52011D01*
X42776Y-52002D01*
X42795Y-51992D01*
X42842Y-51992D01*
X42861Y-52002D01*
X42871Y-52011D01*
X42880Y-52030D01*
X42880Y-52078D01*
X42871Y-52097D01*
X42861Y-52107D01*
X50916Y-54911D02*
X50907Y-54921D01*
X50878Y-54930D01*
X50859Y-54930D01*
X50830Y-54921D01*
X50811Y-54902D01*
X50802Y-54883D01*
X50792Y-54845D01*
X50792Y-54816D01*
X50802Y-54778D01*
X50811Y-54759D01*
X50830Y-54740D01*
X50859Y-54730D01*
X50878Y-54730D01*
X50907Y-54740D01*
X50916Y-54750D01*
X50992Y-54750D02*
X51002Y-54740D01*
X51021Y-54730D01*
X51069Y-54730D01*
X51088Y-54740D01*
X51097Y-54750D01*
X51107Y-54769D01*
X51107Y-54788D01*
X51097Y-54816D01*
X50983Y-54930D01*
X51107Y-54930D01*
G54D13*
X41011Y-52195D02*
X40611Y-52195D01*
X40611Y-52042D01*
X40630Y-52004D01*
X40650Y-51985D01*
X40688Y-51966D01*
X40745Y-51966D01*
X40783Y-51985D01*
X40802Y-52004D01*
X40821Y-52042D01*
X40821Y-52195D01*
X40611Y-51604D02*
X40611Y-51795D01*
X40802Y-51814D01*
X40783Y-51795D01*
X40764Y-51757D01*
X40764Y-51661D01*
X40783Y-51623D01*
X40802Y-51604D01*
X40840Y-51585D01*
X40935Y-51585D01*
X40973Y-51604D01*
X40992Y-51623D01*
X41011Y-51661D01*
X41011Y-51757D01*
X40992Y-51795D01*
X40973Y-51814D01*
X41661Y-49790D02*
X41261Y-49790D01*
X41642Y-49619D02*
X41661Y-49561D01*
X41661Y-49466D01*
X41642Y-49428D01*
X41623Y-49409D01*
X41585Y-49390D01*
X41547Y-49390D01*
X41509Y-49409D01*
X41490Y-49428D01*
X41471Y-49466D01*
X41452Y-49542D01*
X41433Y-49580D01*
X41414Y-49599D01*
X41376Y-49619D01*
X41338Y-49619D01*
X41300Y-49599D01*
X41280Y-49580D01*
X41261Y-49542D01*
X41261Y-49447D01*
X41280Y-49390D01*
X41661Y-49219D02*
X41261Y-49219D01*
X41261Y-49066D01*
X41280Y-49028D01*
X41300Y-49009D01*
X41338Y-48990D01*
X41395Y-48990D01*
X41433Y-49009D01*
X41452Y-49028D01*
X41471Y-49066D01*
X41471Y-49219D01*
X48404Y-45311D02*
X48404Y-44911D01*
X48557Y-44911D01*
X48595Y-44930D01*
X48614Y-44950D01*
X48633Y-44988D01*
X48633Y-45045D01*
X48614Y-45083D01*
X48595Y-45102D01*
X48557Y-45121D01*
X48404Y-45121D01*
X48976Y-45045D02*
X48976Y-45311D01*
X48880Y-44892D02*
X48785Y-45178D01*
X49033Y-45178D01*
G54D12*
X48547Y-46776D02*
X48480Y-46776D01*
X48480Y-46880D02*
X48480Y-46680D01*
X48576Y-46680D01*
X48738Y-46880D02*
X48738Y-46776D01*
X48728Y-46757D01*
X48709Y-46747D01*
X48671Y-46747D01*
X48652Y-46757D01*
X48738Y-46871D02*
X48719Y-46880D01*
X48671Y-46880D01*
X48652Y-46871D01*
X48642Y-46852D01*
X48642Y-46833D01*
X48652Y-46814D01*
X48671Y-46804D01*
X48719Y-46804D01*
X48738Y-46795D01*
X48833Y-46747D02*
X48833Y-46880D01*
X48833Y-46766D02*
X48842Y-46757D01*
X48861Y-46747D01*
X48890Y-46747D01*
X48909Y-46757D01*
X48919Y-46776D01*
X48919Y-46880D01*
G54D13*
X74754Y-42361D02*
X74754Y-42685D01*
X74773Y-42723D01*
X74792Y-42742D01*
X74830Y-42761D01*
X74907Y-42761D01*
X74945Y-42742D01*
X74964Y-42723D01*
X74983Y-42685D01*
X74983Y-42361D01*
X75383Y-42761D02*
X75154Y-42761D01*
X75269Y-42761D02*
X75269Y-42361D01*
X75230Y-42419D01*
X75192Y-42457D01*
X75154Y-42476D01*
X75764Y-42761D02*
X75535Y-42761D01*
X75650Y-42761D02*
X75650Y-42361D01*
X75611Y-42419D01*
X75573Y-42457D01*
X75535Y-42476D01*
X70004Y-42361D02*
X70004Y-42685D01*
X70023Y-42723D01*
X70042Y-42742D01*
X70080Y-42761D01*
X70157Y-42761D01*
X70195Y-42742D01*
X70214Y-42723D01*
X70233Y-42685D01*
X70233Y-42361D01*
X70633Y-42761D02*
X70404Y-42761D01*
X70519Y-42761D02*
X70519Y-42361D01*
X70480Y-42419D01*
X70442Y-42457D01*
X70404Y-42476D01*
X70880Y-42361D02*
X70919Y-42361D01*
X70957Y-42380D01*
X70976Y-42400D01*
X70995Y-42438D01*
X71014Y-42514D01*
X71014Y-42609D01*
X70995Y-42685D01*
X70976Y-42723D01*
X70957Y-42742D01*
X70919Y-42761D01*
X70880Y-42761D01*
X70842Y-42742D01*
X70823Y-42723D01*
X70804Y-42685D01*
X70785Y-42609D01*
X70785Y-42514D01*
X70804Y-42438D01*
X70823Y-42400D01*
X70842Y-42380D01*
X70880Y-42361D01*
X65445Y-42361D02*
X65445Y-42685D01*
X65464Y-42723D01*
X65483Y-42742D01*
X65521Y-42761D01*
X65597Y-42761D01*
X65635Y-42742D01*
X65654Y-42723D01*
X65673Y-42685D01*
X65673Y-42361D01*
X65883Y-42761D02*
X65959Y-42761D01*
X65997Y-42742D01*
X66016Y-42723D01*
X66054Y-42666D01*
X66073Y-42590D01*
X66073Y-42438D01*
X66054Y-42400D01*
X66035Y-42380D01*
X65997Y-42361D01*
X65921Y-42361D01*
X65883Y-42380D01*
X65864Y-42400D01*
X65845Y-42438D01*
X65845Y-42533D01*
X65864Y-42571D01*
X65883Y-42590D01*
X65921Y-42609D01*
X65997Y-42609D01*
X66035Y-42590D01*
X66054Y-42571D01*
X66073Y-42533D01*
X60695Y-42361D02*
X60695Y-42685D01*
X60714Y-42723D01*
X60733Y-42742D01*
X60771Y-42761D01*
X60847Y-42761D01*
X60885Y-42742D01*
X60904Y-42723D01*
X60923Y-42685D01*
X60923Y-42361D01*
X61171Y-42533D02*
X61133Y-42514D01*
X61114Y-42495D01*
X61095Y-42457D01*
X61095Y-42438D01*
X61114Y-42400D01*
X61133Y-42380D01*
X61171Y-42361D01*
X61247Y-42361D01*
X61285Y-42380D01*
X61304Y-42400D01*
X61323Y-42438D01*
X61323Y-42457D01*
X61304Y-42495D01*
X61285Y-42514D01*
X61247Y-42533D01*
X61171Y-42533D01*
X61133Y-42552D01*
X61114Y-42571D01*
X61095Y-42609D01*
X61095Y-42685D01*
X61114Y-42723D01*
X61133Y-42742D01*
X61171Y-42761D01*
X61247Y-42761D01*
X61285Y-42742D01*
X61304Y-42723D01*
X61323Y-42685D01*
X61323Y-42609D01*
X61304Y-42571D01*
X61285Y-42552D01*
X61247Y-42533D01*
X55945Y-42361D02*
X55945Y-42685D01*
X55964Y-42723D01*
X55983Y-42742D01*
X56021Y-42761D01*
X56097Y-42761D01*
X56135Y-42742D01*
X56154Y-42723D01*
X56173Y-42685D01*
X56173Y-42361D01*
X56326Y-42361D02*
X56592Y-42361D01*
X56421Y-42761D01*
X51195Y-42361D02*
X51195Y-42685D01*
X51214Y-42723D01*
X51233Y-42742D01*
X51271Y-42761D01*
X51347Y-42761D01*
X51385Y-42742D01*
X51404Y-42723D01*
X51423Y-42685D01*
X51423Y-42361D01*
X51785Y-42361D02*
X51709Y-42361D01*
X51671Y-42380D01*
X51652Y-42400D01*
X51614Y-42457D01*
X51595Y-42533D01*
X51595Y-42685D01*
X51614Y-42723D01*
X51633Y-42742D01*
X51671Y-42761D01*
X51747Y-42761D01*
X51785Y-42742D01*
X51804Y-42723D01*
X51823Y-42685D01*
X51823Y-42590D01*
X51804Y-42552D01*
X51785Y-42533D01*
X51747Y-42514D01*
X51671Y-42514D01*
X51633Y-42533D01*
X51614Y-42552D01*
X51595Y-42590D01*
X46445Y-42361D02*
X46445Y-42685D01*
X46464Y-42723D01*
X46483Y-42742D01*
X46521Y-42761D01*
X46597Y-42761D01*
X46635Y-42742D01*
X46654Y-42723D01*
X46673Y-42685D01*
X46673Y-42361D01*
X47054Y-42361D02*
X46864Y-42361D01*
X46845Y-42552D01*
X46864Y-42533D01*
X46902Y-42514D01*
X46997Y-42514D01*
X47035Y-42533D01*
X47054Y-42552D01*
X47073Y-42590D01*
X47073Y-42685D01*
X47054Y-42723D01*
X47035Y-42742D01*
X46997Y-42761D01*
X46902Y-42761D01*
X46864Y-42742D01*
X46845Y-42723D01*
X41695Y-42361D02*
X41695Y-42685D01*
X41714Y-42723D01*
X41733Y-42742D01*
X41771Y-42761D01*
X41847Y-42761D01*
X41885Y-42742D01*
X41904Y-42723D01*
X41923Y-42685D01*
X41923Y-42361D01*
X42285Y-42495D02*
X42285Y-42761D01*
X42190Y-42342D02*
X42095Y-42628D01*
X42342Y-42628D01*
X58373Y-49316D02*
X58392Y-49335D01*
X58411Y-49392D01*
X58411Y-49430D01*
X58392Y-49488D01*
X58354Y-49526D01*
X58316Y-49545D01*
X58240Y-49564D01*
X58183Y-49564D01*
X58107Y-49545D01*
X58069Y-49526D01*
X58030Y-49488D01*
X58011Y-49430D01*
X58011Y-49392D01*
X58030Y-49335D01*
X58050Y-49316D01*
X58011Y-49183D02*
X58011Y-48935D01*
X58164Y-49069D01*
X58164Y-49011D01*
X58183Y-48973D01*
X58202Y-48954D01*
X58240Y-48935D01*
X58335Y-48935D01*
X58373Y-48954D01*
X58392Y-48973D01*
X58411Y-49011D01*
X58411Y-49126D01*
X58392Y-49164D01*
X58373Y-49183D01*
G54D15*
X60057Y-48441D02*
X60057Y-48641D01*
X60057Y-48541D02*
X59607Y-48541D01*
X59671Y-48575D01*
X59714Y-48608D01*
X59735Y-48641D01*
X59607Y-48225D02*
X59607Y-48191D01*
X59628Y-48158D01*
X59650Y-48141D01*
X59692Y-48125D01*
X59778Y-48108D01*
X59885Y-48108D01*
X59971Y-48125D01*
X60014Y-48141D01*
X60035Y-48158D01*
X60057Y-48191D01*
X60057Y-48225D01*
X60035Y-48258D01*
X60014Y-48275D01*
X59971Y-48291D01*
X59885Y-48308D01*
X59778Y-48308D01*
X59692Y-48291D01*
X59650Y-48275D01*
X59628Y-48258D01*
X59607Y-48225D01*
X59607Y-47891D02*
X59607Y-47858D01*
X59628Y-47825D01*
X59650Y-47808D01*
X59692Y-47791D01*
X59778Y-47775D01*
X59885Y-47775D01*
X59971Y-47791D01*
X60014Y-47808D01*
X60035Y-47825D01*
X60057Y-47858D01*
X60057Y-47891D01*
X60035Y-47925D01*
X60014Y-47941D01*
X59971Y-47958D01*
X59885Y-47975D01*
X59778Y-47975D01*
X59692Y-47958D01*
X59650Y-47941D01*
X59628Y-47925D01*
X59607Y-47891D01*
X59757Y-47474D02*
X60057Y-47474D01*
X59757Y-47624D02*
X59992Y-47624D01*
X60035Y-47608D01*
X60057Y-47574D01*
X60057Y-47524D01*
X60035Y-47491D01*
X60014Y-47474D01*
X59821Y-47191D02*
X59821Y-47308D01*
X60057Y-47308D02*
X59607Y-47308D01*
X59607Y-47141D01*
G54D19*
X59285Y-47071D02*
X59285Y-46728D01*
X59457Y-46900D02*
X59114Y-46900D01*
G54D20*
G54D13*
X55123Y-50266D02*
X55142Y-50285D01*
X55161Y-50342D01*
X55161Y-50380D01*
X55142Y-50438D01*
X55104Y-50476D01*
X55066Y-50495D01*
X54990Y-50514D01*
X54933Y-50514D01*
X54857Y-50495D01*
X54819Y-50476D01*
X54780Y-50438D01*
X54761Y-50380D01*
X54761Y-50342D01*
X54780Y-50285D01*
X54800Y-50266D01*
X54895Y-49923D02*
X55161Y-49923D01*
X54742Y-50019D02*
X55028Y-50114D01*
X55028Y-49866D01*
G54D15*
X53561Y-49391D02*
X53561Y-49591D01*
X53561Y-49491D02*
X53161Y-49491D01*
X53219Y-49525D01*
X53257Y-49558D01*
X53276Y-49591D01*
X53161Y-49175D02*
X53161Y-49141D01*
X53180Y-49108D01*
X53200Y-49091D01*
X53238Y-49075D01*
X53314Y-49058D01*
X53409Y-49058D01*
X53485Y-49075D01*
X53523Y-49091D01*
X53542Y-49108D01*
X53561Y-49141D01*
X53561Y-49175D01*
X53542Y-49208D01*
X53523Y-49225D01*
X53485Y-49241D01*
X53409Y-49258D01*
X53314Y-49258D01*
X53238Y-49241D01*
X53200Y-49225D01*
X53180Y-49208D01*
X53161Y-49175D01*
X53161Y-48841D02*
X53161Y-48808D01*
X53180Y-48775D01*
X53200Y-48758D01*
X53238Y-48741D01*
X53314Y-48725D01*
X53409Y-48725D01*
X53485Y-48741D01*
X53523Y-48758D01*
X53542Y-48775D01*
X53561Y-48808D01*
X53561Y-48841D01*
X53542Y-48875D01*
X53523Y-48891D01*
X53485Y-48908D01*
X53409Y-48925D01*
X53314Y-48925D01*
X53238Y-48908D01*
X53200Y-48891D01*
X53180Y-48875D01*
X53161Y-48841D01*
X53295Y-48424D02*
X53561Y-48424D01*
X53295Y-48574D02*
X53504Y-48574D01*
X53542Y-48558D01*
X53561Y-48524D01*
X53561Y-48474D01*
X53542Y-48441D01*
X53523Y-48424D01*
X53295Y-48308D02*
X53295Y-48175D01*
X53561Y-48258D02*
X53219Y-48258D01*
X53180Y-48241D01*
X53161Y-48208D01*
X53161Y-48175D01*
G54D19*
X54010Y-50071D02*
X54010Y-49728D01*
X54182Y-49900D02*
X53839Y-49900D01*
G54D20*
G54D13*
X52604Y-56011D02*
X52604Y-55611D01*
X52757Y-55611D01*
X52795Y-55630D01*
X52814Y-55650D01*
X52833Y-55688D01*
X52833Y-55745D01*
X52814Y-55783D01*
X52795Y-55802D01*
X52757Y-55821D01*
X52604Y-55821D01*
X52966Y-55611D02*
X53214Y-55611D01*
X53080Y-55764D01*
X53138Y-55764D01*
X53176Y-55783D01*
X53195Y-55802D01*
X53214Y-55840D01*
X53214Y-55935D01*
X53195Y-55973D01*
X53176Y-55992D01*
X53138Y-56011D01*
X53023Y-56011D01*
X52985Y-55992D01*
X52966Y-55973D01*
G54D11*
X53214Y-61342D02*
X53614Y-61942D01*
X53614Y-61342D02*
X53214Y-61942D01*
X54128Y-61942D02*
X53842Y-61942D01*
X53842Y-61342D01*
X54671Y-61942D02*
X54471Y-61657D01*
X54328Y-61942D02*
X54328Y-61342D01*
X54557Y-61342D01*
X54614Y-61371D01*
X54642Y-61400D01*
X54671Y-61457D01*
X54671Y-61542D01*
X54642Y-61600D01*
X54614Y-61628D01*
X54557Y-61657D01*
X54328Y-61657D01*
X54928Y-61714D02*
X55385Y-61714D01*
X55614Y-61342D02*
X55985Y-61342D01*
X55785Y-61571D01*
X55871Y-61571D01*
X55928Y-61600D01*
X55957Y-61628D01*
X55985Y-61685D01*
X55985Y-61828D01*
X55957Y-61885D01*
X55928Y-61914D01*
X55871Y-61942D01*
X55700Y-61942D01*
X55642Y-61914D01*
X55614Y-61885D01*
X56100Y-62000D02*
X56557Y-62000D01*
X56900Y-61628D02*
X56700Y-61628D01*
X56700Y-61942D02*
X56700Y-61342D01*
X56985Y-61342D01*
G54D13*
X70216Y-60642D02*
X70273Y-60661D01*
X70369Y-60661D01*
X70407Y-60642D01*
X70426Y-60623D01*
X70445Y-60585D01*
X70445Y-60547D01*
X70426Y-60509D01*
X70407Y-60490D01*
X70369Y-60471D01*
X70292Y-60452D01*
X70254Y-60433D01*
X70235Y-60414D01*
X70216Y-60376D01*
X70216Y-60338D01*
X70235Y-60300D01*
X70254Y-60280D01*
X70292Y-60261D01*
X70388Y-60261D01*
X70445Y-60280D01*
X70578Y-60261D02*
X70673Y-60661D01*
X70750Y-60376D01*
X70826Y-60661D01*
X70921Y-60261D01*
X71283Y-60661D02*
X71054Y-60661D01*
X71169Y-60661D02*
X71169Y-60261D01*
X71130Y-60319D01*
X71092Y-60357D01*
X71054Y-60376D01*
X41773Y-37266D02*
X41792Y-37285D01*
X41811Y-37342D01*
X41811Y-37380D01*
X41792Y-37438D01*
X41754Y-37476D01*
X41716Y-37495D01*
X41640Y-37514D01*
X41583Y-37514D01*
X41507Y-37495D01*
X41469Y-37476D01*
X41430Y-37438D01*
X41411Y-37380D01*
X41411Y-37342D01*
X41430Y-37285D01*
X41450Y-37266D01*
X41411Y-37133D02*
X41411Y-36866D01*
X41811Y-37038D01*
G54D11*
X42450Y-38014D02*
X42421Y-37985D01*
X42392Y-37928D01*
X42392Y-37785D01*
X42421Y-37728D01*
X42450Y-37700D01*
X42507Y-37671D01*
X42564Y-37671D01*
X42650Y-37700D01*
X42992Y-38042D01*
X42992Y-37671D01*
X42450Y-37442D02*
X42421Y-37414D01*
X42392Y-37357D01*
X42392Y-37214D01*
X42421Y-37157D01*
X42450Y-37128D01*
X42507Y-37100D01*
X42564Y-37100D01*
X42650Y-37128D01*
X42992Y-37471D01*
X42992Y-37100D01*
X42392Y-36728D02*
X42392Y-36671D01*
X42421Y-36614D01*
X42450Y-36585D01*
X42507Y-36557D01*
X42621Y-36528D01*
X42764Y-36528D01*
X42878Y-36557D01*
X42935Y-36585D01*
X42964Y-36614D01*
X42992Y-36671D01*
X42992Y-36728D01*
X42964Y-36785D01*
X42935Y-36814D01*
X42878Y-36842D01*
X42764Y-36871D01*
X42621Y-36871D01*
X42507Y-36842D01*
X42450Y-36814D01*
X42421Y-36785D01*
X42392Y-36728D01*
X42592Y-36271D02*
X42992Y-36271D01*
X42650Y-36271D02*
X42621Y-36242D01*
X42592Y-36185D01*
X42592Y-36099D01*
X42621Y-36042D01*
X42678Y-36014D01*
X42992Y-36014D01*
G54D13*
X46523Y-37266D02*
X46542Y-37285D01*
X46561Y-37342D01*
X46561Y-37380D01*
X46542Y-37438D01*
X46504Y-37476D01*
X46466Y-37495D01*
X46390Y-37514D01*
X46333Y-37514D01*
X46257Y-37495D01*
X46219Y-37476D01*
X46180Y-37438D01*
X46161Y-37380D01*
X46161Y-37342D01*
X46180Y-37285D01*
X46200Y-37266D01*
X46333Y-37038D02*
X46314Y-37076D01*
X46295Y-37095D01*
X46257Y-37114D01*
X46238Y-37114D01*
X46200Y-37095D01*
X46180Y-37076D01*
X46161Y-37038D01*
X46161Y-36961D01*
X46180Y-36923D01*
X46200Y-36904D01*
X46238Y-36885D01*
X46257Y-36885D01*
X46295Y-36904D01*
X46314Y-36923D01*
X46333Y-36961D01*
X46333Y-37038D01*
X46352Y-37076D01*
X46371Y-37095D01*
X46409Y-37114D01*
X46485Y-37114D01*
X46523Y-37095D01*
X46542Y-37076D01*
X46561Y-37038D01*
X46561Y-36961D01*
X46542Y-36923D01*
X46523Y-36904D01*
X46485Y-36885D01*
X46409Y-36885D01*
X46371Y-36904D01*
X46352Y-36923D01*
X46333Y-36961D01*
G54D11*
X47200Y-38014D02*
X47171Y-37985D01*
X47142Y-37928D01*
X47142Y-37785D01*
X47171Y-37728D01*
X47200Y-37700D01*
X47257Y-37671D01*
X47314Y-37671D01*
X47400Y-37700D01*
X47742Y-38042D01*
X47742Y-37671D01*
X47200Y-37442D02*
X47171Y-37414D01*
X47142Y-37357D01*
X47142Y-37214D01*
X47171Y-37157D01*
X47200Y-37128D01*
X47257Y-37100D01*
X47314Y-37100D01*
X47400Y-37128D01*
X47742Y-37471D01*
X47742Y-37100D01*
X47142Y-36728D02*
X47142Y-36671D01*
X47171Y-36614D01*
X47200Y-36585D01*
X47257Y-36557D01*
X47371Y-36528D01*
X47514Y-36528D01*
X47628Y-36557D01*
X47685Y-36585D01*
X47714Y-36614D01*
X47742Y-36671D01*
X47742Y-36728D01*
X47714Y-36785D01*
X47685Y-36814D01*
X47628Y-36842D01*
X47514Y-36871D01*
X47371Y-36871D01*
X47257Y-36842D01*
X47200Y-36814D01*
X47171Y-36785D01*
X47142Y-36728D01*
X47342Y-36271D02*
X47742Y-36271D01*
X47400Y-36271D02*
X47371Y-36242D01*
X47342Y-36185D01*
X47342Y-36099D01*
X47371Y-36042D01*
X47428Y-36014D01*
X47742Y-36014D01*
G54D13*
X51273Y-37266D02*
X51292Y-37285D01*
X51311Y-37342D01*
X51311Y-37380D01*
X51292Y-37438D01*
X51254Y-37476D01*
X51216Y-37495D01*
X51140Y-37514D01*
X51083Y-37514D01*
X51007Y-37495D01*
X50969Y-37476D01*
X50930Y-37438D01*
X50911Y-37380D01*
X50911Y-37342D01*
X50930Y-37285D01*
X50950Y-37266D01*
X51311Y-37076D02*
X51311Y-36999D01*
X51292Y-36961D01*
X51273Y-36942D01*
X51216Y-36904D01*
X51140Y-36885D01*
X50988Y-36885D01*
X50950Y-36904D01*
X50930Y-36923D01*
X50911Y-36961D01*
X50911Y-37038D01*
X50930Y-37076D01*
X50950Y-37095D01*
X50988Y-37114D01*
X51083Y-37114D01*
X51121Y-37095D01*
X51140Y-37076D01*
X51159Y-37038D01*
X51159Y-36961D01*
X51140Y-36923D01*
X51121Y-36904D01*
X51083Y-36885D01*
G54D11*
X51950Y-38014D02*
X51921Y-37985D01*
X51892Y-37928D01*
X51892Y-37785D01*
X51921Y-37728D01*
X51950Y-37700D01*
X52007Y-37671D01*
X52064Y-37671D01*
X52150Y-37700D01*
X52492Y-38042D01*
X52492Y-37671D01*
X51950Y-37442D02*
X51921Y-37414D01*
X51892Y-37357D01*
X51892Y-37214D01*
X51921Y-37157D01*
X51950Y-37128D01*
X52007Y-37100D01*
X52064Y-37100D01*
X52150Y-37128D01*
X52492Y-37471D01*
X52492Y-37100D01*
X51892Y-36728D02*
X51892Y-36671D01*
X51921Y-36614D01*
X51950Y-36585D01*
X52007Y-36557D01*
X52121Y-36528D01*
X52264Y-36528D01*
X52378Y-36557D01*
X52435Y-36585D01*
X52464Y-36614D01*
X52492Y-36671D01*
X52492Y-36728D01*
X52464Y-36785D01*
X52435Y-36814D01*
X52378Y-36842D01*
X52264Y-36871D01*
X52121Y-36871D01*
X52007Y-36842D01*
X51950Y-36814D01*
X51921Y-36785D01*
X51892Y-36728D01*
X52092Y-36271D02*
X52492Y-36271D01*
X52150Y-36271D02*
X52121Y-36242D01*
X52092Y-36185D01*
X52092Y-36099D01*
X52121Y-36042D01*
X52178Y-36014D01*
X52492Y-36014D01*
G54D13*
X56023Y-37457D02*
X56042Y-37476D01*
X56061Y-37533D01*
X56061Y-37571D01*
X56042Y-37628D01*
X56004Y-37666D01*
X55966Y-37685D01*
X55890Y-37704D01*
X55833Y-37704D01*
X55757Y-37685D01*
X55719Y-37666D01*
X55680Y-37628D01*
X55661Y-37571D01*
X55661Y-37533D01*
X55680Y-37476D01*
X55700Y-37457D01*
X56061Y-37076D02*
X56061Y-37304D01*
X56061Y-37190D02*
X55661Y-37190D01*
X55719Y-37228D01*
X55757Y-37266D01*
X55776Y-37304D01*
X55661Y-36828D02*
X55661Y-36790D01*
X55680Y-36752D01*
X55700Y-36733D01*
X55738Y-36714D01*
X55814Y-36695D01*
X55909Y-36695D01*
X55985Y-36714D01*
X56023Y-36733D01*
X56042Y-36752D01*
X56061Y-36790D01*
X56061Y-36828D01*
X56042Y-36866D01*
X56023Y-36885D01*
X55985Y-36904D01*
X55909Y-36923D01*
X55814Y-36923D01*
X55738Y-36904D01*
X55700Y-36885D01*
X55680Y-36866D01*
X55661Y-36828D01*
G54D11*
X56700Y-38014D02*
X56671Y-37985D01*
X56642Y-37928D01*
X56642Y-37785D01*
X56671Y-37728D01*
X56700Y-37700D01*
X56757Y-37671D01*
X56814Y-37671D01*
X56900Y-37700D01*
X57242Y-38042D01*
X57242Y-37671D01*
X56700Y-37442D02*
X56671Y-37414D01*
X56642Y-37357D01*
X56642Y-37214D01*
X56671Y-37157D01*
X56700Y-37128D01*
X56757Y-37100D01*
X56814Y-37100D01*
X56900Y-37128D01*
X57242Y-37471D01*
X57242Y-37100D01*
X56642Y-36728D02*
X56642Y-36671D01*
X56671Y-36614D01*
X56700Y-36585D01*
X56757Y-36557D01*
X56871Y-36528D01*
X57014Y-36528D01*
X57128Y-36557D01*
X57185Y-36585D01*
X57214Y-36614D01*
X57242Y-36671D01*
X57242Y-36728D01*
X57214Y-36785D01*
X57185Y-36814D01*
X57128Y-36842D01*
X57014Y-36871D01*
X56871Y-36871D01*
X56757Y-36842D01*
X56700Y-36814D01*
X56671Y-36785D01*
X56642Y-36728D01*
X56842Y-36271D02*
X57242Y-36271D01*
X56900Y-36271D02*
X56871Y-36242D01*
X56842Y-36185D01*
X56842Y-36099D01*
X56871Y-36042D01*
X56928Y-36014D01*
X57242Y-36014D01*
G54D13*
X60773Y-37457D02*
X60792Y-37476D01*
X60811Y-37533D01*
X60811Y-37571D01*
X60792Y-37628D01*
X60754Y-37666D01*
X60716Y-37685D01*
X60640Y-37704D01*
X60583Y-37704D01*
X60507Y-37685D01*
X60469Y-37666D01*
X60430Y-37628D01*
X60411Y-37571D01*
X60411Y-37533D01*
X60430Y-37476D01*
X60450Y-37457D01*
X60811Y-37076D02*
X60811Y-37304D01*
X60811Y-37190D02*
X60411Y-37190D01*
X60469Y-37228D01*
X60507Y-37266D01*
X60526Y-37304D01*
X60811Y-36695D02*
X60811Y-36923D01*
X60811Y-36809D02*
X60411Y-36809D01*
X60469Y-36847D01*
X60507Y-36885D01*
X60526Y-36923D01*
G54D11*
X61450Y-38014D02*
X61421Y-37985D01*
X61392Y-37928D01*
X61392Y-37785D01*
X61421Y-37728D01*
X61450Y-37700D01*
X61507Y-37671D01*
X61564Y-37671D01*
X61650Y-37700D01*
X61992Y-38042D01*
X61992Y-37671D01*
X61450Y-37442D02*
X61421Y-37414D01*
X61392Y-37357D01*
X61392Y-37214D01*
X61421Y-37157D01*
X61450Y-37128D01*
X61507Y-37100D01*
X61564Y-37100D01*
X61650Y-37128D01*
X61992Y-37471D01*
X61992Y-37100D01*
X61392Y-36728D02*
X61392Y-36671D01*
X61421Y-36614D01*
X61450Y-36585D01*
X61507Y-36557D01*
X61621Y-36528D01*
X61764Y-36528D01*
X61878Y-36557D01*
X61935Y-36585D01*
X61964Y-36614D01*
X61992Y-36671D01*
X61992Y-36728D01*
X61964Y-36785D01*
X61935Y-36814D01*
X61878Y-36842D01*
X61764Y-36871D01*
X61621Y-36871D01*
X61507Y-36842D01*
X61450Y-36814D01*
X61421Y-36785D01*
X61392Y-36728D01*
X61592Y-36271D02*
X61992Y-36271D01*
X61650Y-36271D02*
X61621Y-36242D01*
X61592Y-36185D01*
X61592Y-36099D01*
X61621Y-36042D01*
X61678Y-36014D01*
X61992Y-36014D01*
G54D13*
X65523Y-37457D02*
X65542Y-37476D01*
X65561Y-37533D01*
X65561Y-37571D01*
X65542Y-37628D01*
X65504Y-37666D01*
X65466Y-37685D01*
X65390Y-37704D01*
X65333Y-37704D01*
X65257Y-37685D01*
X65219Y-37666D01*
X65180Y-37628D01*
X65161Y-37571D01*
X65161Y-37533D01*
X65180Y-37476D01*
X65200Y-37457D01*
X65561Y-37076D02*
X65561Y-37304D01*
X65561Y-37190D02*
X65161Y-37190D01*
X65219Y-37228D01*
X65257Y-37266D01*
X65276Y-37304D01*
X65200Y-36923D02*
X65180Y-36904D01*
X65161Y-36866D01*
X65161Y-36771D01*
X65180Y-36733D01*
X65200Y-36714D01*
X65238Y-36695D01*
X65276Y-36695D01*
X65333Y-36714D01*
X65561Y-36942D01*
X65561Y-36695D01*
G54D11*
X66200Y-38014D02*
X66171Y-37985D01*
X66142Y-37928D01*
X66142Y-37785D01*
X66171Y-37728D01*
X66200Y-37700D01*
X66257Y-37671D01*
X66314Y-37671D01*
X66400Y-37700D01*
X66742Y-38042D01*
X66742Y-37671D01*
X66200Y-37442D02*
X66171Y-37414D01*
X66142Y-37357D01*
X66142Y-37214D01*
X66171Y-37157D01*
X66200Y-37128D01*
X66257Y-37100D01*
X66314Y-37100D01*
X66400Y-37128D01*
X66742Y-37471D01*
X66742Y-37100D01*
X66142Y-36728D02*
X66142Y-36671D01*
X66171Y-36614D01*
X66200Y-36585D01*
X66257Y-36557D01*
X66371Y-36528D01*
X66514Y-36528D01*
X66628Y-36557D01*
X66685Y-36585D01*
X66714Y-36614D01*
X66742Y-36671D01*
X66742Y-36728D01*
X66714Y-36785D01*
X66685Y-36814D01*
X66628Y-36842D01*
X66514Y-36871D01*
X66371Y-36871D01*
X66257Y-36842D01*
X66200Y-36814D01*
X66171Y-36785D01*
X66142Y-36728D01*
X66342Y-36271D02*
X66742Y-36271D01*
X66400Y-36271D02*
X66371Y-36242D01*
X66342Y-36185D01*
X66342Y-36099D01*
X66371Y-36042D01*
X66428Y-36014D01*
X66742Y-36014D01*
G54D13*
X70273Y-37457D02*
X70292Y-37476D01*
X70311Y-37533D01*
X70311Y-37571D01*
X70292Y-37628D01*
X70254Y-37666D01*
X70216Y-37685D01*
X70140Y-37704D01*
X70083Y-37704D01*
X70007Y-37685D01*
X69969Y-37666D01*
X69930Y-37628D01*
X69911Y-37571D01*
X69911Y-37533D01*
X69930Y-37476D01*
X69950Y-37457D01*
X70311Y-37076D02*
X70311Y-37304D01*
X70311Y-37190D02*
X69911Y-37190D01*
X69969Y-37228D01*
X70007Y-37266D01*
X70026Y-37304D01*
X69911Y-36942D02*
X69911Y-36695D01*
X70064Y-36828D01*
X70064Y-36771D01*
X70083Y-36733D01*
X70102Y-36714D01*
X70140Y-36695D01*
X70235Y-36695D01*
X70273Y-36714D01*
X70292Y-36733D01*
X70311Y-36771D01*
X70311Y-36885D01*
X70292Y-36923D01*
X70273Y-36942D01*
G54D11*
X70950Y-38014D02*
X70921Y-37985D01*
X70892Y-37928D01*
X70892Y-37785D01*
X70921Y-37728D01*
X70950Y-37700D01*
X71007Y-37671D01*
X71064Y-37671D01*
X71150Y-37700D01*
X71492Y-38042D01*
X71492Y-37671D01*
X70950Y-37442D02*
X70921Y-37414D01*
X70892Y-37357D01*
X70892Y-37214D01*
X70921Y-37157D01*
X70950Y-37128D01*
X71007Y-37100D01*
X71064Y-37100D01*
X71150Y-37128D01*
X71492Y-37471D01*
X71492Y-37100D01*
X70892Y-36728D02*
X70892Y-36671D01*
X70921Y-36614D01*
X70950Y-36585D01*
X71007Y-36557D01*
X71121Y-36528D01*
X71264Y-36528D01*
X71378Y-36557D01*
X71435Y-36585D01*
X71464Y-36614D01*
X71492Y-36671D01*
X71492Y-36728D01*
X71464Y-36785D01*
X71435Y-36814D01*
X71378Y-36842D01*
X71264Y-36871D01*
X71121Y-36871D01*
X71007Y-36842D01*
X70950Y-36814D01*
X70921Y-36785D01*
X70892Y-36728D01*
X71092Y-36271D02*
X71492Y-36271D01*
X71150Y-36271D02*
X71121Y-36242D01*
X71092Y-36185D01*
X71092Y-36099D01*
X71121Y-36042D01*
X71178Y-36014D01*
X71492Y-36014D01*
G54D13*
X75023Y-37457D02*
X75042Y-37476D01*
X75061Y-37533D01*
X75061Y-37571D01*
X75042Y-37628D01*
X75004Y-37666D01*
X74966Y-37685D01*
X74890Y-37704D01*
X74833Y-37704D01*
X74757Y-37685D01*
X74719Y-37666D01*
X74680Y-37628D01*
X74661Y-37571D01*
X74661Y-37533D01*
X74680Y-37476D01*
X74700Y-37457D01*
X75061Y-37076D02*
X75061Y-37304D01*
X75061Y-37190D02*
X74661Y-37190D01*
X74719Y-37228D01*
X74757Y-37266D01*
X74776Y-37304D01*
X74795Y-36733D02*
X75061Y-36733D01*
X74642Y-36828D02*
X74928Y-36923D01*
X74928Y-36676D01*
G54D11*
X75700Y-38014D02*
X75671Y-37985D01*
X75642Y-37928D01*
X75642Y-37785D01*
X75671Y-37728D01*
X75700Y-37700D01*
X75757Y-37671D01*
X75814Y-37671D01*
X75900Y-37700D01*
X76242Y-38042D01*
X76242Y-37671D01*
X75700Y-37442D02*
X75671Y-37414D01*
X75642Y-37357D01*
X75642Y-37214D01*
X75671Y-37157D01*
X75700Y-37128D01*
X75757Y-37100D01*
X75814Y-37100D01*
X75900Y-37128D01*
X76242Y-37471D01*
X76242Y-37100D01*
X75642Y-36728D02*
X75642Y-36671D01*
X75671Y-36614D01*
X75700Y-36585D01*
X75757Y-36557D01*
X75871Y-36528D01*
X76014Y-36528D01*
X76128Y-36557D01*
X76185Y-36585D01*
X76214Y-36614D01*
X76242Y-36671D01*
X76242Y-36728D01*
X76214Y-36785D01*
X76185Y-36814D01*
X76128Y-36842D01*
X76014Y-36871D01*
X75871Y-36871D01*
X75757Y-36842D01*
X75700Y-36814D01*
X75671Y-36785D01*
X75642Y-36728D01*
X75842Y-36271D02*
X76242Y-36271D01*
X75900Y-36271D02*
X75871Y-36242D01*
X75842Y-36185D01*
X75842Y-36099D01*
X75871Y-36042D01*
X75928Y-36014D01*
X76242Y-36014D01*
G54D15*
X50061Y-35657D02*
X49871Y-35790D01*
X50061Y-35885D02*
X49661Y-35885D01*
X49661Y-35733D01*
X49680Y-35695D01*
X49700Y-35676D01*
X49738Y-35657D01*
X49795Y-35657D01*
X49833Y-35676D01*
X49852Y-35695D01*
X49871Y-35733D01*
X49871Y-35885D01*
X49700Y-35504D02*
X49680Y-35485D01*
X49661Y-35447D01*
X49661Y-35352D01*
X49680Y-35314D01*
X49700Y-35295D01*
X49738Y-35276D01*
X49776Y-35276D01*
X49833Y-35295D01*
X50061Y-35523D01*
X50061Y-35276D01*
X49795Y-34933D02*
X50061Y-34933D01*
X49642Y-35028D02*
X49928Y-35123D01*
X49928Y-34876D01*
X50061Y-39507D02*
X49871Y-39640D01*
X50061Y-39735D02*
X49661Y-39735D01*
X49661Y-39583D01*
X49680Y-39545D01*
X49700Y-39526D01*
X49738Y-39507D01*
X49795Y-39507D01*
X49833Y-39526D01*
X49852Y-39545D01*
X49871Y-39583D01*
X49871Y-39735D01*
X50061Y-39126D02*
X50061Y-39354D01*
X50061Y-39240D02*
X49661Y-39240D01*
X49719Y-39278D01*
X49757Y-39316D01*
X49776Y-39354D01*
X49661Y-38783D02*
X49661Y-38859D01*
X49680Y-38897D01*
X49700Y-38916D01*
X49757Y-38954D01*
X49833Y-38973D01*
X49985Y-38973D01*
X50023Y-38954D01*
X50042Y-38935D01*
X50061Y-38897D01*
X50061Y-38821D01*
X50042Y-38783D01*
X50023Y-38764D01*
X49985Y-38745D01*
X49890Y-38745D01*
X49852Y-38764D01*
X49833Y-38783D01*
X49814Y-38821D01*
X49814Y-38897D01*
X49833Y-38935D01*
X49852Y-38954D01*
X49890Y-38973D01*
X45311Y-39507D02*
X45121Y-39640D01*
X45311Y-39735D02*
X44911Y-39735D01*
X44911Y-39583D01*
X44930Y-39545D01*
X44950Y-39526D01*
X44988Y-39507D01*
X45045Y-39507D01*
X45083Y-39526D01*
X45102Y-39545D01*
X45121Y-39583D01*
X45121Y-39735D01*
X45311Y-39126D02*
X45311Y-39354D01*
X45311Y-39240D02*
X44911Y-39240D01*
X44969Y-39278D01*
X45007Y-39316D01*
X45026Y-39354D01*
X44911Y-38764D02*
X44911Y-38954D01*
X45102Y-38973D01*
X45083Y-38954D01*
X45064Y-38916D01*
X45064Y-38821D01*
X45083Y-38783D01*
X45102Y-38764D01*
X45140Y-38745D01*
X45235Y-38745D01*
X45273Y-38764D01*
X45292Y-38783D01*
X45311Y-38821D01*
X45311Y-38916D01*
X45292Y-38954D01*
X45273Y-38973D01*
X40561Y-39507D02*
X40371Y-39640D01*
X40561Y-39735D02*
X40161Y-39735D01*
X40161Y-39583D01*
X40180Y-39545D01*
X40200Y-39526D01*
X40238Y-39507D01*
X40295Y-39507D01*
X40333Y-39526D01*
X40352Y-39545D01*
X40371Y-39583D01*
X40371Y-39735D01*
X40561Y-39126D02*
X40561Y-39354D01*
X40561Y-39240D02*
X40161Y-39240D01*
X40219Y-39278D01*
X40257Y-39316D01*
X40276Y-39354D01*
X40295Y-38783D02*
X40561Y-38783D01*
X40142Y-38878D02*
X40428Y-38973D01*
X40428Y-38726D01*
X54811Y-39507D02*
X54621Y-39640D01*
X54811Y-39735D02*
X54411Y-39735D01*
X54411Y-39583D01*
X54430Y-39545D01*
X54450Y-39526D01*
X54488Y-39507D01*
X54545Y-39507D01*
X54583Y-39526D01*
X54602Y-39545D01*
X54621Y-39583D01*
X54621Y-39735D01*
X54811Y-39126D02*
X54811Y-39354D01*
X54811Y-39240D02*
X54411Y-39240D01*
X54469Y-39278D01*
X54507Y-39316D01*
X54526Y-39354D01*
X54411Y-38992D02*
X54411Y-38726D01*
X54811Y-38897D01*
X59561Y-39507D02*
X59371Y-39640D01*
X59561Y-39735D02*
X59161Y-39735D01*
X59161Y-39583D01*
X59180Y-39545D01*
X59200Y-39526D01*
X59238Y-39507D01*
X59295Y-39507D01*
X59333Y-39526D01*
X59352Y-39545D01*
X59371Y-39583D01*
X59371Y-39735D01*
X59561Y-39126D02*
X59561Y-39354D01*
X59561Y-39240D02*
X59161Y-39240D01*
X59219Y-39278D01*
X59257Y-39316D01*
X59276Y-39354D01*
X59333Y-38897D02*
X59314Y-38935D01*
X59295Y-38954D01*
X59257Y-38973D01*
X59238Y-38973D01*
X59200Y-38954D01*
X59180Y-38935D01*
X59161Y-38897D01*
X59161Y-38821D01*
X59180Y-38783D01*
X59200Y-38764D01*
X59238Y-38745D01*
X59257Y-38745D01*
X59295Y-38764D01*
X59314Y-38783D01*
X59333Y-38821D01*
X59333Y-38897D01*
X59352Y-38935D01*
X59371Y-38954D01*
X59409Y-38973D01*
X59485Y-38973D01*
X59523Y-38954D01*
X59542Y-38935D01*
X59561Y-38897D01*
X59561Y-38821D01*
X59542Y-38783D01*
X59523Y-38764D01*
X59485Y-38745D01*
X59409Y-38745D01*
X59371Y-38764D01*
X59352Y-38783D01*
X59333Y-38821D01*
X64311Y-39507D02*
X64121Y-39640D01*
X64311Y-39735D02*
X63911Y-39735D01*
X63911Y-39583D01*
X63930Y-39545D01*
X63950Y-39526D01*
X63988Y-39507D01*
X64045Y-39507D01*
X64083Y-39526D01*
X64102Y-39545D01*
X64121Y-39583D01*
X64121Y-39735D01*
X64311Y-39126D02*
X64311Y-39354D01*
X64311Y-39240D02*
X63911Y-39240D01*
X63969Y-39278D01*
X64007Y-39316D01*
X64026Y-39354D01*
X64311Y-38935D02*
X64311Y-38859D01*
X64292Y-38821D01*
X64273Y-38802D01*
X64216Y-38764D01*
X64140Y-38745D01*
X63988Y-38745D01*
X63950Y-38764D01*
X63930Y-38783D01*
X63911Y-38821D01*
X63911Y-38897D01*
X63930Y-38935D01*
X63950Y-38954D01*
X63988Y-38973D01*
X64083Y-38973D01*
X64121Y-38954D01*
X64140Y-38935D01*
X64159Y-38897D01*
X64159Y-38821D01*
X64140Y-38783D01*
X64121Y-38764D01*
X64083Y-38745D01*
X69061Y-39507D02*
X68871Y-39640D01*
X69061Y-39735D02*
X68661Y-39735D01*
X68661Y-39583D01*
X68680Y-39545D01*
X68700Y-39526D01*
X68738Y-39507D01*
X68795Y-39507D01*
X68833Y-39526D01*
X68852Y-39545D01*
X68871Y-39583D01*
X68871Y-39735D01*
X68700Y-39354D02*
X68680Y-39335D01*
X68661Y-39297D01*
X68661Y-39202D01*
X68680Y-39164D01*
X68700Y-39145D01*
X68738Y-39126D01*
X68776Y-39126D01*
X68833Y-39145D01*
X69061Y-39373D01*
X69061Y-39126D01*
X68661Y-38878D02*
X68661Y-38840D01*
X68680Y-38802D01*
X68700Y-38783D01*
X68738Y-38764D01*
X68814Y-38745D01*
X68909Y-38745D01*
X68985Y-38764D01*
X69023Y-38783D01*
X69042Y-38802D01*
X69061Y-38840D01*
X69061Y-38878D01*
X69042Y-38916D01*
X69023Y-38935D01*
X68985Y-38954D01*
X68909Y-38973D01*
X68814Y-38973D01*
X68738Y-38954D01*
X68700Y-38935D01*
X68680Y-38916D01*
X68661Y-38878D01*
X73811Y-39507D02*
X73621Y-39640D01*
X73811Y-39735D02*
X73411Y-39735D01*
X73411Y-39583D01*
X73430Y-39545D01*
X73450Y-39526D01*
X73488Y-39507D01*
X73545Y-39507D01*
X73583Y-39526D01*
X73602Y-39545D01*
X73621Y-39583D01*
X73621Y-39735D01*
X73450Y-39354D02*
X73430Y-39335D01*
X73411Y-39297D01*
X73411Y-39202D01*
X73430Y-39164D01*
X73450Y-39145D01*
X73488Y-39126D01*
X73526Y-39126D01*
X73583Y-39145D01*
X73811Y-39373D01*
X73811Y-39126D01*
X73811Y-38745D02*
X73811Y-38973D01*
X73811Y-38859D02*
X73411Y-38859D01*
X73469Y-38897D01*
X73507Y-38935D01*
X73526Y-38973D01*
X40561Y-35657D02*
X40371Y-35790D01*
X40561Y-35885D02*
X40161Y-35885D01*
X40161Y-35733D01*
X40180Y-35695D01*
X40200Y-35676D01*
X40238Y-35657D01*
X40295Y-35657D01*
X40333Y-35676D01*
X40352Y-35695D01*
X40371Y-35733D01*
X40371Y-35885D01*
X40200Y-35504D02*
X40180Y-35485D01*
X40161Y-35447D01*
X40161Y-35352D01*
X40180Y-35314D01*
X40200Y-35295D01*
X40238Y-35276D01*
X40276Y-35276D01*
X40333Y-35295D01*
X40561Y-35523D01*
X40561Y-35276D01*
X40200Y-35123D02*
X40180Y-35104D01*
X40161Y-35066D01*
X40161Y-34971D01*
X40180Y-34933D01*
X40200Y-34914D01*
X40238Y-34895D01*
X40276Y-34895D01*
X40333Y-34914D01*
X40561Y-35142D01*
X40561Y-34895D01*
X45311Y-35657D02*
X45121Y-35790D01*
X45311Y-35885D02*
X44911Y-35885D01*
X44911Y-35733D01*
X44930Y-35695D01*
X44950Y-35676D01*
X44988Y-35657D01*
X45045Y-35657D01*
X45083Y-35676D01*
X45102Y-35695D01*
X45121Y-35733D01*
X45121Y-35885D01*
X44950Y-35504D02*
X44930Y-35485D01*
X44911Y-35447D01*
X44911Y-35352D01*
X44930Y-35314D01*
X44950Y-35295D01*
X44988Y-35276D01*
X45026Y-35276D01*
X45083Y-35295D01*
X45311Y-35523D01*
X45311Y-35276D01*
X44911Y-35142D02*
X44911Y-34895D01*
X45064Y-35028D01*
X45064Y-34971D01*
X45083Y-34933D01*
X45102Y-34914D01*
X45140Y-34895D01*
X45235Y-34895D01*
X45273Y-34914D01*
X45292Y-34933D01*
X45311Y-34971D01*
X45311Y-35085D01*
X45292Y-35123D01*
X45273Y-35142D01*
X54811Y-35657D02*
X54621Y-35790D01*
X54811Y-35885D02*
X54411Y-35885D01*
X54411Y-35733D01*
X54430Y-35695D01*
X54450Y-35676D01*
X54488Y-35657D01*
X54545Y-35657D01*
X54583Y-35676D01*
X54602Y-35695D01*
X54621Y-35733D01*
X54621Y-35885D01*
X54450Y-35504D02*
X54430Y-35485D01*
X54411Y-35447D01*
X54411Y-35352D01*
X54430Y-35314D01*
X54450Y-35295D01*
X54488Y-35276D01*
X54526Y-35276D01*
X54583Y-35295D01*
X54811Y-35523D01*
X54811Y-35276D01*
X54411Y-34914D02*
X54411Y-35104D01*
X54602Y-35123D01*
X54583Y-35104D01*
X54564Y-35066D01*
X54564Y-34971D01*
X54583Y-34933D01*
X54602Y-34914D01*
X54640Y-34895D01*
X54735Y-34895D01*
X54773Y-34914D01*
X54792Y-34933D01*
X54811Y-34971D01*
X54811Y-35066D01*
X54792Y-35104D01*
X54773Y-35123D01*
X59561Y-35657D02*
X59371Y-35790D01*
X59561Y-35885D02*
X59161Y-35885D01*
X59161Y-35733D01*
X59180Y-35695D01*
X59200Y-35676D01*
X59238Y-35657D01*
X59295Y-35657D01*
X59333Y-35676D01*
X59352Y-35695D01*
X59371Y-35733D01*
X59371Y-35885D01*
X59200Y-35504D02*
X59180Y-35485D01*
X59161Y-35447D01*
X59161Y-35352D01*
X59180Y-35314D01*
X59200Y-35295D01*
X59238Y-35276D01*
X59276Y-35276D01*
X59333Y-35295D01*
X59561Y-35523D01*
X59561Y-35276D01*
X59161Y-34933D02*
X59161Y-35009D01*
X59180Y-35047D01*
X59200Y-35066D01*
X59257Y-35104D01*
X59333Y-35123D01*
X59485Y-35123D01*
X59523Y-35104D01*
X59542Y-35085D01*
X59561Y-35047D01*
X59561Y-34971D01*
X59542Y-34933D01*
X59523Y-34914D01*
X59485Y-34895D01*
X59390Y-34895D01*
X59352Y-34914D01*
X59333Y-34933D01*
X59314Y-34971D01*
X59314Y-35047D01*
X59333Y-35085D01*
X59352Y-35104D01*
X59390Y-35123D01*
X64311Y-35657D02*
X64121Y-35790D01*
X64311Y-35885D02*
X63911Y-35885D01*
X63911Y-35733D01*
X63930Y-35695D01*
X63950Y-35676D01*
X63988Y-35657D01*
X64045Y-35657D01*
X64083Y-35676D01*
X64102Y-35695D01*
X64121Y-35733D01*
X64121Y-35885D01*
X63950Y-35504D02*
X63930Y-35485D01*
X63911Y-35447D01*
X63911Y-35352D01*
X63930Y-35314D01*
X63950Y-35295D01*
X63988Y-35276D01*
X64026Y-35276D01*
X64083Y-35295D01*
X64311Y-35523D01*
X64311Y-35276D01*
X63911Y-35142D02*
X63911Y-34876D01*
X64311Y-35047D01*
X69061Y-35657D02*
X68871Y-35790D01*
X69061Y-35885D02*
X68661Y-35885D01*
X68661Y-35733D01*
X68680Y-35695D01*
X68700Y-35676D01*
X68738Y-35657D01*
X68795Y-35657D01*
X68833Y-35676D01*
X68852Y-35695D01*
X68871Y-35733D01*
X68871Y-35885D01*
X68700Y-35504D02*
X68680Y-35485D01*
X68661Y-35447D01*
X68661Y-35352D01*
X68680Y-35314D01*
X68700Y-35295D01*
X68738Y-35276D01*
X68776Y-35276D01*
X68833Y-35295D01*
X69061Y-35523D01*
X69061Y-35276D01*
X68833Y-35047D02*
X68814Y-35085D01*
X68795Y-35104D01*
X68757Y-35123D01*
X68738Y-35123D01*
X68700Y-35104D01*
X68680Y-35085D01*
X68661Y-35047D01*
X68661Y-34971D01*
X68680Y-34933D01*
X68700Y-34914D01*
X68738Y-34895D01*
X68757Y-34895D01*
X68795Y-34914D01*
X68814Y-34933D01*
X68833Y-34971D01*
X68833Y-35047D01*
X68852Y-35085D01*
X68871Y-35104D01*
X68909Y-35123D01*
X68985Y-35123D01*
X69023Y-35104D01*
X69042Y-35085D01*
X69061Y-35047D01*
X69061Y-34971D01*
X69042Y-34933D01*
X69023Y-34914D01*
X68985Y-34895D01*
X68909Y-34895D01*
X68871Y-34914D01*
X68852Y-34933D01*
X68833Y-34971D01*
X73811Y-35657D02*
X73621Y-35790D01*
X73811Y-35885D02*
X73411Y-35885D01*
X73411Y-35733D01*
X73430Y-35695D01*
X73450Y-35676D01*
X73488Y-35657D01*
X73545Y-35657D01*
X73583Y-35676D01*
X73602Y-35695D01*
X73621Y-35733D01*
X73621Y-35885D01*
X73450Y-35504D02*
X73430Y-35485D01*
X73411Y-35447D01*
X73411Y-35352D01*
X73430Y-35314D01*
X73450Y-35295D01*
X73488Y-35276D01*
X73526Y-35276D01*
X73583Y-35295D01*
X73811Y-35523D01*
X73811Y-35276D01*
X73811Y-35085D02*
X73811Y-35009D01*
X73792Y-34971D01*
X73773Y-34952D01*
X73716Y-34914D01*
X73640Y-34895D01*
X73488Y-34895D01*
X73450Y-34914D01*
X73430Y-34933D01*
X73411Y-34971D01*
X73411Y-35047D01*
X73430Y-35085D01*
X73450Y-35104D01*
X73488Y-35123D01*
X73583Y-35123D01*
X73621Y-35104D01*
X73640Y-35085D01*
X73659Y-35047D01*
X73659Y-34971D01*
X73640Y-34933D01*
X73621Y-34914D01*
X73583Y-34895D01*
G54D13*
X46676Y-52661D02*
X46942Y-53061D01*
X46942Y-52661D02*
X46676Y-53061D01*
X47304Y-53061D02*
X47076Y-53061D01*
X47190Y-53061D02*
X47190Y-52661D01*
X47152Y-52719D01*
X47114Y-52757D01*
X47076Y-52776D01*
X48311Y-54083D02*
X48273Y-54064D01*
X48254Y-54045D01*
X48235Y-54007D01*
X48235Y-53988D01*
X48254Y-53950D01*
X48273Y-53930D01*
X48311Y-53911D01*
X48388Y-53911D01*
X48426Y-53930D01*
X48445Y-53950D01*
X48464Y-53988D01*
X48464Y-54007D01*
X48445Y-54045D01*
X48426Y-54064D01*
X48388Y-54083D01*
X48311Y-54083D01*
X48273Y-54102D01*
X48254Y-54121D01*
X48235Y-54159D01*
X48235Y-54235D01*
X48254Y-54273D01*
X48273Y-54292D01*
X48311Y-54311D01*
X48388Y-54311D01*
X48426Y-54292D01*
X48445Y-54273D01*
X48464Y-54235D01*
X48464Y-54159D01*
X48445Y-54121D01*
X48426Y-54102D01*
X48388Y-54083D01*
X48635Y-54311D02*
X48635Y-53911D01*
X48769Y-54197D01*
X48902Y-53911D01*
X48902Y-54311D01*
X49092Y-54311D02*
X49092Y-53911D01*
X49092Y-54102D02*
X49321Y-54102D01*
X49321Y-54311D02*
X49321Y-53911D01*
X49473Y-54045D02*
X49683Y-54045D01*
X49473Y-54311D01*
X49683Y-54311D01*
G54D18*
X58611Y-51728D02*
X58621Y-51738D01*
X58630Y-51766D01*
X58630Y-51785D01*
X58621Y-51814D01*
X58602Y-51833D01*
X58583Y-51842D01*
X58545Y-51852D01*
X58516Y-51852D01*
X58478Y-51842D01*
X58459Y-51833D01*
X58440Y-51814D01*
X58430Y-51785D01*
X58430Y-51766D01*
X58440Y-51738D01*
X58450Y-51728D01*
X58630Y-51538D02*
X58630Y-51652D01*
X58630Y-51595D02*
X58430Y-51595D01*
X58459Y-51614D01*
X58478Y-51633D01*
X58488Y-51652D01*
X58430Y-51357D02*
X58430Y-51452D01*
X58526Y-51461D01*
X58516Y-51452D01*
X58507Y-51433D01*
X58507Y-51385D01*
X58516Y-51366D01*
X58526Y-51357D01*
X58545Y-51347D01*
X58592Y-51347D01*
X58611Y-51357D01*
X58621Y-51366D01*
X58630Y-51385D01*
X58630Y-51433D01*
X58621Y-51452D01*
X58611Y-51461D01*
X62680Y-50328D02*
X62585Y-50395D01*
X62680Y-50442D02*
X62480Y-50442D01*
X62480Y-50366D01*
X62490Y-50347D01*
X62500Y-50338D01*
X62519Y-50328D01*
X62547Y-50328D01*
X62566Y-50338D01*
X62576Y-50347D01*
X62585Y-50366D01*
X62585Y-50442D01*
X62480Y-50261D02*
X62480Y-50138D01*
X62557Y-50204D01*
X62557Y-50176D01*
X62566Y-50157D01*
X62576Y-50147D01*
X62595Y-50138D01*
X62642Y-50138D01*
X62661Y-50147D01*
X62671Y-50157D01*
X62680Y-50176D01*
X62680Y-50233D01*
X62671Y-50252D01*
X62661Y-50261D01*
X62480Y-50014D02*
X62480Y-49995D01*
X62490Y-49976D01*
X62500Y-49966D01*
X62519Y-49957D01*
X62557Y-49947D01*
X62604Y-49947D01*
X62642Y-49957D01*
X62661Y-49966D01*
X62671Y-49976D01*
X62680Y-49995D01*
X62680Y-50014D01*
X62671Y-50033D01*
X62661Y-50042D01*
X62642Y-50052D01*
X62604Y-50061D01*
X62557Y-50061D01*
X62519Y-50052D01*
X62500Y-50042D01*
X62490Y-50033D01*
X62480Y-50014D01*
G54D13*
X55995Y-45811D02*
X55995Y-46135D01*
X56014Y-46173D01*
X56033Y-46192D01*
X56071Y-46211D01*
X56147Y-46211D01*
X56185Y-46192D01*
X56204Y-46173D01*
X56223Y-46135D01*
X56223Y-45811D01*
X56376Y-45811D02*
X56623Y-45811D01*
X56490Y-45964D01*
X56547Y-45964D01*
X56585Y-45983D01*
X56604Y-46002D01*
X56623Y-46040D01*
X56623Y-46135D01*
X56604Y-46173D01*
X56585Y-46192D01*
X56547Y-46211D01*
X56433Y-46211D01*
X56395Y-46192D01*
X56376Y-46173D01*
G54D12*
X60976Y-46880D02*
X60985Y-46852D01*
X60995Y-46842D01*
X61014Y-46833D01*
X61042Y-46833D01*
X61061Y-46842D01*
X61071Y-46852D01*
X61080Y-46871D01*
X61080Y-46947D01*
X60880Y-46947D01*
X60880Y-46880D01*
X60890Y-46861D01*
X60900Y-46852D01*
X60919Y-46842D01*
X60938Y-46842D01*
X60957Y-46852D01*
X60966Y-46861D01*
X60976Y-46880D01*
X60976Y-46947D01*
X61080Y-46633D02*
X60985Y-46700D01*
X61080Y-46747D02*
X60880Y-46747D01*
X60880Y-46671D01*
X60890Y-46652D01*
X60900Y-46642D01*
X60919Y-46633D01*
X60947Y-46633D01*
X60966Y-46642D01*
X60976Y-46652D01*
X60985Y-46671D01*
X60985Y-46747D01*
X61080Y-46442D02*
X61080Y-46557D01*
X61080Y-46500D02*
X60880Y-46500D01*
X60909Y-46519D01*
X60928Y-46538D01*
X60938Y-46557D01*
X62251Y-48451D02*
X62001Y-48451D01*
X62179Y-48367D01*
X62001Y-48284D01*
X62251Y-48284D01*
X62120Y-48082D02*
X62132Y-48046D01*
X62144Y-48034D01*
X62167Y-48022D01*
X62203Y-48022D01*
X62227Y-48034D01*
X62239Y-48046D01*
X62251Y-48070D01*
X62251Y-48165D01*
X62001Y-48165D01*
X62001Y-48082D01*
X62013Y-48058D01*
X62025Y-48046D01*
X62048Y-48034D01*
X62072Y-48034D01*
X62096Y-48046D01*
X62108Y-48058D01*
X62120Y-48082D01*
X62120Y-48165D01*
X62239Y-47927D02*
X62251Y-47891D01*
X62251Y-47832D01*
X62239Y-47808D01*
X62227Y-47796D01*
X62203Y-47784D01*
X62179Y-47784D01*
X62155Y-47796D01*
X62144Y-47808D01*
X62132Y-47832D01*
X62120Y-47879D01*
X62108Y-47903D01*
X62096Y-47915D01*
X62072Y-47927D01*
X62048Y-47927D01*
X62025Y-47915D01*
X62013Y-47903D01*
X62001Y-47879D01*
X62001Y-47820D01*
X62013Y-47784D01*
X62155Y-47677D02*
X62155Y-47486D01*
X62251Y-47236D02*
X62251Y-47379D01*
X62251Y-47308D02*
X62001Y-47308D01*
X62036Y-47332D01*
X62060Y-47355D01*
X62072Y-47379D01*
G54D11*
X50350Y-28428D02*
X50150Y-28428D01*
X50150Y-28742D02*
X50150Y-28142D01*
X50435Y-28142D01*
X50635Y-28200D02*
X50664Y-28171D01*
X50721Y-28142D01*
X50864Y-28142D01*
X50921Y-28171D01*
X50950Y-28200D01*
X50978Y-28257D01*
X50978Y-28314D01*
X50950Y-28400D01*
X50607Y-28742D01*
X50978Y-28742D01*
X69600Y-28428D02*
X69400Y-28428D01*
X69400Y-28742D02*
X69400Y-28142D01*
X69685Y-28142D01*
X70228Y-28742D02*
X69885Y-28742D01*
X70057Y-28742D02*
X70057Y-28142D01*
X70000Y-28228D01*
X69942Y-28285D01*
X69885Y-28314D01*
G54D13*
X43535Y-44911D02*
X43764Y-44911D01*
X43650Y-45311D02*
X43650Y-44911D01*
X43897Y-45311D02*
X43897Y-44911D01*
X43897Y-45102D02*
X44126Y-45102D01*
X44126Y-45311D02*
X44126Y-44911D01*
X44526Y-45311D02*
X44297Y-45311D01*
X44411Y-45311D02*
X44411Y-44911D01*
X44373Y-44969D01*
X44335Y-45007D01*
X44297Y-45026D01*
G54D12*
X43523Y-46930D02*
X43409Y-46930D01*
X43466Y-46930D02*
X43466Y-46730D01*
X43447Y-46759D01*
X43428Y-46778D01*
X43409Y-46788D01*
X43647Y-46730D02*
X43666Y-46730D01*
X43685Y-46740D01*
X43695Y-46750D01*
X43704Y-46769D01*
X43714Y-46807D01*
X43714Y-46854D01*
X43704Y-46892D01*
X43695Y-46911D01*
X43685Y-46921D01*
X43666Y-46930D01*
X43647Y-46930D01*
X43628Y-46921D01*
X43619Y-46911D01*
X43609Y-46892D01*
X43600Y-46854D01*
X43600Y-46807D01*
X43609Y-46769D01*
X43619Y-46750D01*
X43628Y-46740D01*
X43647Y-46730D01*
X43800Y-46930D02*
X43800Y-46730D01*
X43819Y-46854D02*
X43876Y-46930D01*
X43876Y-46797D02*
X43800Y-46873D01*
X43914Y-46950D02*
X44066Y-46950D01*
X44114Y-46930D02*
X44114Y-46730D01*
X44228Y-46930D01*
X44228Y-46730D01*
X44295Y-46730D02*
X44409Y-46730D01*
X44352Y-46930D02*
X44352Y-46730D01*
X44590Y-46911D02*
X44580Y-46921D01*
X44552Y-46930D01*
X44533Y-46930D01*
X44504Y-46921D01*
X44485Y-46902D01*
X44476Y-46883D01*
X44466Y-46845D01*
X44466Y-46816D01*
X44476Y-46778D01*
X44485Y-46759D01*
X44504Y-46740D01*
X44533Y-46730D01*
X44552Y-46730D01*
X44580Y-46740D01*
X44590Y-46750D01*
G54D11*
X48254Y-25745D02*
X48278Y-25769D01*
X48302Y-25840D01*
X48302Y-25888D01*
X48278Y-25959D01*
X48230Y-26007D01*
X48183Y-26030D01*
X48088Y-26054D01*
X48016Y-26054D01*
X47921Y-26030D01*
X47873Y-26007D01*
X47826Y-25959D01*
X47802Y-25888D01*
X47802Y-25840D01*
X47826Y-25769D01*
X47850Y-25745D01*
X48302Y-25530D02*
X47802Y-25530D01*
X48040Y-25530D02*
X48040Y-25245D01*
X48302Y-25245D02*
X47802Y-25245D01*
X47802Y-25054D02*
X47802Y-24721D01*
X48302Y-24935D01*
X50854Y-25745D02*
X50878Y-25769D01*
X50902Y-25840D01*
X50902Y-25888D01*
X50878Y-25959D01*
X50830Y-26007D01*
X50783Y-26030D01*
X50688Y-26054D01*
X50616Y-26054D01*
X50521Y-26030D01*
X50473Y-26007D01*
X50426Y-25959D01*
X50402Y-25888D01*
X50402Y-25840D01*
X50426Y-25769D01*
X50450Y-25745D01*
X50902Y-25530D02*
X50402Y-25530D01*
X50640Y-25530D02*
X50640Y-25245D01*
X50902Y-25245D02*
X50402Y-25245D01*
X50402Y-24792D02*
X50402Y-24888D01*
X50426Y-24935D01*
X50450Y-24959D01*
X50521Y-25007D01*
X50616Y-25030D01*
X50807Y-25030D01*
X50854Y-25007D01*
X50878Y-24983D01*
X50902Y-24935D01*
X50902Y-24840D01*
X50878Y-24792D01*
X50854Y-24769D01*
X50807Y-24745D01*
X50688Y-24745D01*
X50640Y-24769D01*
X50616Y-24792D01*
X50592Y-24840D01*
X50592Y-24935D01*
X50616Y-24983D01*
X50640Y-25007D01*
X50688Y-25030D01*
X53454Y-25745D02*
X53478Y-25769D01*
X53502Y-25840D01*
X53502Y-25888D01*
X53478Y-25959D01*
X53430Y-26007D01*
X53383Y-26030D01*
X53288Y-26054D01*
X53216Y-26054D01*
X53121Y-26030D01*
X53073Y-26007D01*
X53026Y-25959D01*
X53002Y-25888D01*
X53002Y-25840D01*
X53026Y-25769D01*
X53050Y-25745D01*
X53502Y-25530D02*
X53002Y-25530D01*
X53240Y-25530D02*
X53240Y-25245D01*
X53502Y-25245D02*
X53002Y-25245D01*
X53002Y-24769D02*
X53002Y-25007D01*
X53240Y-25030D01*
X53216Y-25007D01*
X53192Y-24959D01*
X53192Y-24840D01*
X53216Y-24792D01*
X53240Y-24769D01*
X53288Y-24745D01*
X53407Y-24745D01*
X53454Y-24769D01*
X53478Y-24792D01*
X53502Y-24840D01*
X53502Y-24959D01*
X53478Y-25007D01*
X53454Y-25030D01*
X56054Y-25745D02*
X56078Y-25769D01*
X56102Y-25840D01*
X56102Y-25888D01*
X56078Y-25959D01*
X56030Y-26007D01*
X55983Y-26030D01*
X55888Y-26054D01*
X55816Y-26054D01*
X55721Y-26030D01*
X55673Y-26007D01*
X55626Y-25959D01*
X55602Y-25888D01*
X55602Y-25840D01*
X55626Y-25769D01*
X55650Y-25745D01*
X56102Y-25530D02*
X55602Y-25530D01*
X55840Y-25530D02*
X55840Y-25245D01*
X56102Y-25245D02*
X55602Y-25245D01*
X55769Y-24792D02*
X56102Y-24792D01*
X55578Y-24911D02*
X55935Y-25030D01*
X55935Y-24721D01*
X58654Y-25745D02*
X58678Y-25769D01*
X58702Y-25840D01*
X58702Y-25888D01*
X58678Y-25959D01*
X58630Y-26007D01*
X58583Y-26030D01*
X58488Y-26054D01*
X58416Y-26054D01*
X58321Y-26030D01*
X58273Y-26007D01*
X58226Y-25959D01*
X58202Y-25888D01*
X58202Y-25840D01*
X58226Y-25769D01*
X58250Y-25745D01*
X58702Y-25530D02*
X58202Y-25530D01*
X58440Y-25530D02*
X58440Y-25245D01*
X58702Y-25245D02*
X58202Y-25245D01*
X58202Y-25054D02*
X58202Y-24745D01*
X58392Y-24911D01*
X58392Y-24840D01*
X58416Y-24792D01*
X58440Y-24769D01*
X58488Y-24745D01*
X58607Y-24745D01*
X58654Y-24769D01*
X58678Y-24792D01*
X58702Y-24840D01*
X58702Y-24983D01*
X58678Y-25030D01*
X58654Y-25054D01*
G54D13*
X43586Y-54788D02*
X43396Y-54921D01*
X43586Y-55016D02*
X43186Y-55016D01*
X43186Y-54864D01*
X43205Y-54826D01*
X43225Y-54807D01*
X43263Y-54788D01*
X43320Y-54788D01*
X43358Y-54807D01*
X43377Y-54826D01*
X43396Y-54864D01*
X43396Y-55016D01*
X43186Y-54673D02*
X43586Y-54540D01*
X43186Y-54407D01*
X43586Y-54064D02*
X43586Y-54292D01*
X43586Y-54178D02*
X43186Y-54178D01*
X43244Y-54216D01*
X43282Y-54254D01*
X43301Y-54292D01*
X76211Y-58204D02*
X76211Y-57976D01*
X76611Y-58090D02*
X76211Y-58090D01*
X76611Y-57633D02*
X76611Y-57861D01*
X76611Y-57747D02*
X76211Y-57747D01*
X76269Y-57785D01*
X76307Y-57823D01*
X76326Y-57861D01*
X71061Y-54097D02*
X70661Y-54097D01*
X70661Y-54002D01*
X70680Y-53945D01*
X70719Y-53907D01*
X70757Y-53888D01*
X70833Y-53869D01*
X70890Y-53869D01*
X70966Y-53888D01*
X71004Y-53907D01*
X71042Y-53945D01*
X71061Y-54002D01*
X71061Y-54097D01*
X71042Y-53716D02*
X71061Y-53659D01*
X71061Y-53564D01*
X71042Y-53526D01*
X71023Y-53507D01*
X70985Y-53488D01*
X70947Y-53488D01*
X70909Y-53507D01*
X70890Y-53526D01*
X70871Y-53564D01*
X70852Y-53640D01*
X70833Y-53678D01*
X70814Y-53697D01*
X70776Y-53716D01*
X70738Y-53716D01*
X70700Y-53697D01*
X70680Y-53678D01*
X70661Y-53640D01*
X70661Y-53545D01*
X70680Y-53488D01*
X70661Y-53373D02*
X70661Y-53145D01*
X71061Y-53259D02*
X70661Y-53259D01*
X70700Y-53030D02*
X70680Y-53011D01*
X70661Y-52973D01*
X70661Y-52878D01*
X70680Y-52840D01*
X70700Y-52821D01*
X70738Y-52802D01*
X70776Y-52802D01*
X70833Y-52821D01*
X71061Y-53050D01*
X71061Y-52802D01*
X70909Y-52630D02*
X70909Y-52326D01*
X71061Y-51926D02*
X71061Y-52154D01*
X71061Y-52040D02*
X70661Y-52040D01*
X70719Y-52078D01*
X70757Y-52116D01*
X70776Y-52154D01*
X70700Y-51773D02*
X70680Y-51754D01*
X70661Y-51716D01*
X70661Y-51621D01*
X70680Y-51583D01*
X70700Y-51564D01*
X70738Y-51545D01*
X70776Y-51545D01*
X70833Y-51564D01*
X71061Y-51792D01*
X71061Y-51545D01*
X70852Y-51240D02*
X70871Y-51183D01*
X70890Y-51164D01*
X70928Y-51145D01*
X70985Y-51145D01*
X71023Y-51164D01*
X71042Y-51183D01*
X71061Y-51221D01*
X71061Y-51373D01*
X70661Y-51373D01*
X70661Y-51240D01*
X70680Y-51202D01*
X70700Y-51183D01*
X70738Y-51164D01*
X70776Y-51164D01*
X70814Y-51183D01*
X70833Y-51202D01*
X70852Y-51240D01*
X70852Y-51373D01*
X70795Y-50802D02*
X71061Y-50802D01*
X70642Y-50897D02*
X70928Y-50992D01*
X70928Y-50745D01*
X70700Y-50611D02*
X70680Y-50592D01*
X70661Y-50554D01*
X70661Y-50459D01*
X70680Y-50421D01*
X70700Y-50402D01*
X70738Y-50383D01*
X70776Y-50383D01*
X70833Y-50402D01*
X71061Y-50630D01*
X71061Y-50383D01*
G54D18*
X62930Y-52578D02*
X62835Y-52645D01*
X62930Y-52692D02*
X62730Y-52692D01*
X62730Y-52616D01*
X62740Y-52597D01*
X62750Y-52588D01*
X62769Y-52578D01*
X62797Y-52578D01*
X62816Y-52588D01*
X62826Y-52597D01*
X62835Y-52616D01*
X62835Y-52692D01*
X62730Y-52511D02*
X62730Y-52388D01*
X62807Y-52454D01*
X62807Y-52426D01*
X62816Y-52407D01*
X62826Y-52397D01*
X62845Y-52388D01*
X62892Y-52388D01*
X62911Y-52397D01*
X62921Y-52407D01*
X62930Y-52426D01*
X62930Y-52483D01*
X62921Y-52502D01*
X62911Y-52511D01*
X62930Y-52197D02*
X62930Y-52311D01*
X62930Y-52254D02*
X62730Y-52254D01*
X62759Y-52273D01*
X62778Y-52292D01*
X62788Y-52311D01*
M02*
