G04 (created by PCBNEW (2013-07-07 BZR 4022)-stable) date 06/01/2015 12:36:27*
%MOIN*%
G04 Gerber Fmt 3.4, Leading zero omitted, Abs format*
%FSLAX34Y34*%
G01*
G70*
G90*
G04 APERTURE LIST*
%ADD10C,0.00590551*%
%ADD11C,0.086*%
%ADD12C,0.09*%
%ADD13C,0.15*%
%ADD14O,0.18X0.22*%
%ADD15C,0.082*%
%ADD16C,0.13*%
%ADD17C,0.11*%
%ADD18R,0.09X0.09*%
%ADD19R,0.075X0.075*%
%ADD20C,0.075*%
%ADD21R,0.082X0.11*%
%ADD22O,0.082X0.11*%
%ADD23R,0.08X0.08*%
%ADD24C,0.08*%
%ADD25C,0.12*%
%ADD26C,0.17*%
%ADD27C,0.1365*%
%ADD28C,0.1003*%
G04 APERTURE END LIST*
G54D10*
G54D11*
X64000Y-61750D03*
X63000Y-61750D03*
X64000Y-60050D03*
X63000Y-60050D03*
G54D12*
X78350Y-56000D03*
X78350Y-50000D03*
X77350Y-48500D03*
X77350Y-51000D03*
X77350Y-53500D03*
G54D13*
X59800Y-24400D03*
X59800Y-26400D03*
X62400Y-24400D03*
X62400Y-26400D03*
G54D14*
X73750Y-25050D03*
X71250Y-25050D03*
G54D13*
X44200Y-24400D03*
X44200Y-26400D03*
G54D15*
X47270Y-61350D03*
G54D16*
X44270Y-55850D03*
G54D17*
X45770Y-55850D03*
G54D16*
X47270Y-55850D03*
G54D17*
X45770Y-57850D03*
G54D15*
X44270Y-59350D03*
G54D12*
X75750Y-32250D03*
X76750Y-32250D03*
G54D18*
X77750Y-32250D03*
G54D12*
X71000Y-32250D03*
X72000Y-32250D03*
G54D18*
X73000Y-32250D03*
G54D12*
X42500Y-32250D03*
X43500Y-32250D03*
G54D18*
X44500Y-32250D03*
G54D12*
X47250Y-32250D03*
X48250Y-32250D03*
G54D18*
X49250Y-32250D03*
G54D12*
X52000Y-32250D03*
X53000Y-32250D03*
G54D18*
X54000Y-32250D03*
G54D12*
X56750Y-32250D03*
X57750Y-32250D03*
G54D18*
X58750Y-32250D03*
G54D12*
X61500Y-32250D03*
X62500Y-32250D03*
G54D18*
X63500Y-32250D03*
G54D12*
X66250Y-32250D03*
X67250Y-32250D03*
G54D18*
X68250Y-32250D03*
G54D19*
X40550Y-46900D03*
G54D20*
X40550Y-47900D03*
X40550Y-48900D03*
X40550Y-49900D03*
X40550Y-50900D03*
G54D19*
X48200Y-46050D03*
G54D20*
X49200Y-46050D03*
G54D21*
X74250Y-44500D03*
G54D22*
X75250Y-44500D03*
X76250Y-44500D03*
X76250Y-41500D03*
X75250Y-41500D03*
X74250Y-41500D03*
G54D21*
X69500Y-44500D03*
G54D22*
X70500Y-44500D03*
X71500Y-44500D03*
X71500Y-41500D03*
X70500Y-41500D03*
X69500Y-41500D03*
G54D21*
X64750Y-44500D03*
G54D22*
X65750Y-44500D03*
X66750Y-44500D03*
X66750Y-41500D03*
X65750Y-41500D03*
X64750Y-41500D03*
G54D21*
X60000Y-44500D03*
G54D22*
X61000Y-44500D03*
X62000Y-44500D03*
X62000Y-41500D03*
X61000Y-41500D03*
X60000Y-41500D03*
G54D21*
X55250Y-44500D03*
G54D22*
X56250Y-44500D03*
X57250Y-44500D03*
X57250Y-41500D03*
X56250Y-41500D03*
X55250Y-41500D03*
G54D21*
X50500Y-44500D03*
G54D22*
X51500Y-44500D03*
X52500Y-44500D03*
X52500Y-41500D03*
X51500Y-41500D03*
X50500Y-41500D03*
G54D21*
X45750Y-44500D03*
G54D22*
X46750Y-44500D03*
X47750Y-44500D03*
X47750Y-41500D03*
X46750Y-41500D03*
X45750Y-41500D03*
G54D21*
X41000Y-44500D03*
G54D22*
X42000Y-44500D03*
X43000Y-44500D03*
X43000Y-41500D03*
X42000Y-41500D03*
X41000Y-41500D03*
G54D23*
X59275Y-47400D03*
G54D24*
X59275Y-48400D03*
G54D23*
X54000Y-49400D03*
G54D24*
X54000Y-48400D03*
G54D15*
X58400Y-61350D03*
G54D16*
X55400Y-57600D03*
G54D17*
X56900Y-56100D03*
G54D16*
X58400Y-57850D03*
G54D17*
X60400Y-59850D03*
G54D15*
X55400Y-59350D03*
G54D12*
X66250Y-62000D03*
X67250Y-62000D03*
X68250Y-62000D03*
X69250Y-62000D03*
X70250Y-62000D03*
X71250Y-62000D03*
X72250Y-62000D03*
X73250Y-62000D03*
X74250Y-62000D03*
X75250Y-62000D03*
X75250Y-59000D03*
X74250Y-59000D03*
X73250Y-59000D03*
X72250Y-59000D03*
X71250Y-59000D03*
X70250Y-59000D03*
X69250Y-59000D03*
X68250Y-59000D03*
X67250Y-59000D03*
X66250Y-59000D03*
G54D25*
X42500Y-34300D03*
X42500Y-40200D03*
X47250Y-34300D03*
X47250Y-40200D03*
X52000Y-34300D03*
X52000Y-40200D03*
X56750Y-34300D03*
X56750Y-40200D03*
X61500Y-34300D03*
X61500Y-40200D03*
X66250Y-34300D03*
X66250Y-40200D03*
X71000Y-34300D03*
X71000Y-40200D03*
X75750Y-34300D03*
X75750Y-40200D03*
G54D20*
X49900Y-33900D03*
X49900Y-36900D03*
X49900Y-37750D03*
X49900Y-40750D03*
X45150Y-37750D03*
X45150Y-40750D03*
X40400Y-37750D03*
X40400Y-40750D03*
X54650Y-37750D03*
X54650Y-40750D03*
X59400Y-37750D03*
X59400Y-40750D03*
X64150Y-37750D03*
X64150Y-40750D03*
X68900Y-37750D03*
X68900Y-40750D03*
X73650Y-37750D03*
X73650Y-40750D03*
X40400Y-33900D03*
X40400Y-36900D03*
X45150Y-33900D03*
X45150Y-36900D03*
X54650Y-33900D03*
X54650Y-36900D03*
X59400Y-33900D03*
X59400Y-36900D03*
X64150Y-33900D03*
X64150Y-36900D03*
X68900Y-33900D03*
X68900Y-36900D03*
X73650Y-33900D03*
X73650Y-36900D03*
G54D12*
X49950Y-53450D03*
X47950Y-53450D03*
G54D18*
X56325Y-47400D03*
G54D12*
X56325Y-48400D03*
X56325Y-49400D03*
G54D26*
X46500Y-28500D03*
X48500Y-28500D03*
X52500Y-28500D03*
X54500Y-28500D03*
X65800Y-28500D03*
X67800Y-28500D03*
X71800Y-28500D03*
X73800Y-28500D03*
G54D19*
X43550Y-46050D03*
G54D20*
X44550Y-46050D03*
G54D27*
X77900Y-24750D03*
G54D13*
X46800Y-24400D03*
X46800Y-26400D03*
X49400Y-24400D03*
X49400Y-26400D03*
X52000Y-24400D03*
X52000Y-26400D03*
X54600Y-24400D03*
X54600Y-26400D03*
X57200Y-24400D03*
X57200Y-26400D03*
G54D28*
X43175Y-53500D03*
X41675Y-52500D03*
X41675Y-54500D03*
G54D25*
X64250Y-56000D03*
X64250Y-53500D03*
X64250Y-48500D03*
X64250Y-51000D03*
X76250Y-51000D03*
X76250Y-48500D03*
X76250Y-53500D03*
X76250Y-56000D03*
G54D27*
X41100Y-24750D03*
X77900Y-60500D03*
X41100Y-60500D03*
M02*
