G04 (created by PCBNEW (2013-07-07 BZR 4022)-stable) date 06/01/2015 12:36:27*
%MOIN*%
G04 Gerber Fmt 3.4, Leading zero omitted, Abs format*
%FSLAX34Y34*%
G01*
G70*
G90*
G04 APERTURE LIST*
%ADD10C,0.00590551*%
%ADD11C,0.066*%
%ADD12C,0.07*%
%ADD13C,0.13*%
%ADD14O,0.16X0.2*%
%ADD15C,0.062*%
%ADD16C,0.11*%
%ADD17C,0.09*%
%ADD18R,0.07X0.07*%
%ADD19R,0.055X0.055*%
%ADD20C,0.055*%
%ADD21R,0.062X0.09*%
%ADD22O,0.062X0.09*%
%ADD23R,0.06X0.06*%
%ADD24C,0.06*%
%ADD25C,0.1*%
%ADD26C,0.15*%
%ADD27C,0.1165*%
%ADD28C,0.0803*%
%ADD29C,0.035*%
%ADD30C,0.03*%
%ADD31C,0.02*%
%ADD32C,0.04*%
%ADD33C,0.1*%
%ADD34C,0.01*%
G04 APERTURE END LIST*
G54D10*
G54D11*
X64000Y-61750D03*
X63000Y-61750D03*
X64000Y-60050D03*
X63000Y-60050D03*
G54D12*
X78350Y-56000D03*
X78350Y-50000D03*
X77350Y-48500D03*
X77350Y-51000D03*
X77350Y-53500D03*
G54D13*
X59800Y-24400D03*
X59800Y-26400D03*
X62400Y-24400D03*
X62400Y-26400D03*
G54D14*
X73750Y-25050D03*
X71250Y-25050D03*
G54D13*
X44200Y-24400D03*
X44200Y-26400D03*
G54D15*
X47270Y-61350D03*
G54D16*
X44270Y-55850D03*
G54D17*
X45770Y-55850D03*
G54D16*
X47270Y-55850D03*
G54D17*
X45770Y-57850D03*
G54D15*
X44270Y-59350D03*
G54D12*
X75750Y-32250D03*
X76750Y-32250D03*
G54D18*
X77750Y-32250D03*
G54D12*
X71000Y-32250D03*
X72000Y-32250D03*
G54D18*
X73000Y-32250D03*
G54D12*
X42500Y-32250D03*
X43500Y-32250D03*
G54D18*
X44500Y-32250D03*
G54D12*
X47250Y-32250D03*
X48250Y-32250D03*
G54D18*
X49250Y-32250D03*
G54D12*
X52000Y-32250D03*
X53000Y-32250D03*
G54D18*
X54000Y-32250D03*
G54D12*
X56750Y-32250D03*
X57750Y-32250D03*
G54D18*
X58750Y-32250D03*
G54D12*
X61500Y-32250D03*
X62500Y-32250D03*
G54D18*
X63500Y-32250D03*
G54D12*
X66250Y-32250D03*
X67250Y-32250D03*
G54D18*
X68250Y-32250D03*
G54D19*
X40550Y-46900D03*
G54D20*
X40550Y-47900D03*
X40550Y-48900D03*
X40550Y-49900D03*
X40550Y-50900D03*
G54D19*
X48200Y-46050D03*
G54D20*
X49200Y-46050D03*
G54D21*
X74250Y-44500D03*
G54D22*
X75250Y-44500D03*
X76250Y-44500D03*
X76250Y-41500D03*
X75250Y-41500D03*
X74250Y-41500D03*
G54D21*
X69500Y-44500D03*
G54D22*
X70500Y-44500D03*
X71500Y-44500D03*
X71500Y-41500D03*
X70500Y-41500D03*
X69500Y-41500D03*
G54D21*
X64750Y-44500D03*
G54D22*
X65750Y-44500D03*
X66750Y-44500D03*
X66750Y-41500D03*
X65750Y-41500D03*
X64750Y-41500D03*
G54D21*
X60000Y-44500D03*
G54D22*
X61000Y-44500D03*
X62000Y-44500D03*
X62000Y-41500D03*
X61000Y-41500D03*
X60000Y-41500D03*
G54D21*
X55250Y-44500D03*
G54D22*
X56250Y-44500D03*
X57250Y-44500D03*
X57250Y-41500D03*
X56250Y-41500D03*
X55250Y-41500D03*
G54D21*
X50500Y-44500D03*
G54D22*
X51500Y-44500D03*
X52500Y-44500D03*
X52500Y-41500D03*
X51500Y-41500D03*
X50500Y-41500D03*
G54D21*
X45750Y-44500D03*
G54D22*
X46750Y-44500D03*
X47750Y-44500D03*
X47750Y-41500D03*
X46750Y-41500D03*
X45750Y-41500D03*
G54D21*
X41000Y-44500D03*
G54D22*
X42000Y-44500D03*
X43000Y-44500D03*
X43000Y-41500D03*
X42000Y-41500D03*
X41000Y-41500D03*
G54D23*
X59275Y-47400D03*
G54D24*
X59275Y-48400D03*
G54D23*
X54000Y-49400D03*
G54D24*
X54000Y-48400D03*
G54D15*
X58400Y-61350D03*
G54D16*
X55400Y-57600D03*
G54D17*
X56900Y-56100D03*
G54D16*
X58400Y-57850D03*
G54D17*
X60400Y-59850D03*
G54D15*
X55400Y-59350D03*
G54D12*
X66250Y-62000D03*
X67250Y-62000D03*
X68250Y-62000D03*
X69250Y-62000D03*
X70250Y-62000D03*
X71250Y-62000D03*
X72250Y-62000D03*
X73250Y-62000D03*
X74250Y-62000D03*
X75250Y-62000D03*
X75250Y-59000D03*
X74250Y-59000D03*
X73250Y-59000D03*
X72250Y-59000D03*
X71250Y-59000D03*
X70250Y-59000D03*
X69250Y-59000D03*
X68250Y-59000D03*
X67250Y-59000D03*
X66250Y-59000D03*
G54D25*
X42500Y-34300D03*
X42500Y-40200D03*
X47250Y-34300D03*
X47250Y-40200D03*
X52000Y-34300D03*
X52000Y-40200D03*
X56750Y-34300D03*
X56750Y-40200D03*
X61500Y-34300D03*
X61500Y-40200D03*
X66250Y-34300D03*
X66250Y-40200D03*
X71000Y-34300D03*
X71000Y-40200D03*
X75750Y-34300D03*
X75750Y-40200D03*
G54D20*
X49900Y-33900D03*
X49900Y-36900D03*
X49900Y-37750D03*
X49900Y-40750D03*
X45150Y-37750D03*
X45150Y-40750D03*
X40400Y-37750D03*
X40400Y-40750D03*
X54650Y-37750D03*
X54650Y-40750D03*
X59400Y-37750D03*
X59400Y-40750D03*
X64150Y-37750D03*
X64150Y-40750D03*
X68900Y-37750D03*
X68900Y-40750D03*
X73650Y-37750D03*
X73650Y-40750D03*
X40400Y-33900D03*
X40400Y-36900D03*
X45150Y-33900D03*
X45150Y-36900D03*
X54650Y-33900D03*
X54650Y-36900D03*
X59400Y-33900D03*
X59400Y-36900D03*
X64150Y-33900D03*
X64150Y-36900D03*
X68900Y-33900D03*
X68900Y-36900D03*
X73650Y-33900D03*
X73650Y-36900D03*
G54D12*
X49950Y-53450D03*
X47950Y-53450D03*
G54D18*
X56325Y-47400D03*
G54D12*
X56325Y-48400D03*
X56325Y-49400D03*
G54D26*
X46500Y-28500D03*
X48500Y-28500D03*
X52500Y-28500D03*
X54500Y-28500D03*
X65800Y-28500D03*
X67800Y-28500D03*
X71800Y-28500D03*
X73800Y-28500D03*
G54D19*
X43550Y-46050D03*
G54D20*
X44550Y-46050D03*
G54D27*
X77900Y-24750D03*
G54D13*
X46800Y-24400D03*
X46800Y-26400D03*
X49400Y-24400D03*
X49400Y-26400D03*
X52000Y-24400D03*
X52000Y-26400D03*
X54600Y-24400D03*
X54600Y-26400D03*
X57200Y-24400D03*
X57200Y-26400D03*
G54D28*
X43175Y-53500D03*
X41675Y-52500D03*
X41675Y-54500D03*
G54D25*
X64250Y-56000D03*
X64250Y-53500D03*
X64250Y-48500D03*
X64250Y-51000D03*
X76250Y-51000D03*
X76250Y-48500D03*
X76250Y-53500D03*
X76250Y-56000D03*
G54D27*
X41100Y-24750D03*
X77900Y-60500D03*
X41100Y-60500D03*
G54D29*
X45300Y-49300D03*
X56300Y-51400D03*
X50600Y-45500D03*
X50000Y-46700D03*
X49600Y-51300D03*
X42250Y-49000D03*
X47350Y-45950D03*
X48500Y-48450D03*
X54300Y-46700D03*
X50950Y-48050D03*
X54900Y-46150D03*
X51750Y-46150D03*
X54600Y-47100D03*
X50550Y-48300D03*
X55050Y-51100D03*
X51450Y-51100D03*
X59500Y-54100D03*
X47050Y-54450D03*
X44000Y-49700D03*
X46200Y-49700D03*
X51600Y-46700D03*
X53700Y-46700D03*
X46950Y-46300D03*
X48500Y-48950D03*
G54D30*
X65250Y-45500D02*
X70000Y-45500D01*
X55250Y-44500D02*
X55250Y-45000D01*
X64000Y-59550D02*
X61800Y-57350D01*
X69500Y-45000D02*
X70000Y-45500D01*
X60500Y-45500D02*
X65250Y-45500D01*
X46150Y-45500D02*
X46250Y-45500D01*
G54D31*
X45300Y-49300D02*
X45300Y-46000D01*
G54D30*
X41000Y-44500D02*
X41000Y-45000D01*
X50500Y-45000D02*
X51000Y-45500D01*
X64000Y-60050D02*
X64000Y-59550D01*
X51000Y-45500D02*
X55450Y-45500D01*
X50500Y-44500D02*
X50500Y-45000D01*
X50600Y-45500D02*
X51000Y-45500D01*
X41000Y-45000D02*
X41500Y-45500D01*
G54D31*
X45300Y-46000D02*
X45800Y-45500D01*
G54D30*
X74250Y-45000D02*
X74250Y-44500D01*
X46250Y-45500D02*
X50600Y-45500D01*
X45750Y-44500D02*
X45750Y-45000D01*
X45750Y-45000D02*
X46250Y-45500D01*
X69500Y-44500D02*
X69500Y-45000D01*
X61800Y-53250D02*
X59950Y-51400D01*
X45800Y-45500D02*
X46150Y-45500D01*
G54D32*
X55450Y-49200D02*
X55450Y-45500D01*
G54D30*
X61800Y-57350D02*
X61800Y-53250D01*
X64750Y-44500D02*
X64750Y-45000D01*
X73750Y-45500D02*
X74250Y-45000D01*
X60000Y-44500D02*
X60000Y-45000D01*
X64000Y-61750D02*
X64000Y-60050D01*
G54D32*
X56325Y-49400D02*
X55650Y-49400D01*
G54D30*
X41500Y-45500D02*
X45800Y-45500D01*
G54D32*
X55650Y-49400D02*
X55450Y-49200D01*
G54D30*
X70000Y-45500D02*
X73750Y-45500D01*
X55450Y-45500D02*
X55750Y-45500D01*
X59950Y-51400D02*
X56300Y-51400D01*
X64750Y-45000D02*
X65250Y-45500D01*
X60000Y-45000D02*
X60500Y-45500D01*
X55250Y-45000D02*
X55750Y-45500D01*
X55750Y-45500D02*
X60500Y-45500D01*
G54D32*
X47800Y-51300D02*
X44270Y-54830D01*
X46150Y-56900D02*
X49550Y-60300D01*
X44270Y-55870D02*
X45300Y-56900D01*
X50300Y-50600D02*
X50300Y-50450D01*
X58400Y-58600D02*
X58400Y-57850D01*
X59275Y-48400D02*
X58650Y-48400D01*
X45300Y-56900D02*
X46150Y-56900D01*
X44270Y-55850D02*
X44270Y-55870D01*
X57700Y-49350D02*
X57700Y-50050D01*
X56700Y-60300D02*
X58400Y-58600D01*
X50000Y-50150D02*
X50000Y-46700D01*
X50300Y-50600D02*
X49600Y-51300D01*
X50300Y-50450D02*
X50000Y-50150D01*
X58650Y-48400D02*
X57700Y-49350D01*
X44270Y-54830D02*
X44270Y-55850D01*
G54D31*
X42550Y-50900D02*
X40550Y-50900D01*
G54D32*
X49550Y-60300D02*
X56700Y-60300D01*
G54D31*
X43550Y-47650D02*
X42900Y-48300D01*
X43550Y-46050D02*
X43550Y-47650D01*
X42900Y-50550D02*
X42550Y-50900D01*
X42900Y-48300D02*
X42900Y-50550D01*
G54D32*
X49600Y-51300D02*
X47800Y-51300D01*
X41150Y-55850D02*
X40250Y-54950D01*
X40250Y-54950D02*
X40250Y-51200D01*
X40250Y-51200D02*
X40550Y-50900D01*
X44270Y-55850D02*
X41150Y-55850D01*
X57700Y-50050D02*
X57150Y-50600D01*
X57150Y-50600D02*
X50300Y-50600D01*
X77750Y-28500D02*
X78750Y-29500D01*
X76250Y-56000D02*
X78350Y-56000D01*
X78750Y-45500D02*
X78750Y-29500D01*
G54D33*
X69750Y-26750D02*
X70050Y-26750D01*
X73750Y-25050D02*
X73800Y-28500D01*
G54D32*
X73800Y-28500D02*
X77750Y-28500D01*
X75750Y-47000D02*
X77250Y-47000D01*
G54D33*
X71800Y-28500D02*
X73800Y-28500D01*
X63000Y-28500D02*
X64750Y-26750D01*
G54D32*
X74750Y-54500D02*
X76250Y-56000D01*
G54D33*
X52500Y-28500D02*
X54500Y-28500D01*
G54D32*
X74750Y-54500D02*
X74750Y-48000D01*
X77250Y-47000D02*
X78750Y-45500D01*
X74750Y-48000D02*
X75750Y-47000D01*
G54D33*
X70050Y-26750D02*
X71800Y-28500D01*
X64750Y-26750D02*
X69750Y-26750D01*
X54500Y-28500D02*
X63000Y-28500D01*
X44200Y-24400D02*
X46800Y-24400D01*
X49400Y-24400D02*
X52000Y-24400D01*
X62400Y-24400D02*
X70600Y-24400D01*
X54600Y-24400D02*
X57200Y-24400D01*
X52000Y-24400D02*
X54600Y-24400D01*
G54D32*
X76250Y-48500D02*
X77350Y-48500D01*
G54D33*
X46800Y-24400D02*
X49400Y-24400D01*
X59800Y-24400D02*
X62400Y-24400D01*
X70600Y-24400D02*
X71250Y-25050D01*
X57200Y-24400D02*
X59800Y-24400D01*
G54D34*
X41450Y-46900D02*
X42250Y-47700D01*
X40550Y-46900D02*
X41450Y-46900D01*
X42250Y-47700D02*
X42250Y-49000D01*
X48500Y-48450D02*
X47350Y-47300D01*
X47350Y-47300D02*
X47350Y-45950D01*
G54D30*
X49020Y-57600D02*
X47270Y-55850D01*
X55400Y-57600D02*
X49020Y-57600D01*
G54D32*
X48800Y-60900D02*
X57000Y-60900D01*
X45770Y-57850D02*
X45770Y-57870D01*
X45770Y-57870D02*
X48800Y-60900D01*
X58050Y-59850D02*
X60400Y-59850D01*
X57000Y-60900D02*
X58050Y-59850D01*
G54D31*
X59400Y-36400D02*
X61500Y-34300D01*
X59400Y-36900D02*
X59400Y-36400D01*
X59400Y-37750D02*
X59400Y-36900D01*
X61500Y-32250D02*
X61500Y-32750D01*
X62500Y-33750D02*
X62500Y-39200D01*
X62500Y-39200D02*
X61500Y-40200D01*
X61500Y-32750D02*
X62500Y-33750D01*
X63250Y-33500D02*
X63500Y-33250D01*
X62000Y-41500D02*
X63250Y-40250D01*
X63250Y-40250D02*
X63250Y-33500D01*
X63500Y-33250D02*
X63500Y-32250D01*
X59400Y-40750D02*
X59400Y-40900D01*
X59400Y-40900D02*
X60000Y-41500D01*
X68900Y-40900D02*
X69500Y-41500D01*
X68900Y-40750D02*
X68900Y-40900D01*
X72000Y-39200D02*
X71000Y-40200D01*
X71000Y-32250D02*
X71000Y-32750D01*
X71000Y-32750D02*
X72000Y-33750D01*
X72000Y-33750D02*
X72000Y-39200D01*
G54D34*
X53900Y-47100D02*
X51900Y-47100D01*
X54300Y-46700D02*
X53900Y-47100D01*
X51900Y-47100D02*
X50950Y-48050D01*
X54900Y-46150D02*
X51750Y-46150D01*
X52100Y-47400D02*
X51100Y-48400D01*
X54600Y-47100D02*
X54300Y-47400D01*
X51100Y-48400D02*
X50650Y-48400D01*
X54300Y-47400D02*
X52100Y-47400D01*
X50650Y-48400D02*
X50550Y-48300D01*
X51450Y-51100D02*
X55050Y-51100D01*
G54D32*
X77350Y-51000D02*
X78350Y-50000D01*
X76250Y-51000D02*
X77350Y-51000D01*
G54D33*
X62500Y-31250D02*
X63000Y-30750D01*
X67750Y-30750D02*
X72000Y-30750D01*
X67250Y-30750D02*
X66750Y-30750D01*
X63000Y-30750D02*
X65750Y-30750D01*
X65800Y-30700D02*
X65750Y-30750D01*
X62500Y-32250D02*
X62500Y-31250D01*
X66750Y-30750D02*
X67750Y-30750D01*
X76250Y-30750D02*
X76750Y-31250D01*
X72000Y-30750D02*
X76250Y-30750D01*
X66800Y-28500D02*
X67800Y-28500D01*
X66800Y-28500D02*
X66800Y-30700D01*
X67800Y-28500D02*
X67800Y-30700D01*
X65800Y-28500D02*
X66800Y-28500D01*
X67250Y-32250D02*
X67250Y-30750D01*
X76750Y-31250D02*
X76750Y-32250D01*
X72000Y-32250D02*
X72000Y-30750D01*
X66800Y-30700D02*
X66750Y-30750D01*
X65800Y-28500D02*
X65800Y-30700D01*
X67800Y-30700D02*
X67750Y-30750D01*
X65750Y-30750D02*
X67250Y-30750D01*
G54D34*
X63000Y-59650D02*
X63000Y-60050D01*
X59500Y-54100D02*
X60450Y-54100D01*
X61000Y-57650D02*
X63000Y-59650D01*
X61000Y-54650D02*
X61000Y-57650D01*
X60450Y-54100D02*
X61000Y-54650D01*
X47500Y-54450D02*
X48350Y-55300D01*
X62350Y-59750D02*
X62350Y-61100D01*
X48350Y-55300D02*
X57900Y-55300D01*
X47050Y-54450D02*
X47500Y-54450D01*
X62350Y-61100D02*
X63000Y-61750D01*
X57900Y-55300D02*
X62350Y-59750D01*
G54D31*
X44250Y-33500D02*
X44500Y-33250D01*
X44250Y-40250D02*
X44250Y-33500D01*
X43000Y-41500D02*
X44250Y-40250D01*
X44500Y-33250D02*
X44500Y-32250D01*
X40400Y-40900D02*
X41000Y-41500D01*
X40400Y-40750D02*
X40400Y-40900D01*
X75750Y-32750D02*
X76750Y-33750D01*
X76750Y-33750D02*
X76750Y-39200D01*
X76750Y-39200D02*
X75750Y-40200D01*
X75750Y-32250D02*
X75750Y-32750D01*
X77750Y-33250D02*
X77500Y-33500D01*
X77500Y-40250D02*
X76250Y-41500D01*
X77500Y-33500D02*
X77500Y-40250D01*
X77750Y-32250D02*
X77750Y-33250D01*
X73650Y-40750D02*
X73650Y-40900D01*
X73650Y-40900D02*
X74250Y-41500D01*
X54650Y-40900D02*
X55250Y-41500D01*
X54650Y-40750D02*
X54650Y-40900D01*
X56750Y-32250D02*
X56750Y-32750D01*
X57750Y-33750D02*
X57750Y-39200D01*
X57750Y-39200D02*
X56750Y-40200D01*
X56750Y-32750D02*
X57750Y-33750D01*
X71500Y-41500D02*
X72750Y-40250D01*
X73000Y-33250D02*
X73000Y-32250D01*
X72750Y-33500D02*
X73000Y-33250D01*
X72750Y-40250D02*
X72750Y-33500D01*
X68900Y-36400D02*
X71000Y-34300D01*
X68900Y-37750D02*
X68900Y-36900D01*
X68900Y-36900D02*
X68900Y-36400D01*
X67250Y-39200D02*
X66250Y-40200D01*
X66250Y-32750D02*
X67250Y-33750D01*
X66250Y-32250D02*
X66250Y-32750D01*
X67250Y-33750D02*
X67250Y-39200D01*
X58750Y-33250D02*
X58750Y-32250D01*
X58500Y-33500D02*
X58750Y-33250D01*
X57250Y-41500D02*
X58500Y-40250D01*
X58500Y-40250D02*
X58500Y-33500D01*
X68000Y-40250D02*
X68000Y-33500D01*
X66750Y-41500D02*
X68000Y-40250D01*
X68250Y-33250D02*
X68250Y-32250D01*
X68000Y-33500D02*
X68250Y-33250D01*
X64150Y-40750D02*
X64150Y-40900D01*
X64150Y-40900D02*
X64750Y-41500D01*
G54D33*
X48500Y-30500D02*
X48250Y-30750D01*
X47500Y-28500D02*
X47500Y-30750D01*
X46500Y-28500D02*
X46500Y-30750D01*
X44000Y-30750D02*
X46500Y-30750D01*
X46500Y-30750D02*
X47500Y-30750D01*
X48250Y-32250D02*
X48250Y-30750D01*
X53000Y-30750D02*
X57250Y-30750D01*
X57750Y-31250D02*
X57750Y-32250D01*
X48250Y-30750D02*
X53000Y-30750D01*
X47500Y-30750D02*
X48250Y-30750D01*
X46500Y-28500D02*
X47500Y-28500D01*
X53000Y-32250D02*
X53000Y-30750D01*
X47500Y-28500D02*
X48500Y-28500D01*
X43500Y-32250D02*
X43500Y-31250D01*
X43500Y-31250D02*
X44000Y-30750D01*
X48500Y-28500D02*
X48500Y-30500D01*
X57250Y-30750D02*
X57750Y-31250D01*
G54D31*
X52500Y-41500D02*
X53750Y-40250D01*
X53750Y-33500D02*
X54000Y-33250D01*
X54000Y-33250D02*
X54000Y-32250D01*
X53750Y-40250D02*
X53750Y-33500D01*
X49900Y-40750D02*
X49900Y-40900D01*
X49900Y-40900D02*
X50500Y-41500D01*
G54D34*
X46200Y-49700D02*
X44000Y-49700D01*
G54D30*
X55950Y-58550D02*
X56900Y-57600D01*
X48600Y-58550D02*
X55950Y-58550D01*
X45770Y-55850D02*
X45900Y-55850D01*
X45900Y-55850D02*
X48600Y-58550D01*
X56900Y-57600D02*
X56900Y-56100D01*
G54D31*
X54650Y-36400D02*
X56750Y-34300D01*
X54650Y-37750D02*
X54650Y-36900D01*
X54650Y-36900D02*
X54650Y-36400D01*
X45150Y-40750D02*
X45150Y-40900D01*
X45150Y-40900D02*
X45750Y-41500D01*
X47250Y-32250D02*
X47250Y-32800D01*
X47250Y-32800D02*
X48200Y-33750D01*
X48200Y-39250D02*
X47250Y-40200D01*
X48200Y-33750D02*
X48200Y-39250D01*
X49000Y-40250D02*
X49000Y-33500D01*
X49000Y-33500D02*
X49250Y-33250D01*
X49250Y-33250D02*
X49250Y-32250D01*
X47750Y-41500D02*
X49000Y-40250D01*
X45150Y-36900D02*
X45150Y-36400D01*
X45150Y-37750D02*
X45150Y-36900D01*
X45150Y-36400D02*
X47250Y-34300D01*
X42500Y-32250D02*
X42500Y-32850D01*
X42500Y-32850D02*
X43450Y-33800D01*
X43450Y-33800D02*
X43450Y-39250D01*
X43450Y-39250D02*
X42500Y-40200D01*
X52000Y-32250D02*
X52000Y-32750D01*
X53000Y-39200D02*
X52000Y-40200D01*
X52000Y-32750D02*
X53000Y-33750D01*
X53000Y-33750D02*
X53000Y-39200D01*
X64150Y-36900D02*
X64150Y-36400D01*
X64150Y-36400D02*
X66250Y-34300D01*
X64150Y-37750D02*
X64150Y-36900D01*
G54D34*
X53700Y-46700D02*
X51600Y-46700D01*
X46950Y-46300D02*
X46950Y-46300D01*
X46950Y-47650D02*
X47150Y-47850D01*
X47150Y-47850D02*
X48250Y-48950D01*
X46950Y-46300D02*
X46950Y-47650D01*
X48250Y-48950D02*
X48500Y-48950D01*
G54D31*
X40400Y-36400D02*
X42500Y-34300D01*
X40400Y-37750D02*
X40400Y-36900D01*
X40400Y-36900D02*
X40400Y-36400D01*
X49900Y-36400D02*
X52000Y-34300D01*
X49900Y-37750D02*
X49900Y-36900D01*
X49900Y-36900D02*
X49900Y-36400D01*
X73650Y-37750D02*
X73650Y-36900D01*
X73650Y-36900D02*
X73650Y-36400D01*
X73650Y-36400D02*
X75750Y-34300D01*
G54D30*
X63250Y-55000D02*
X63250Y-52000D01*
X63250Y-52000D02*
X64250Y-51000D01*
X64250Y-56000D02*
X63250Y-55000D01*
G54D31*
X43500Y-50750D02*
X43500Y-50850D01*
X43500Y-50750D02*
X43500Y-48700D01*
X44550Y-46050D02*
X44550Y-47650D01*
X43500Y-48700D02*
X44550Y-47650D01*
X40850Y-53675D02*
X41675Y-54500D01*
X40850Y-51925D02*
X40850Y-53675D01*
X41325Y-51450D02*
X40850Y-51925D01*
X42900Y-51450D02*
X41325Y-51450D01*
X43500Y-50850D02*
X42900Y-51450D01*
G54D30*
X65250Y-52500D02*
X65250Y-49500D01*
X65000Y-52750D02*
X65250Y-52500D01*
X64250Y-53500D02*
X65000Y-52750D01*
X65250Y-49500D02*
X64250Y-48500D01*
G54D32*
X76250Y-53500D02*
X77350Y-53500D01*
M02*
