G04 (created by PCBNEW (2013-07-07 BZR 4022)-stable) date 06/01/2015 12:36:27*
%MOIN*%
G04 Gerber Fmt 3.4, Leading zero omitted, Abs format*
%FSLAX34Y34*%
G01*
G70*
G90*
G04 APERTURE LIST*
%ADD10C,0.00590551*%
%ADD11C,0.066*%
%ADD12C,0.13*%
%ADD13O,0.16X0.2*%
%ADD14R,0.02X0.045*%
%ADD15C,0.062*%
%ADD16C,0.11*%
%ADD17C,0.09*%
%ADD18R,0.016X0.06*%
%ADD19R,0.06X0.016*%
%ADD20C,0.07*%
%ADD21R,0.07X0.07*%
%ADD22R,0.025X0.045*%
%ADD23R,0.045X0.025*%
%ADD24R,0.055X0.055*%
%ADD25C,0.055*%
%ADD26R,0.062X0.09*%
%ADD27O,0.062X0.09*%
%ADD28R,0.06X0.06*%
%ADD29C,0.06*%
%ADD30C,0.1*%
%ADD31R,0.03X0.035*%
%ADD32C,0.15*%
%ADD33C,0.1165*%
%ADD34C,0.0803*%
%ADD35C,0.035*%
%ADD36C,0.02*%
%ADD37C,0.015*%
%ADD38C,0.01*%
%ADD39C,0.03*%
%ADD40C,0.04*%
%ADD41C,0.1*%
%ADD42C,0.08*%
G04 APERTURE END LIST*
G54D10*
G54D11*
X64000Y-61750D03*
X63000Y-61750D03*
X64000Y-60050D03*
X63000Y-60050D03*
G54D12*
X59800Y-24400D03*
X59800Y-26400D03*
X62400Y-24400D03*
X62400Y-26400D03*
G54D13*
X73750Y-25050D03*
X71250Y-25050D03*
G54D12*
X44200Y-24400D03*
X44200Y-26400D03*
G54D14*
X61250Y-52650D03*
X61250Y-50550D03*
X60750Y-52650D03*
X60250Y-52650D03*
X59750Y-52650D03*
X60750Y-50550D03*
X60250Y-50550D03*
X59750Y-50550D03*
G54D15*
X47270Y-61350D03*
G54D16*
X44270Y-55850D03*
G54D17*
X45770Y-55850D03*
G54D16*
X47270Y-55850D03*
G54D17*
X45770Y-57850D03*
G54D15*
X44270Y-59350D03*
G54D18*
X50000Y-47350D03*
X49685Y-47350D03*
X49370Y-47350D03*
X49055Y-47350D03*
X48740Y-47350D03*
X48425Y-47350D03*
X50315Y-47350D03*
X50630Y-47350D03*
X50945Y-47350D03*
X51260Y-47350D03*
X51575Y-47350D03*
X50000Y-51850D03*
X49685Y-51850D03*
X49370Y-51850D03*
X49055Y-51850D03*
X48740Y-51850D03*
X48425Y-51850D03*
X50315Y-51850D03*
X50630Y-51850D03*
X50945Y-51850D03*
X51260Y-51850D03*
X51575Y-51850D03*
G54D19*
X47750Y-49600D03*
X52250Y-49600D03*
X47750Y-49915D03*
X52250Y-49915D03*
X52250Y-50230D03*
X47750Y-50230D03*
X47750Y-50545D03*
X52250Y-50545D03*
X52250Y-50860D03*
X47750Y-50860D03*
X47750Y-51175D03*
X52250Y-51175D03*
X52250Y-49285D03*
X47750Y-49285D03*
X47750Y-48970D03*
X52250Y-48970D03*
X52250Y-48655D03*
X47750Y-48655D03*
X47750Y-48340D03*
X52250Y-48340D03*
X52250Y-48025D03*
X47750Y-48025D03*
G54D20*
X75750Y-32250D03*
X76750Y-32250D03*
G54D21*
X77750Y-32250D03*
G54D20*
X71000Y-32250D03*
X72000Y-32250D03*
G54D21*
X73000Y-32250D03*
G54D20*
X42500Y-32250D03*
X43500Y-32250D03*
G54D21*
X44500Y-32250D03*
G54D20*
X47250Y-32250D03*
X48250Y-32250D03*
G54D21*
X49250Y-32250D03*
G54D20*
X52000Y-32250D03*
X53000Y-32250D03*
G54D21*
X54000Y-32250D03*
G54D20*
X56750Y-32250D03*
X57750Y-32250D03*
G54D21*
X58750Y-32250D03*
G54D20*
X61500Y-32250D03*
X62500Y-32250D03*
G54D21*
X63500Y-32250D03*
G54D20*
X66250Y-32250D03*
X67250Y-32250D03*
G54D21*
X68250Y-32250D03*
G54D14*
X45450Y-52450D03*
X45450Y-50350D03*
X44950Y-52450D03*
X44450Y-52450D03*
X43950Y-52450D03*
X44950Y-50350D03*
X44450Y-50350D03*
X43950Y-50350D03*
G54D22*
X65750Y-45475D03*
X65150Y-45475D03*
X59750Y-49800D03*
X60350Y-49800D03*
X61000Y-45475D03*
X60400Y-45475D03*
G54D23*
X46900Y-50850D03*
X46900Y-51450D03*
G54D22*
X53900Y-45500D03*
X53300Y-45500D03*
X51500Y-45500D03*
X52100Y-45500D03*
X46750Y-45500D03*
X47350Y-45500D03*
X42000Y-45500D03*
X42600Y-45500D03*
X56550Y-52575D03*
X57150Y-52575D03*
G54D23*
X45650Y-54000D03*
X45650Y-53400D03*
G54D22*
X45500Y-46750D03*
X46100Y-46750D03*
G54D23*
X62100Y-51900D03*
X62100Y-51300D03*
G54D22*
X75250Y-45500D03*
X74650Y-45500D03*
X47950Y-54800D03*
X48550Y-54800D03*
X70500Y-45500D03*
X69900Y-45500D03*
X50600Y-46200D03*
X50000Y-46200D03*
G54D23*
X43250Y-51850D03*
X43250Y-52450D03*
G54D22*
X49950Y-54800D03*
X50550Y-54800D03*
G54D24*
X40550Y-46900D03*
G54D25*
X40550Y-47900D03*
X40550Y-48900D03*
X40550Y-49900D03*
X40550Y-50900D03*
G54D24*
X48200Y-46050D03*
G54D25*
X49200Y-46050D03*
G54D26*
X74250Y-44500D03*
G54D27*
X75250Y-44500D03*
X76250Y-44500D03*
X76250Y-41500D03*
X75250Y-41500D03*
X74250Y-41500D03*
G54D26*
X69500Y-44500D03*
G54D27*
X70500Y-44500D03*
X71500Y-44500D03*
X71500Y-41500D03*
X70500Y-41500D03*
X69500Y-41500D03*
G54D26*
X64750Y-44500D03*
G54D27*
X65750Y-44500D03*
X66750Y-44500D03*
X66750Y-41500D03*
X65750Y-41500D03*
X64750Y-41500D03*
G54D26*
X60000Y-44500D03*
G54D27*
X61000Y-44500D03*
X62000Y-44500D03*
X62000Y-41500D03*
X61000Y-41500D03*
X60000Y-41500D03*
G54D26*
X55250Y-44500D03*
G54D27*
X56250Y-44500D03*
X57250Y-44500D03*
X57250Y-41500D03*
X56250Y-41500D03*
X55250Y-41500D03*
G54D26*
X50500Y-44500D03*
G54D27*
X51500Y-44500D03*
X52500Y-44500D03*
X52500Y-41500D03*
X51500Y-41500D03*
X50500Y-41500D03*
G54D26*
X45750Y-44500D03*
G54D27*
X46750Y-44500D03*
X47750Y-44500D03*
X47750Y-41500D03*
X46750Y-41500D03*
X45750Y-41500D03*
G54D26*
X41000Y-44500D03*
G54D27*
X42000Y-44500D03*
X43000Y-44500D03*
X43000Y-41500D03*
X42000Y-41500D03*
X41000Y-41500D03*
G54D28*
X59275Y-47400D03*
G54D29*
X59275Y-48400D03*
G54D28*
X54000Y-49400D03*
G54D29*
X54000Y-48400D03*
G54D15*
X58400Y-61350D03*
G54D16*
X55400Y-57600D03*
G54D17*
X56900Y-56100D03*
G54D16*
X58400Y-57850D03*
G54D17*
X60400Y-59850D03*
G54D15*
X55400Y-59350D03*
G54D20*
X66250Y-62000D03*
X67250Y-62000D03*
X68250Y-62000D03*
X69250Y-62000D03*
X70250Y-62000D03*
X71250Y-62000D03*
X72250Y-62000D03*
X73250Y-62000D03*
X74250Y-62000D03*
X75250Y-62000D03*
X75250Y-59000D03*
X74250Y-59000D03*
X73250Y-59000D03*
X72250Y-59000D03*
X71250Y-59000D03*
X70250Y-59000D03*
X69250Y-59000D03*
X68250Y-59000D03*
X67250Y-59000D03*
X66250Y-59000D03*
G54D30*
X42500Y-34300D03*
X42500Y-40200D03*
X47250Y-34300D03*
X47250Y-40200D03*
X52000Y-34300D03*
X52000Y-40200D03*
X56750Y-34300D03*
X56750Y-40200D03*
X61500Y-34300D03*
X61500Y-40200D03*
X66250Y-34300D03*
X66250Y-40200D03*
X71000Y-34300D03*
X71000Y-40200D03*
X75750Y-34300D03*
X75750Y-40200D03*
G54D25*
X49900Y-33900D03*
X49900Y-36900D03*
X49900Y-37750D03*
X49900Y-40750D03*
X45150Y-37750D03*
X45150Y-40750D03*
X40400Y-37750D03*
X40400Y-40750D03*
X54650Y-37750D03*
X54650Y-40750D03*
X59400Y-37750D03*
X59400Y-40750D03*
X64150Y-37750D03*
X64150Y-40750D03*
X68900Y-37750D03*
X68900Y-40750D03*
X73650Y-37750D03*
X73650Y-40750D03*
X40400Y-33900D03*
X40400Y-36900D03*
X45150Y-33900D03*
X45150Y-36900D03*
X54650Y-33900D03*
X54650Y-36900D03*
X59400Y-33900D03*
X59400Y-36900D03*
X64150Y-33900D03*
X64150Y-36900D03*
X68900Y-33900D03*
X68900Y-36900D03*
X73650Y-33900D03*
X73650Y-36900D03*
G54D20*
X49950Y-53450D03*
X47950Y-53450D03*
G54D23*
X59000Y-51900D03*
X59000Y-51300D03*
X62100Y-49900D03*
X62100Y-50500D03*
G54D21*
X56325Y-47400D03*
G54D20*
X56325Y-48400D03*
X56325Y-49400D03*
G54D31*
X60825Y-48400D03*
X60825Y-47400D03*
X63275Y-47400D03*
X63275Y-48400D03*
G54D32*
X46500Y-28500D03*
X48500Y-28500D03*
X52500Y-28500D03*
X54500Y-28500D03*
X65800Y-28500D03*
X67800Y-28500D03*
X71800Y-28500D03*
X73800Y-28500D03*
G54D24*
X43550Y-46050D03*
G54D25*
X44550Y-46050D03*
G54D33*
X77900Y-24750D03*
G54D12*
X46800Y-24400D03*
X46800Y-26400D03*
X49400Y-24400D03*
X49400Y-26400D03*
X52000Y-24400D03*
X52000Y-26400D03*
X54600Y-24400D03*
X54600Y-26400D03*
X57200Y-24400D03*
X57200Y-26400D03*
G54D34*
X43175Y-53500D03*
X41675Y-52500D03*
X41675Y-54500D03*
G54D30*
X64250Y-56000D03*
X64250Y-53500D03*
X64250Y-48500D03*
X64250Y-51000D03*
X76250Y-51000D03*
X76250Y-48500D03*
X76250Y-53500D03*
X76250Y-56000D03*
G54D33*
X41100Y-24750D03*
X77900Y-60500D03*
X41100Y-60500D03*
G54D23*
X62850Y-51900D03*
X62850Y-51300D03*
G54D35*
X45300Y-49300D03*
X56300Y-51400D03*
X50600Y-45500D03*
X50000Y-46700D03*
X49600Y-51300D03*
X42250Y-49000D03*
X47350Y-45950D03*
X48500Y-48450D03*
X54300Y-46700D03*
X50950Y-48050D03*
X54900Y-46150D03*
X51750Y-46150D03*
X54600Y-47100D03*
X50550Y-48300D03*
X55050Y-51100D03*
X51450Y-51100D03*
X59500Y-54100D03*
X47050Y-54450D03*
X44000Y-49700D03*
X46200Y-49700D03*
X51600Y-46700D03*
X53700Y-46700D03*
X46950Y-46300D03*
X48500Y-48950D03*
G54D36*
X43175Y-53500D02*
X42675Y-53500D01*
X42675Y-53500D02*
X41675Y-52500D01*
X43250Y-51850D02*
X42325Y-51850D01*
X42325Y-51850D02*
X41675Y-52500D01*
G54D37*
X45200Y-51850D02*
X45450Y-52100D01*
X43250Y-51850D02*
X45200Y-51850D01*
G54D36*
X56325Y-49400D02*
X57050Y-49400D01*
G54D38*
X60400Y-51900D02*
X60750Y-52250D01*
G54D36*
X58200Y-50550D02*
X58200Y-51550D01*
G54D37*
X50600Y-46200D02*
X50600Y-45500D01*
X50315Y-46885D02*
X50600Y-46600D01*
G54D36*
X57050Y-49400D02*
X58200Y-50550D01*
X58200Y-51550D02*
X58550Y-51900D01*
X58550Y-51900D02*
X59000Y-51900D01*
G54D38*
X59000Y-51900D02*
X60400Y-51900D01*
G54D39*
X56300Y-51400D02*
X56325Y-51375D01*
G54D37*
X45450Y-52100D02*
X45450Y-52450D01*
G54D36*
X43650Y-49300D02*
X45300Y-49300D01*
G54D38*
X60750Y-52250D02*
X60750Y-52650D01*
G54D37*
X50600Y-46600D02*
X50600Y-46200D01*
X50315Y-47350D02*
X50315Y-46885D01*
G54D36*
X43250Y-49700D02*
X43650Y-49300D01*
X43250Y-51850D02*
X43250Y-49700D01*
G54D40*
X54000Y-49400D02*
X56325Y-49400D01*
G54D39*
X56325Y-51375D02*
X56325Y-49400D01*
G54D38*
X60200Y-51300D02*
X59400Y-51300D01*
G54D39*
X60825Y-48400D02*
X59275Y-48400D01*
G54D37*
X43250Y-52450D02*
X43950Y-52450D01*
G54D40*
X59275Y-48400D02*
X56325Y-48400D01*
G54D38*
X49685Y-51435D02*
X49685Y-51850D01*
G54D36*
X59750Y-49800D02*
X59550Y-49800D01*
G54D39*
X60250Y-58900D02*
X59850Y-58500D01*
X71250Y-62000D02*
X70250Y-62000D01*
G54D38*
X59750Y-50550D02*
X59750Y-49800D01*
G54D37*
X49600Y-51300D02*
X49625Y-51325D01*
G54D36*
X43950Y-55530D02*
X44270Y-55850D01*
X59275Y-49525D02*
X59275Y-48400D01*
G54D39*
X64250Y-58900D02*
X60250Y-58900D01*
X66250Y-60900D02*
X66250Y-62000D01*
G54D38*
X48150Y-51450D02*
X48300Y-51300D01*
X62100Y-51900D02*
X60800Y-51900D01*
X48550Y-55150D02*
X48700Y-55300D01*
G54D37*
X50000Y-46700D02*
X50000Y-46200D01*
G54D39*
X54000Y-48400D02*
X56325Y-48400D01*
G54D38*
X50750Y-54800D02*
X50550Y-54800D01*
X48550Y-54800D02*
X48550Y-55150D01*
X48300Y-51300D02*
X49550Y-51300D01*
X49685Y-51850D02*
X49685Y-52235D01*
G54D36*
X43950Y-52450D02*
X43950Y-55530D01*
G54D39*
X75250Y-62000D02*
X74250Y-62000D01*
G54D38*
X48700Y-55300D02*
X50400Y-55300D01*
G54D39*
X66250Y-60900D02*
X64250Y-58900D01*
G54D38*
X51000Y-53550D02*
X51000Y-54550D01*
X60800Y-51900D02*
X60200Y-51300D01*
X59000Y-51300D02*
X59400Y-51300D01*
X62100Y-51900D02*
X62850Y-51900D01*
G54D39*
X67250Y-62000D02*
X66250Y-62000D01*
G54D38*
X50400Y-55300D02*
X50550Y-55150D01*
X59750Y-50950D02*
X59750Y-50550D01*
G54D37*
X49625Y-51325D02*
X49625Y-51375D01*
G54D38*
X59400Y-51300D02*
X59750Y-50950D01*
X50550Y-55150D02*
X50550Y-54800D01*
G54D39*
X59200Y-57850D02*
X59850Y-58500D01*
X58400Y-57850D02*
X59200Y-57850D01*
G54D38*
X49550Y-51300D02*
X49625Y-51375D01*
X49685Y-52235D02*
X51000Y-53550D01*
G54D39*
X72250Y-62000D02*
X71250Y-62000D01*
G54D36*
X59550Y-49800D02*
X59275Y-49525D01*
G54D39*
X74250Y-62000D02*
X73250Y-62000D01*
X68250Y-62000D02*
X67250Y-62000D01*
X73250Y-62000D02*
X72250Y-62000D01*
X69250Y-62000D02*
X68250Y-62000D01*
G54D38*
X51000Y-54550D02*
X50750Y-54800D01*
X49625Y-51375D02*
X49685Y-51435D01*
G54D39*
X70250Y-62000D02*
X69250Y-62000D01*
G54D38*
X46900Y-51450D02*
X48150Y-51450D01*
G54D40*
X71250Y-25050D02*
X71250Y-26000D01*
X77350Y-46900D02*
X76250Y-48000D01*
X78750Y-29500D02*
X76000Y-26750D01*
X72000Y-26750D02*
X71250Y-26000D01*
X77350Y-46900D02*
X78750Y-45500D01*
G54D41*
X44200Y-24400D02*
X70600Y-24400D01*
G54D40*
X76000Y-26750D02*
X72000Y-26750D01*
G54D41*
X70600Y-24400D02*
X71250Y-25050D01*
G54D40*
X76250Y-48000D02*
X76250Y-48500D01*
X78750Y-45500D02*
X78750Y-29500D01*
G54D38*
X41360Y-48340D02*
X40550Y-48900D01*
X47750Y-48340D02*
X41360Y-48340D01*
X42280Y-48970D02*
X47750Y-48970D01*
X42250Y-49000D02*
X42280Y-48970D01*
X45450Y-50350D02*
X45450Y-49750D01*
X45915Y-49285D02*
X47750Y-49285D01*
X45450Y-49750D02*
X45915Y-49285D01*
X48705Y-48655D02*
X48500Y-48450D01*
X47350Y-45950D02*
X47350Y-45500D01*
X52250Y-48655D02*
X48705Y-48655D01*
X49370Y-47350D02*
X49370Y-46970D01*
X48900Y-46500D02*
X48350Y-46500D01*
X48200Y-46350D02*
X48200Y-46050D01*
X49370Y-46970D02*
X48900Y-46500D01*
X48350Y-46500D02*
X48200Y-46350D01*
X44950Y-52450D02*
X44950Y-54350D01*
X44950Y-54350D02*
X45450Y-54850D01*
X45450Y-54850D02*
X46270Y-54850D01*
X46270Y-54850D02*
X47270Y-55850D01*
G54D42*
X56000Y-29700D02*
X57000Y-30700D01*
X54700Y-26400D02*
X56000Y-27700D01*
X57000Y-30700D02*
X59950Y-30700D01*
X56000Y-27700D02*
X56000Y-29700D01*
X59950Y-30700D02*
X61500Y-32250D01*
X54600Y-26400D02*
X54700Y-26400D01*
X65750Y-30800D02*
X68900Y-30800D01*
X64450Y-29500D02*
X65750Y-30800D01*
X62400Y-29500D02*
X64450Y-29500D01*
X59800Y-26900D02*
X62400Y-29500D01*
X68900Y-30800D02*
X70350Y-32250D01*
X70350Y-32250D02*
X71000Y-32250D01*
X59800Y-26400D02*
X59800Y-26900D01*
G54D38*
X69900Y-45500D02*
X66500Y-45500D01*
X50945Y-48045D02*
X50945Y-47350D01*
X55250Y-46300D02*
X54850Y-46700D01*
X61850Y-45950D02*
X61500Y-46300D01*
X66500Y-45500D02*
X66050Y-45950D01*
X50950Y-48050D02*
X50945Y-48045D01*
X66050Y-45950D02*
X61850Y-45950D01*
X57250Y-46300D02*
X55250Y-46300D01*
X54850Y-46700D02*
X54300Y-46700D01*
X61500Y-46300D02*
X57250Y-46300D01*
X52775Y-48025D02*
X53300Y-47500D01*
X52250Y-48025D02*
X52775Y-48025D01*
X53300Y-47500D02*
X53300Y-45500D01*
X55025Y-46025D02*
X54900Y-46150D01*
X51750Y-46150D02*
X51500Y-46150D01*
X65150Y-45475D02*
X61875Y-45475D01*
X51260Y-46390D02*
X51260Y-47350D01*
X51500Y-46150D02*
X51260Y-46390D01*
X61325Y-46025D02*
X55025Y-46025D01*
X61875Y-45475D02*
X61325Y-46025D01*
X48740Y-47350D02*
X48740Y-46940D01*
X48550Y-46750D02*
X46100Y-46750D01*
X48740Y-46940D02*
X48550Y-46750D01*
X54900Y-47100D02*
X54600Y-47100D01*
X70800Y-46000D02*
X66400Y-46000D01*
X57400Y-46550D02*
X55450Y-46550D01*
X50550Y-48300D02*
X50550Y-48000D01*
X71300Y-45500D02*
X70800Y-46000D01*
X66400Y-46000D02*
X66200Y-46200D01*
X62050Y-46200D02*
X61700Y-46550D01*
X55450Y-46550D02*
X54900Y-47100D01*
X61700Y-46550D02*
X57400Y-46550D01*
X66200Y-46200D02*
X62050Y-46200D01*
X50550Y-48000D02*
X50630Y-47920D01*
X50630Y-47920D02*
X50630Y-47350D01*
X74650Y-45500D02*
X71300Y-45500D01*
X60750Y-50550D02*
X60750Y-50000D01*
X60550Y-49800D02*
X60350Y-49800D01*
X60750Y-50000D02*
X60550Y-49800D01*
X55050Y-51100D02*
X56050Y-52100D01*
X60250Y-53150D02*
X60250Y-52650D01*
X56050Y-52100D02*
X57600Y-52100D01*
X59900Y-53500D02*
X60250Y-53150D01*
X47750Y-50545D02*
X50895Y-50545D01*
X57600Y-52100D02*
X59000Y-53500D01*
X50895Y-50545D02*
X51450Y-51100D01*
X59000Y-53500D02*
X59900Y-53500D01*
X47750Y-50860D02*
X46910Y-50860D01*
X46910Y-50860D02*
X46900Y-50850D01*
X40925Y-48025D02*
X40550Y-47900D01*
X47750Y-48025D02*
X40925Y-48025D01*
X62100Y-51300D02*
X60600Y-51300D01*
X62100Y-50500D02*
X62100Y-51300D01*
X60250Y-50950D02*
X60250Y-50550D01*
X60600Y-51300D02*
X60250Y-50950D01*
G54D36*
X59400Y-33850D02*
X60000Y-33250D01*
X66750Y-33250D02*
X67250Y-32750D01*
X68900Y-33850D02*
X69500Y-33250D01*
X73650Y-33900D02*
X73650Y-33850D01*
X62000Y-33250D02*
X62500Y-32750D01*
X76750Y-32750D02*
X76750Y-32250D01*
X74250Y-33250D02*
X76250Y-33250D01*
X67250Y-32750D02*
X67250Y-32250D01*
X68900Y-33900D02*
X68900Y-33850D01*
X76250Y-33250D02*
X76750Y-32750D01*
X64150Y-33900D02*
X64150Y-33850D01*
X59400Y-33900D02*
X59400Y-33850D01*
X73650Y-33850D02*
X74250Y-33250D01*
X64750Y-33250D02*
X66750Y-33250D01*
X64150Y-33850D02*
X64750Y-33250D01*
X71500Y-33250D02*
X72000Y-32750D01*
X60000Y-33250D02*
X62000Y-33250D01*
X69500Y-33250D02*
X71500Y-33250D01*
X62500Y-32750D02*
X62500Y-32250D01*
X72000Y-32750D02*
X72000Y-32250D01*
G54D38*
X49200Y-46450D02*
X49200Y-46050D01*
X49685Y-47350D02*
X49685Y-46935D01*
X49685Y-46935D02*
X49200Y-46450D01*
X65750Y-58500D02*
X66250Y-59000D01*
X57200Y-55350D02*
X53300Y-55350D01*
X50315Y-51850D02*
X50315Y-52365D01*
X65750Y-58500D02*
X60350Y-58500D01*
X60350Y-58500D02*
X57200Y-55350D01*
X50315Y-52365D02*
X53300Y-55350D01*
X59300Y-54500D02*
X57900Y-53100D01*
X52915Y-49915D02*
X52250Y-49915D01*
X64800Y-54500D02*
X59300Y-54500D01*
X72500Y-56250D02*
X66550Y-56250D01*
X66550Y-56250D02*
X64800Y-54500D01*
X57900Y-53100D02*
X56100Y-53100D01*
X56100Y-53100D02*
X55200Y-52200D01*
X75250Y-59000D02*
X72500Y-56250D01*
X55200Y-52200D02*
X52915Y-49915D01*
X66300Y-56750D02*
X64550Y-55000D01*
X59200Y-55000D02*
X57800Y-53600D01*
X55900Y-53600D02*
X55000Y-52700D01*
X71000Y-56750D02*
X66300Y-56750D01*
X64550Y-55000D02*
X59200Y-55000D01*
X52845Y-50545D02*
X52250Y-50545D01*
X55000Y-52700D02*
X52845Y-50545D01*
X73250Y-59000D02*
X71000Y-56750D01*
X57800Y-53600D02*
X55900Y-53600D01*
X54900Y-52950D02*
X52810Y-50860D01*
X70250Y-57000D02*
X72250Y-59000D01*
X72250Y-59000D02*
X72250Y-59000D01*
X60850Y-57000D02*
X57700Y-53850D01*
X57700Y-53850D02*
X55800Y-53850D01*
X70250Y-57000D02*
X60850Y-57000D01*
X52250Y-50860D02*
X52810Y-50860D01*
X55800Y-53850D02*
X54900Y-52950D01*
X60750Y-57250D02*
X57600Y-54100D01*
X55700Y-54100D02*
X54800Y-53200D01*
X54800Y-53200D02*
X52775Y-51175D01*
X71250Y-59000D02*
X69500Y-57250D01*
X71250Y-59000D02*
X71250Y-59000D01*
X52775Y-51175D02*
X52250Y-51175D01*
X57600Y-54100D02*
X55700Y-54100D01*
X69500Y-57250D02*
X60750Y-57250D01*
X70250Y-58800D02*
X70250Y-59000D01*
X70250Y-58800D02*
X68950Y-57500D01*
X68950Y-57500D02*
X60700Y-57500D01*
X51575Y-52225D02*
X53700Y-54350D01*
X57550Y-54350D02*
X53700Y-54350D01*
X60700Y-57500D02*
X57550Y-54350D01*
X51575Y-51850D02*
X51575Y-52225D01*
X69250Y-59000D02*
X69250Y-59000D01*
X51260Y-52260D02*
X53600Y-54600D01*
X68000Y-57750D02*
X60625Y-57750D01*
X60625Y-57750D02*
X57475Y-54600D01*
X57475Y-54600D02*
X53600Y-54600D01*
X68000Y-57750D02*
X69250Y-59000D01*
X51260Y-51850D02*
X51260Y-52260D01*
X57375Y-54850D02*
X53500Y-54850D01*
X68250Y-58850D02*
X68250Y-59000D01*
X67400Y-58000D02*
X60525Y-58000D01*
X50945Y-51850D02*
X50945Y-52295D01*
X60525Y-58000D02*
X57375Y-54850D01*
X50945Y-52295D02*
X53500Y-54850D01*
X68250Y-58850D02*
X67400Y-58000D01*
X66500Y-58250D02*
X67250Y-59000D01*
X66500Y-58250D02*
X60450Y-58250D01*
X50630Y-52330D02*
X53400Y-55100D01*
X67250Y-59000D02*
X67250Y-59000D01*
X50630Y-51850D02*
X50630Y-52330D01*
X57300Y-55100D02*
X53400Y-55100D01*
X60450Y-58250D02*
X57300Y-55100D01*
X70500Y-44500D02*
X70500Y-45500D01*
X52635Y-49285D02*
X55925Y-52575D01*
X55925Y-52575D02*
X56550Y-52575D01*
X52250Y-49285D02*
X52635Y-49285D01*
X47950Y-54800D02*
X47950Y-53450D01*
X49055Y-51850D02*
X49055Y-52345D01*
X49055Y-52345D02*
X47950Y-53450D01*
X57700Y-52575D02*
X59225Y-54100D01*
X57150Y-52575D02*
X57700Y-52575D01*
X59225Y-54100D02*
X59500Y-54100D01*
X45650Y-54000D02*
X45650Y-54250D01*
X45650Y-54250D02*
X45850Y-54450D01*
X45850Y-54450D02*
X47050Y-54450D01*
X45650Y-53100D02*
X45650Y-53400D01*
X48550Y-52450D02*
X46300Y-52450D01*
X48740Y-52260D02*
X48550Y-52450D01*
X46300Y-52450D02*
X45650Y-53100D01*
X48740Y-51850D02*
X48740Y-52260D01*
X49950Y-53450D02*
X49950Y-52900D01*
X49950Y-52900D02*
X49370Y-52320D01*
X49370Y-52320D02*
X49370Y-51850D01*
X49950Y-54800D02*
X49950Y-53450D01*
X61000Y-44500D02*
X61000Y-45475D01*
X42000Y-44500D02*
X42000Y-45500D01*
G54D42*
X68400Y-26400D02*
X70000Y-28000D01*
X74300Y-30800D02*
X75750Y-32250D01*
X71200Y-30800D02*
X74300Y-30800D01*
X62400Y-26400D02*
X68400Y-26400D01*
X70000Y-29600D02*
X71200Y-30800D01*
X70000Y-28000D02*
X70000Y-29600D01*
G54D38*
X75250Y-44500D02*
X75250Y-45500D01*
X56250Y-44500D02*
X56250Y-45050D01*
X55800Y-45500D02*
X53900Y-45500D01*
X56250Y-45050D02*
X55800Y-45500D01*
G54D42*
X52100Y-30700D02*
X55200Y-30700D01*
X55200Y-30700D02*
X56750Y-32250D01*
X51100Y-27600D02*
X51100Y-29700D01*
X52000Y-26400D02*
X52000Y-26700D01*
X52000Y-26700D02*
X51100Y-27600D01*
X51100Y-29700D02*
X52100Y-30700D01*
X65450Y-32250D02*
X66250Y-32250D01*
X57200Y-26400D02*
X57200Y-29100D01*
X57550Y-29450D02*
X60550Y-29450D01*
X60550Y-29450D02*
X61900Y-30800D01*
X57200Y-29100D02*
X57550Y-29450D01*
X61900Y-30800D02*
X64000Y-30800D01*
X64000Y-30800D02*
X65450Y-32250D01*
G54D38*
X65750Y-44500D02*
X65750Y-45475D01*
G54D36*
X43500Y-32250D02*
X43500Y-32900D01*
X55250Y-33250D02*
X57250Y-33250D01*
X54650Y-33900D02*
X54650Y-33850D01*
X49900Y-33900D02*
X49900Y-33850D01*
X45150Y-33900D02*
X45150Y-33850D01*
X45750Y-33250D02*
X47750Y-33250D01*
X52500Y-33250D02*
X53000Y-32750D01*
X57250Y-33250D02*
X57750Y-32750D01*
X48250Y-32750D02*
X48250Y-32250D01*
X45150Y-33850D02*
X45750Y-33250D01*
X53000Y-32750D02*
X53000Y-32250D01*
X43500Y-32900D02*
X43150Y-33250D01*
X41050Y-33250D02*
X40400Y-33900D01*
X47750Y-33250D02*
X48250Y-32750D01*
X54650Y-33850D02*
X55250Y-33250D01*
X50500Y-33250D02*
X52500Y-33250D01*
X43150Y-33250D02*
X41050Y-33250D01*
X57750Y-32750D02*
X57750Y-32250D01*
X49900Y-33850D02*
X50500Y-33250D01*
G54D38*
X51500Y-44500D02*
X51500Y-45500D01*
X44950Y-50750D02*
X45100Y-50900D01*
X44950Y-50350D02*
X44450Y-50350D01*
X45700Y-50900D02*
X46370Y-50230D01*
X46370Y-50230D02*
X47750Y-50230D01*
X45100Y-50900D02*
X45700Y-50900D01*
X44950Y-50350D02*
X44950Y-50750D01*
X44000Y-49700D02*
X43950Y-49750D01*
X47750Y-49915D02*
X46415Y-49915D01*
X46415Y-49915D02*
X46200Y-49700D01*
X43950Y-49750D02*
X43950Y-50350D01*
X44450Y-54530D02*
X45770Y-55850D01*
X44450Y-52450D02*
X44450Y-54530D01*
X46750Y-44500D02*
X46750Y-45500D01*
G54D42*
X46400Y-26400D02*
X44600Y-28200D01*
X44600Y-28200D02*
X44600Y-29600D01*
X46800Y-26400D02*
X46400Y-26400D01*
X44600Y-29600D02*
X47250Y-32250D01*
X44200Y-26400D02*
X43800Y-26400D01*
X43800Y-26400D02*
X42500Y-27700D01*
X42500Y-28150D02*
X42500Y-32250D01*
X42500Y-27700D02*
X42500Y-28150D01*
X49400Y-26400D02*
X49400Y-27100D01*
X49400Y-27100D02*
X49900Y-27600D01*
X49900Y-30500D02*
X51650Y-32250D01*
X51650Y-32250D02*
X52000Y-32250D01*
X49900Y-27600D02*
X49900Y-30500D01*
G54D38*
X51600Y-46700D02*
X51575Y-46725D01*
X54750Y-45750D02*
X53800Y-46700D01*
X55900Y-45750D02*
X54750Y-45750D01*
X60400Y-45475D02*
X56175Y-45475D01*
X56175Y-45475D02*
X55900Y-45750D01*
X53800Y-46700D02*
X53700Y-46700D01*
X51575Y-46725D02*
X51575Y-47350D01*
X51640Y-48340D02*
X52250Y-48340D01*
X51550Y-48250D02*
X51640Y-48340D01*
X52100Y-47500D02*
X51550Y-48050D01*
X52100Y-45500D02*
X52100Y-47500D01*
X51550Y-48050D02*
X51550Y-48250D01*
X46700Y-46300D02*
X46950Y-46300D01*
X48870Y-48970D02*
X52250Y-48970D01*
X48500Y-48950D02*
X48870Y-48970D01*
X45900Y-45500D02*
X46700Y-46300D01*
X42600Y-45500D02*
X45900Y-45500D01*
G54D39*
X63275Y-50025D02*
X64250Y-51000D01*
X63275Y-48400D02*
X63275Y-50025D01*
G54D38*
X62100Y-49000D02*
X62700Y-48400D01*
X62100Y-49900D02*
X62100Y-49000D01*
X62700Y-48400D02*
X63275Y-48400D01*
X47750Y-48655D02*
X42045Y-48655D01*
X42045Y-48655D02*
X40550Y-49900D01*
X44850Y-46750D02*
X44550Y-46450D01*
X44550Y-46450D02*
X44550Y-46050D01*
X45500Y-46750D02*
X44850Y-46750D01*
X63600Y-51700D02*
X63600Y-52850D01*
X63200Y-51300D02*
X63600Y-51700D01*
G54D39*
X63275Y-47400D02*
X63925Y-47400D01*
X63925Y-47400D02*
X64250Y-47725D01*
G54D38*
X63600Y-52850D02*
X64250Y-53500D01*
G54D39*
X64250Y-47725D02*
X64250Y-48500D01*
G54D38*
X62850Y-51300D02*
X63200Y-51300D01*
G54D40*
X59275Y-47400D02*
X56325Y-47400D01*
G54D39*
X60825Y-47400D02*
X59275Y-47400D01*
G54D38*
X71750Y-56500D02*
X74250Y-59000D01*
X55100Y-52450D02*
X52880Y-50230D01*
X57850Y-53350D02*
X56000Y-53350D01*
X66450Y-56500D02*
X64700Y-54750D01*
X52250Y-50230D02*
X52880Y-50230D01*
X71750Y-56500D02*
X66450Y-56500D01*
X59250Y-54750D02*
X57850Y-53350D01*
X64700Y-54750D02*
X59250Y-54750D01*
X74250Y-59000D02*
X74250Y-59000D01*
X56000Y-53350D02*
X55100Y-52450D01*
M02*
