G04 (created by PCBNEW (2013-07-07 BZR 4022)-stable) date 06/01/2015 12:36:27*
%MOIN*%
G04 Gerber Fmt 3.4, Leading zero omitted, Abs format*
%FSLAX34Y34*%
G01*
G70*
G90*
G04 APERTURE LIST*
%ADD10C,0.00590551*%
%ADD11C,0.01*%
%ADD12C,0.008*%
%ADD13C,0.015*%
%ADD14C,0.025*%
G04 APERTURE END LIST*
G54D10*
G54D11*
X70442Y-46264D02*
X71042Y-46397D01*
X70442Y-46530D01*
X71042Y-46873D02*
X71042Y-46645D01*
X71042Y-46759D02*
X70442Y-46759D01*
X70528Y-46721D01*
X70585Y-46683D01*
X70614Y-46645D01*
X70985Y-47045D02*
X71014Y-47064D01*
X71042Y-47045D01*
X71014Y-47026D01*
X70985Y-47045D01*
X71042Y-47045D01*
X70442Y-47311D02*
X70442Y-47350D01*
X70471Y-47388D01*
X70500Y-47407D01*
X70557Y-47426D01*
X70671Y-47445D01*
X70814Y-47445D01*
X70928Y-47426D01*
X70985Y-47407D01*
X71014Y-47388D01*
X71042Y-47350D01*
X71042Y-47311D01*
X71014Y-47273D01*
X70985Y-47254D01*
X70928Y-47235D01*
X70814Y-47216D01*
X70671Y-47216D01*
X70557Y-47235D01*
X70500Y-47254D01*
X70471Y-47273D01*
X70442Y-47311D01*
X70585Y-48245D02*
X70557Y-48207D01*
X70557Y-48130D01*
X70585Y-48092D01*
X70642Y-48054D01*
X70700Y-48035D01*
X70814Y-48035D01*
X70871Y-48054D01*
X70928Y-48092D01*
X70957Y-48130D01*
X70957Y-48207D01*
X70928Y-48245D01*
X70357Y-48169D02*
X70385Y-48073D01*
X70471Y-47978D01*
X70614Y-47921D01*
X70757Y-47902D01*
X70900Y-47921D01*
X71042Y-47978D01*
X71128Y-48073D01*
X71157Y-48169D01*
X71128Y-48264D01*
X71042Y-48359D01*
X70900Y-48416D01*
X70757Y-48435D01*
X70614Y-48416D01*
X70471Y-48359D01*
X70385Y-48264D01*
X70357Y-48169D01*
X70500Y-48892D02*
X70471Y-48911D01*
X70442Y-48950D01*
X70442Y-49045D01*
X70471Y-49083D01*
X70500Y-49102D01*
X70557Y-49121D01*
X70614Y-49121D01*
X70700Y-49102D01*
X71042Y-48873D01*
X71042Y-49121D01*
X70442Y-49369D02*
X70442Y-49407D01*
X70471Y-49445D01*
X70500Y-49464D01*
X70557Y-49483D01*
X70671Y-49502D01*
X70814Y-49502D01*
X70928Y-49483D01*
X70985Y-49464D01*
X71014Y-49445D01*
X71042Y-49407D01*
X71042Y-49369D01*
X71014Y-49330D01*
X70985Y-49311D01*
X70928Y-49292D01*
X70814Y-49273D01*
X70671Y-49273D01*
X70557Y-49292D01*
X70500Y-49311D01*
X70471Y-49330D01*
X70442Y-49369D01*
X71042Y-49883D02*
X71042Y-49654D01*
X71042Y-49769D02*
X70442Y-49769D01*
X70528Y-49730D01*
X70585Y-49692D01*
X70614Y-49654D01*
X70442Y-50245D02*
X70442Y-50054D01*
X70728Y-50035D01*
X70700Y-50054D01*
X70671Y-50092D01*
X70671Y-50188D01*
X70700Y-50226D01*
X70728Y-50245D01*
X70785Y-50264D01*
X70928Y-50264D01*
X70985Y-50245D01*
X71014Y-50226D01*
X71042Y-50188D01*
X71042Y-50092D01*
X71014Y-50054D01*
X70985Y-50035D01*
X71014Y-50721D02*
X71042Y-50778D01*
X71042Y-50873D01*
X71014Y-50911D01*
X70985Y-50930D01*
X70928Y-50950D01*
X70871Y-50950D01*
X70814Y-50930D01*
X70785Y-50911D01*
X70757Y-50873D01*
X70728Y-50797D01*
X70700Y-50759D01*
X70671Y-50740D01*
X70614Y-50721D01*
X70557Y-50721D01*
X70500Y-50740D01*
X70471Y-50759D01*
X70442Y-50797D01*
X70442Y-50892D01*
X70471Y-50950D01*
X70642Y-51064D02*
X70642Y-51216D01*
X70442Y-51121D02*
X70957Y-51121D01*
X71014Y-51140D01*
X71042Y-51178D01*
X71042Y-51216D01*
X70642Y-51521D02*
X71042Y-51521D01*
X70642Y-51350D02*
X70957Y-51350D01*
X71014Y-51369D01*
X71042Y-51407D01*
X71042Y-51464D01*
X71014Y-51502D01*
X70985Y-51521D01*
X71042Y-51883D02*
X70728Y-51883D01*
X70671Y-51864D01*
X70642Y-51826D01*
X70642Y-51750D01*
X70671Y-51711D01*
X71014Y-51883D02*
X71042Y-51845D01*
X71042Y-51750D01*
X71014Y-51711D01*
X70957Y-51692D01*
X70900Y-51692D01*
X70842Y-51711D01*
X70814Y-51750D01*
X70814Y-51845D01*
X70785Y-51883D01*
X71042Y-52073D02*
X70642Y-52073D01*
X70757Y-52073D02*
X70700Y-52092D01*
X70671Y-52111D01*
X70642Y-52150D01*
X70642Y-52188D01*
X70642Y-52264D02*
X70642Y-52416D01*
X70442Y-52321D02*
X70957Y-52321D01*
X71014Y-52340D01*
X71042Y-52378D01*
X71042Y-52416D01*
X70442Y-52797D02*
X70442Y-53026D01*
X71042Y-52911D02*
X70442Y-52911D01*
X71042Y-53330D02*
X70728Y-53330D01*
X70671Y-53311D01*
X70642Y-53273D01*
X70642Y-53197D01*
X70671Y-53159D01*
X71014Y-53330D02*
X71042Y-53292D01*
X71042Y-53197D01*
X71014Y-53159D01*
X70957Y-53140D01*
X70900Y-53140D01*
X70842Y-53159D01*
X70814Y-53197D01*
X70814Y-53292D01*
X70785Y-53330D01*
X70642Y-53483D02*
X71042Y-53578D01*
X70642Y-53673D02*
X71042Y-53578D01*
X71185Y-53540D01*
X71214Y-53521D01*
X71242Y-53483D01*
X71042Y-53883D02*
X71014Y-53845D01*
X70957Y-53826D01*
X70442Y-53826D01*
X71042Y-54092D02*
X71014Y-54054D01*
X70985Y-54035D01*
X70928Y-54016D01*
X70757Y-54016D01*
X70700Y-54035D01*
X70671Y-54054D01*
X70642Y-54092D01*
X70642Y-54149D01*
X70671Y-54188D01*
X70700Y-54207D01*
X70757Y-54226D01*
X70928Y-54226D01*
X70985Y-54207D01*
X71014Y-54188D01*
X71042Y-54149D01*
X71042Y-54092D01*
X71042Y-54397D02*
X70642Y-54397D01*
X70757Y-54397D02*
X70700Y-54416D01*
X70671Y-54435D01*
X70642Y-54473D01*
X70642Y-54511D01*
X70757Y-55197D02*
X70728Y-55178D01*
X70700Y-55140D01*
X70700Y-55102D01*
X70728Y-55064D01*
X70757Y-55045D01*
X70814Y-55026D01*
X70871Y-55026D01*
X70928Y-55045D01*
X70957Y-55064D01*
X70985Y-55102D01*
X70985Y-55140D01*
X70957Y-55178D01*
X70928Y-55197D01*
X70700Y-55197D02*
X70928Y-55197D01*
X70957Y-55216D01*
X70957Y-55235D01*
X70928Y-55273D01*
X70871Y-55292D01*
X70728Y-55292D01*
X70642Y-55254D01*
X70585Y-55197D01*
X70557Y-55121D01*
X70585Y-55045D01*
X70642Y-54988D01*
X70728Y-54949D01*
X70842Y-54930D01*
X70957Y-54949D01*
X71042Y-54988D01*
X71100Y-55045D01*
X71128Y-55121D01*
X71100Y-55197D01*
X71042Y-55254D01*
X71042Y-55464D02*
X70442Y-55464D01*
X71042Y-55635D02*
X70728Y-55635D01*
X70671Y-55616D01*
X70642Y-55578D01*
X70642Y-55521D01*
X70671Y-55483D01*
X70700Y-55464D01*
X71014Y-55807D02*
X71042Y-55845D01*
X71042Y-55921D01*
X71014Y-55959D01*
X70957Y-55978D01*
X70928Y-55978D01*
X70871Y-55959D01*
X70842Y-55921D01*
X70842Y-55864D01*
X70814Y-55826D01*
X70757Y-55807D01*
X70728Y-55807D01*
X70671Y-55826D01*
X70642Y-55864D01*
X70642Y-55921D01*
X70671Y-55959D01*
X71042Y-56149D02*
X70642Y-56149D01*
X70442Y-56149D02*
X70471Y-56130D01*
X70500Y-56149D01*
X70471Y-56169D01*
X70442Y-56149D01*
X70500Y-56149D01*
X71042Y-56340D02*
X70442Y-56340D01*
X70671Y-56340D02*
X70642Y-56378D01*
X70642Y-56454D01*
X70671Y-56492D01*
X70700Y-56511D01*
X70757Y-56530D01*
X70928Y-56530D01*
X70985Y-56511D01*
X71014Y-56492D01*
X71042Y-56454D01*
X71042Y-56378D01*
X71014Y-56340D01*
X71042Y-56759D02*
X71014Y-56721D01*
X70985Y-56702D01*
X70928Y-56683D01*
X70757Y-56683D01*
X70700Y-56702D01*
X70671Y-56721D01*
X70642Y-56759D01*
X70642Y-56816D01*
X70671Y-56854D01*
X70700Y-56873D01*
X70757Y-56892D01*
X70928Y-56892D01*
X70985Y-56873D01*
X71014Y-56854D01*
X71042Y-56816D01*
X71042Y-56759D01*
X70642Y-57026D02*
X71042Y-57121D01*
X70642Y-57216D02*
X71042Y-57121D01*
X71185Y-57083D01*
X71214Y-57064D01*
X71242Y-57026D01*
G54D12*
X41919Y-47111D02*
X42052Y-46921D01*
X42147Y-47111D02*
X42147Y-46711D01*
X41995Y-46711D01*
X41957Y-46730D01*
X41938Y-46750D01*
X41919Y-46788D01*
X41919Y-46845D01*
X41938Y-46883D01*
X41957Y-46902D01*
X41995Y-46921D01*
X42147Y-46921D01*
X41766Y-47092D02*
X41709Y-47111D01*
X41614Y-47111D01*
X41576Y-47092D01*
X41557Y-47073D01*
X41538Y-47035D01*
X41538Y-46997D01*
X41557Y-46959D01*
X41576Y-46940D01*
X41614Y-46921D01*
X41690Y-46902D01*
X41728Y-46883D01*
X41747Y-46864D01*
X41766Y-46826D01*
X41766Y-46788D01*
X41747Y-46750D01*
X41728Y-46730D01*
X41690Y-46711D01*
X41595Y-46711D01*
X41538Y-46730D01*
X41423Y-46711D02*
X41195Y-46711D01*
X41309Y-47111D02*
X41309Y-46711D01*
X42214Y-50042D02*
X42157Y-50061D01*
X42061Y-50061D01*
X42023Y-50042D01*
X42004Y-50023D01*
X41985Y-49985D01*
X41985Y-49947D01*
X42004Y-49909D01*
X42023Y-49890D01*
X42061Y-49871D01*
X42138Y-49852D01*
X42176Y-49833D01*
X42195Y-49814D01*
X42214Y-49776D01*
X42214Y-49738D01*
X42195Y-49700D01*
X42176Y-49680D01*
X42138Y-49661D01*
X42042Y-49661D01*
X41985Y-49680D01*
X41585Y-50023D02*
X41604Y-50042D01*
X41661Y-50061D01*
X41700Y-50061D01*
X41757Y-50042D01*
X41795Y-50004D01*
X41814Y-49966D01*
X41833Y-49890D01*
X41833Y-49833D01*
X41814Y-49757D01*
X41795Y-49719D01*
X41757Y-49680D01*
X41700Y-49661D01*
X41661Y-49661D01*
X41604Y-49680D01*
X41585Y-49700D01*
X41414Y-50061D02*
X41414Y-49661D01*
X41185Y-50061D02*
X41357Y-49833D01*
X41185Y-49661D02*
X41414Y-49890D01*
X42478Y-48061D02*
X42478Y-47661D01*
X42345Y-47947D01*
X42211Y-47661D01*
X42211Y-48061D01*
X41945Y-47661D02*
X41869Y-47661D01*
X41830Y-47680D01*
X41792Y-47719D01*
X41773Y-47795D01*
X41773Y-47928D01*
X41792Y-48004D01*
X41830Y-48042D01*
X41869Y-48061D01*
X41945Y-48061D01*
X41983Y-48042D01*
X42021Y-48004D01*
X42040Y-47928D01*
X42040Y-47795D01*
X42021Y-47719D01*
X41983Y-47680D01*
X41945Y-47661D01*
X41621Y-48042D02*
X41564Y-48061D01*
X41469Y-48061D01*
X41430Y-48042D01*
X41411Y-48023D01*
X41392Y-47985D01*
X41392Y-47947D01*
X41411Y-47909D01*
X41430Y-47890D01*
X41469Y-47871D01*
X41545Y-47852D01*
X41583Y-47833D01*
X41602Y-47814D01*
X41621Y-47776D01*
X41621Y-47738D01*
X41602Y-47700D01*
X41583Y-47680D01*
X41545Y-47661D01*
X41450Y-47661D01*
X41392Y-47680D01*
X41221Y-48061D02*
X41221Y-47661D01*
X42478Y-49061D02*
X42478Y-48661D01*
X42345Y-48947D01*
X42211Y-48661D01*
X42211Y-49061D01*
X42021Y-49061D02*
X42021Y-48661D01*
X41849Y-49042D02*
X41792Y-49061D01*
X41697Y-49061D01*
X41659Y-49042D01*
X41640Y-49023D01*
X41621Y-48985D01*
X41621Y-48947D01*
X41640Y-48909D01*
X41659Y-48890D01*
X41697Y-48871D01*
X41773Y-48852D01*
X41811Y-48833D01*
X41830Y-48814D01*
X41849Y-48776D01*
X41849Y-48738D01*
X41830Y-48700D01*
X41811Y-48680D01*
X41773Y-48661D01*
X41678Y-48661D01*
X41621Y-48680D01*
X41373Y-48661D02*
X41297Y-48661D01*
X41259Y-48680D01*
X41221Y-48719D01*
X41202Y-48795D01*
X41202Y-48928D01*
X41221Y-49004D01*
X41259Y-49042D01*
X41297Y-49061D01*
X41373Y-49061D01*
X41411Y-49042D01*
X41449Y-49004D01*
X41469Y-48928D01*
X41469Y-48795D01*
X41449Y-48719D01*
X41411Y-48680D01*
X41373Y-48661D01*
X42004Y-50730D02*
X42042Y-50711D01*
X42100Y-50711D01*
X42157Y-50730D01*
X42195Y-50769D01*
X42214Y-50807D01*
X42233Y-50883D01*
X42233Y-50940D01*
X42214Y-51016D01*
X42195Y-51054D01*
X42157Y-51092D01*
X42100Y-51111D01*
X42061Y-51111D01*
X42004Y-51092D01*
X41985Y-51073D01*
X41985Y-50940D01*
X42061Y-50940D01*
X41814Y-51111D02*
X41814Y-50711D01*
X41585Y-51111D01*
X41585Y-50711D01*
X41395Y-51111D02*
X41395Y-50711D01*
X41299Y-50711D01*
X41242Y-50730D01*
X41204Y-50769D01*
X41185Y-50807D01*
X41166Y-50883D01*
X41166Y-50940D01*
X41185Y-51016D01*
X41204Y-51054D01*
X41242Y-51092D01*
X41299Y-51111D01*
X41395Y-51111D01*
G54D13*
X68900Y-47585D02*
X68871Y-47528D01*
X68842Y-47500D01*
X68785Y-47471D01*
X68757Y-47471D01*
X68700Y-47500D01*
X68671Y-47528D01*
X68642Y-47585D01*
X68642Y-47700D01*
X68671Y-47757D01*
X68700Y-47785D01*
X68757Y-47814D01*
X68785Y-47814D01*
X68842Y-47785D01*
X68871Y-47757D01*
X68900Y-47700D01*
X68900Y-47585D01*
X68928Y-47528D01*
X68957Y-47500D01*
X69014Y-47471D01*
X69128Y-47471D01*
X69185Y-47500D01*
X69214Y-47528D01*
X69242Y-47585D01*
X69242Y-47700D01*
X69214Y-47757D01*
X69185Y-47785D01*
X69128Y-47814D01*
X69014Y-47814D01*
X68957Y-47785D01*
X68928Y-47757D01*
X68900Y-47700D01*
X69185Y-48871D02*
X69214Y-48842D01*
X69242Y-48757D01*
X69242Y-48700D01*
X69214Y-48614D01*
X69157Y-48557D01*
X69100Y-48528D01*
X68985Y-48500D01*
X68900Y-48500D01*
X68785Y-48528D01*
X68728Y-48557D01*
X68671Y-48614D01*
X68642Y-48700D01*
X68642Y-48757D01*
X68671Y-48842D01*
X68700Y-48871D01*
X69242Y-49128D02*
X68642Y-49128D01*
X68928Y-49128D02*
X68928Y-49471D01*
X69242Y-49471D02*
X68642Y-49471D01*
X69242Y-50214D02*
X68642Y-50214D01*
X68642Y-50357D01*
X68671Y-50442D01*
X68728Y-50500D01*
X68785Y-50528D01*
X68900Y-50557D01*
X68985Y-50557D01*
X69100Y-50528D01*
X69157Y-50500D01*
X69214Y-50442D01*
X69242Y-50357D01*
X69242Y-50214D01*
X69242Y-50814D02*
X68642Y-50814D01*
X69242Y-51100D02*
X68642Y-51100D01*
X69071Y-51300D01*
X68642Y-51500D01*
X69242Y-51500D01*
X69242Y-51785D02*
X68642Y-51785D01*
X69071Y-51985D01*
X68642Y-52185D01*
X69242Y-52185D01*
X68928Y-52471D02*
X68928Y-52671D01*
X69242Y-52757D02*
X69242Y-52471D01*
X68642Y-52471D01*
X68642Y-52757D01*
X69242Y-53357D02*
X68957Y-53157D01*
X69242Y-53014D02*
X68642Y-53014D01*
X68642Y-53242D01*
X68671Y-53299D01*
X68700Y-53328D01*
X68757Y-53357D01*
X68842Y-53357D01*
X68900Y-53328D01*
X68928Y-53299D01*
X68957Y-53242D01*
X68957Y-53014D01*
X69242Y-54071D02*
X68642Y-54071D01*
X68642Y-54300D01*
X68671Y-54357D01*
X68700Y-54385D01*
X68757Y-54414D01*
X68842Y-54414D01*
X68900Y-54385D01*
X68928Y-54357D01*
X68957Y-54300D01*
X68957Y-54071D01*
X69071Y-54642D02*
X69071Y-54928D01*
X69242Y-54585D02*
X68642Y-54785D01*
X69242Y-54985D01*
X69185Y-55528D02*
X69214Y-55500D01*
X69242Y-55414D01*
X69242Y-55357D01*
X69214Y-55271D01*
X69157Y-55214D01*
X69100Y-55185D01*
X68985Y-55157D01*
X68900Y-55157D01*
X68785Y-55185D01*
X68728Y-55214D01*
X68671Y-55271D01*
X68642Y-55357D01*
X68642Y-55414D01*
X68671Y-55500D01*
X68700Y-55528D01*
X69242Y-55785D02*
X68642Y-55785D01*
X69242Y-56128D02*
X68900Y-55871D01*
X68642Y-56128D02*
X68985Y-55785D01*
G54D14*
X68007Y-48442D02*
X66507Y-48442D01*
X66507Y-48680D01*
X66578Y-48823D01*
X66721Y-48919D01*
X66864Y-48966D01*
X67150Y-49014D01*
X67364Y-49014D01*
X67650Y-48966D01*
X67792Y-48919D01*
X67935Y-48823D01*
X68007Y-48680D01*
X68007Y-48442D01*
X68007Y-49442D02*
X66507Y-49442D01*
X67578Y-49776D01*
X66507Y-50109D01*
X68007Y-50109D01*
X66507Y-50490D02*
X68007Y-51157D01*
X66507Y-51157D02*
X68007Y-50490D01*
X67435Y-51538D02*
X67435Y-52300D01*
X66507Y-53252D02*
X66507Y-52776D01*
X67221Y-52728D01*
X67150Y-52776D01*
X67078Y-52871D01*
X67078Y-53109D01*
X67150Y-53204D01*
X67221Y-53252D01*
X67364Y-53300D01*
X67721Y-53300D01*
X67864Y-53252D01*
X67935Y-53204D01*
X68007Y-53109D01*
X68007Y-52871D01*
X67935Y-52776D01*
X67864Y-52728D01*
X68007Y-54252D02*
X68007Y-53680D01*
X68007Y-53966D02*
X66507Y-53966D01*
X66721Y-53871D01*
X66864Y-53776D01*
X66935Y-53680D01*
X66650Y-54633D02*
X66578Y-54680D01*
X66507Y-54776D01*
X66507Y-55014D01*
X66578Y-55109D01*
X66650Y-55157D01*
X66792Y-55204D01*
X66935Y-55204D01*
X67150Y-55157D01*
X68007Y-54585D01*
X68007Y-55204D01*
G54D13*
X77723Y-34171D02*
X78523Y-34314D01*
X77952Y-34428D01*
X78523Y-34542D01*
X77723Y-34685D01*
X78295Y-34885D02*
X78295Y-35171D01*
X78523Y-34828D02*
X77723Y-35028D01*
X78523Y-35228D01*
X78523Y-35771D02*
X78142Y-35571D01*
X78523Y-35428D02*
X77723Y-35428D01*
X77723Y-35657D01*
X77761Y-35714D01*
X77800Y-35742D01*
X77876Y-35771D01*
X77990Y-35771D01*
X78066Y-35742D01*
X78104Y-35714D01*
X78142Y-35657D01*
X78142Y-35428D01*
X78523Y-36028D02*
X77723Y-36028D01*
X78523Y-36371D01*
X77723Y-36371D01*
X78523Y-36657D02*
X77723Y-36657D01*
X78523Y-36942D02*
X77723Y-36942D01*
X78523Y-37285D01*
X77723Y-37285D01*
X77761Y-37885D02*
X77723Y-37828D01*
X77723Y-37742D01*
X77761Y-37657D01*
X77838Y-37600D01*
X77914Y-37571D01*
X78066Y-37542D01*
X78180Y-37542D01*
X78333Y-37571D01*
X78409Y-37600D01*
X78485Y-37657D01*
X78523Y-37742D01*
X78523Y-37800D01*
X78485Y-37885D01*
X78447Y-37914D01*
X78180Y-37914D01*
X78180Y-37800D01*
X78447Y-38171D02*
X78485Y-38200D01*
X78523Y-38171D01*
X78485Y-38142D01*
X78447Y-38171D01*
X78523Y-38171D01*
X78028Y-38171D02*
X78066Y-38200D01*
X78104Y-38171D01*
X78066Y-38142D01*
X78028Y-38171D01*
X78104Y-38171D01*
X78523Y-38914D02*
X77723Y-38914D01*
X78104Y-38914D02*
X78104Y-39257D01*
X78523Y-39257D02*
X77723Y-39257D01*
X78523Y-39542D02*
X77723Y-39542D01*
X77761Y-40142D02*
X77723Y-40085D01*
X77723Y-40000D01*
X77761Y-39914D01*
X77838Y-39857D01*
X77914Y-39828D01*
X78066Y-39800D01*
X78180Y-39800D01*
X78333Y-39828D01*
X78409Y-39857D01*
X78485Y-39914D01*
X78523Y-40000D01*
X78523Y-40057D01*
X78485Y-40142D01*
X78447Y-40171D01*
X78180Y-40171D01*
X78180Y-40057D01*
X78523Y-40428D02*
X77723Y-40428D01*
X78104Y-40428D02*
X78104Y-40771D01*
X78523Y-40771D02*
X77723Y-40771D01*
X77723Y-41428D02*
X78523Y-41628D01*
X77723Y-41828D01*
X77723Y-42142D02*
X77723Y-42257D01*
X77761Y-42314D01*
X77838Y-42371D01*
X77990Y-42400D01*
X78257Y-42400D01*
X78409Y-42371D01*
X78485Y-42314D01*
X78523Y-42257D01*
X78523Y-42142D01*
X78485Y-42085D01*
X78409Y-42028D01*
X78257Y-42000D01*
X77990Y-42000D01*
X77838Y-42028D01*
X77761Y-42085D01*
X77723Y-42142D01*
X78523Y-42942D02*
X78523Y-42657D01*
X77723Y-42657D01*
X77723Y-43057D02*
X77723Y-43399D01*
X78523Y-43228D02*
X77723Y-43228D01*
X78295Y-43571D02*
X78295Y-43857D01*
X78523Y-43514D02*
X77723Y-43714D01*
X78523Y-43914D01*
X77761Y-44428D02*
X77723Y-44371D01*
X77723Y-44285D01*
X77761Y-44199D01*
X77838Y-44142D01*
X77914Y-44114D01*
X78066Y-44085D01*
X78180Y-44085D01*
X78333Y-44114D01*
X78409Y-44142D01*
X78485Y-44199D01*
X78523Y-44285D01*
X78523Y-44342D01*
X78485Y-44428D01*
X78447Y-44457D01*
X78180Y-44457D01*
X78180Y-44342D01*
X78104Y-44714D02*
X78104Y-44914D01*
X78523Y-44999D02*
X78523Y-44714D01*
X77723Y-44714D01*
X77723Y-44999D01*
X40000Y-43000D02*
X39800Y-43000D01*
X76000Y-57800D02*
X79200Y-57800D01*
X74200Y-56000D02*
X76000Y-57800D01*
X74200Y-48200D02*
X74200Y-56000D01*
X77200Y-45200D02*
X74200Y-48200D01*
X77200Y-43000D02*
X77200Y-45200D01*
X40000Y-43000D02*
X77200Y-43000D01*
M02*
