M48
;DRILL file {Pcbnew (2013-07-07 BZR 4022)-stable} date 06/01/2015 12:36:24
;FORMAT={2:4/ absolute / inch / suppress leading zeros}
FMAT,2
INCH,TZ
T1C0.025
T2C0.030
T3C0.032
T4C0.040
T5C0.045
T6C0.050
T7C0.055
T8C0.062
T9C0.063
T10C0.070
T11C0.116
%
G90
G05
M72
T1
X42250Y-49000
X44000Y-49700
X45300Y-49300
X46200Y-49700
X46950Y-46300
X47050Y-54450
X47350Y-45950
X48500Y-48450
X48500Y-48950
X49600Y-51300
X50000Y-46700
X50550Y-48300
X50600Y-45500
X50950Y-48050
X51450Y-51100
X51600Y-46700
X51750Y-46150
X53700Y-46700
X54300Y-46700
X54600Y-47100
X54900Y-46150
X55050Y-51100
X56300Y-51400
X59500Y-54100
X66250Y-59000
X66250Y-62000
X67250Y-59000
X67250Y-62000
X68250Y-59000
X68250Y-62000
X69250Y-59000
X69250Y-62000
X70250Y-59000
X70250Y-62000
X71250Y-59000
X71250Y-62000
X72250Y-59000
X72250Y-62000
X73250Y-59000
X73250Y-62000
X74250Y-59000
X74250Y-62000
X75250Y-59000
X75250Y-62000
T2
X42500Y-34300
X42500Y-40200
X47250Y-34300
X47250Y-40200
X52000Y-34300
X52000Y-40200
X56750Y-34300
X56750Y-40200
X61500Y-34300
X61500Y-40200
X66250Y-34300
X66250Y-40200
X71000Y-34300
X71000Y-40200
X75750Y-34300
X75750Y-40200
X77350Y-48500
X77350Y-51000
X77350Y-53500
X78350Y-50000
X78350Y-56000
T3
X40400Y-33900
X40400Y-36900
X40400Y-37750
X40400Y-40750
X40550Y-46900
X40550Y-47900
X40550Y-48900
X40550Y-49900
X40550Y-50900
X41000Y-41500
X41000Y-44500
X41675Y-52500
X41675Y-54500
X42000Y-41500
X42000Y-44500
X43000Y-41500
X43000Y-44500
X43175Y-53500
X43550Y-46050
X44550Y-46050
X45150Y-33900
X45150Y-36900
X45150Y-37750
X45150Y-40750
X45750Y-41500
X45750Y-44500
X46750Y-41500
X46750Y-44500
X47750Y-41500
X47750Y-44500
X47950Y-53450
X48200Y-46050
X49200Y-46050
X49900Y-33900
X49900Y-36900
X49900Y-37750
X49900Y-40750
X49950Y-53450
X50500Y-41500
X50500Y-44500
X51500Y-41500
X51500Y-44500
X52500Y-41500
X52500Y-44500
X54000Y-48400
X54000Y-49400
X54650Y-33900
X54650Y-36900
X54650Y-37750
X54650Y-40750
X55250Y-41500
X55250Y-44500
X56250Y-41500
X56250Y-44500
X57250Y-41500
X57250Y-44500
X59275Y-47400
X59275Y-48400
X59400Y-33900
X59400Y-36900
X59400Y-37750
X59400Y-40750
X60000Y-41500
X60000Y-44500
X61000Y-41500
X61000Y-44500
X62000Y-41500
X62000Y-44500
X63000Y-60050
X63000Y-61750
X64000Y-60050
X64000Y-61750
X64150Y-33900
X64150Y-36900
X64150Y-37750
X64150Y-40750
X64750Y-41500
X64750Y-44500
X65750Y-41500
X65750Y-44500
X66750Y-41500
X66750Y-44500
X68900Y-33900
X68900Y-36900
X68900Y-37750
X68900Y-40750
X69500Y-41500
X69500Y-44500
X70500Y-41500
X70500Y-44500
X71500Y-41500
X71500Y-44500
X73650Y-33900
X73650Y-36900
X73650Y-37750
X73650Y-40750
X74250Y-41500
X74250Y-44500
X75250Y-41500
X75250Y-44500
X76250Y-41500
X76250Y-44500
T4
X42500Y-32250
X43500Y-32250
X44500Y-32250
X47250Y-32250
X48250Y-32250
X49250Y-32250
X52000Y-32250
X53000Y-32250
X54000Y-32250
X56325Y-47400
X56325Y-48400
X56325Y-49400
X56750Y-32250
X57750Y-32250
X58750Y-32250
X61500Y-32250
X62500Y-32250
X63500Y-32250
X66250Y-32250
X67250Y-32250
X68250Y-32250
X71000Y-32250
X72000Y-32250
X73000Y-32250
X75750Y-32250
X76750Y-32250
X77750Y-32250
T5
X44200Y-24400
X44200Y-26400
X46800Y-24400
X46800Y-26400
X49400Y-24400
X49400Y-26400
X52000Y-24400
X52000Y-26400
X54600Y-24400
X54600Y-26400
X57200Y-24400
X57200Y-26400
X59800Y-24400
X59800Y-26400
X62400Y-24400
X62400Y-26400
X64250Y-48500
X64250Y-51000
X64250Y-53500
X64250Y-56000
X76250Y-48500
X76250Y-51000
X76250Y-53500
X76250Y-56000
T6
X45770Y-55850
X45770Y-57850
X56900Y-56100
X60400Y-59850
T7
X46500Y-28500
X48500Y-28500
X52500Y-28500
X54500Y-28500
X65800Y-28500
X67800Y-28500
X71800Y-28500
X73800Y-28500
T8
X44270Y-59350
X47270Y-61350
X55400Y-59350
X58400Y-61350
T9
X44270Y-55850
X47270Y-55850
X55400Y-57600
X58400Y-57850
T10
X71250Y-25050
X73750Y-25050
T11
X41100Y-24750
X41100Y-60500
X77900Y-24750
X77900Y-60500
T0
M30
