G04 (created by PCBNEW (2013-07-07 BZR 4022)-stable) date 06/01/2015 12:36:27*
%MOIN*%
G04 Gerber Fmt 3.4, Leading zero omitted, Abs format*
%FSLAX34Y34*%
G01*
G70*
G90*
G04 APERTURE LIST*
%ADD10C,0.00590551*%
%ADD11C,0.066*%
%ADD12R,0.02X0.045*%
%ADD13R,0.016X0.06*%
%ADD14R,0.06X0.016*%
%ADD15R,0.025X0.045*%
%ADD16R,0.045X0.025*%
%ADD17R,0.03X0.035*%
G04 APERTURE END LIST*
G54D10*
G54D11*
X64000Y-61750D03*
X63000Y-61750D03*
X64000Y-60050D03*
X63000Y-60050D03*
G54D12*
X61250Y-52650D03*
X61250Y-50550D03*
X60750Y-52650D03*
X60250Y-52650D03*
X59750Y-52650D03*
X60750Y-50550D03*
X60250Y-50550D03*
X59750Y-50550D03*
G54D13*
X50000Y-47350D03*
X49685Y-47350D03*
X49370Y-47350D03*
X49055Y-47350D03*
X48740Y-47350D03*
X48425Y-47350D03*
X50315Y-47350D03*
X50630Y-47350D03*
X50945Y-47350D03*
X51260Y-47350D03*
X51575Y-47350D03*
X50000Y-51850D03*
X49685Y-51850D03*
X49370Y-51850D03*
X49055Y-51850D03*
X48740Y-51850D03*
X48425Y-51850D03*
X50315Y-51850D03*
X50630Y-51850D03*
X50945Y-51850D03*
X51260Y-51850D03*
X51575Y-51850D03*
G54D14*
X47750Y-49600D03*
X52250Y-49600D03*
X47750Y-49915D03*
X52250Y-49915D03*
X52250Y-50230D03*
X47750Y-50230D03*
X47750Y-50545D03*
X52250Y-50545D03*
X52250Y-50860D03*
X47750Y-50860D03*
X47750Y-51175D03*
X52250Y-51175D03*
X52250Y-49285D03*
X47750Y-49285D03*
X47750Y-48970D03*
X52250Y-48970D03*
X52250Y-48655D03*
X47750Y-48655D03*
X47750Y-48340D03*
X52250Y-48340D03*
X52250Y-48025D03*
X47750Y-48025D03*
G54D12*
X45450Y-52450D03*
X45450Y-50350D03*
X44950Y-52450D03*
X44450Y-52450D03*
X43950Y-52450D03*
X44950Y-50350D03*
X44450Y-50350D03*
X43950Y-50350D03*
G54D15*
X65750Y-45475D03*
X65150Y-45475D03*
X59750Y-49800D03*
X60350Y-49800D03*
X61000Y-45475D03*
X60400Y-45475D03*
G54D16*
X46900Y-50850D03*
X46900Y-51450D03*
G54D15*
X53900Y-45500D03*
X53300Y-45500D03*
X51500Y-45500D03*
X52100Y-45500D03*
X46750Y-45500D03*
X47350Y-45500D03*
X42000Y-45500D03*
X42600Y-45500D03*
X56550Y-52575D03*
X57150Y-52575D03*
G54D16*
X45650Y-54000D03*
X45650Y-53400D03*
G54D15*
X45500Y-46750D03*
X46100Y-46750D03*
G54D16*
X62100Y-51900D03*
X62100Y-51300D03*
G54D15*
X75250Y-45500D03*
X74650Y-45500D03*
X47950Y-54800D03*
X48550Y-54800D03*
X70500Y-45500D03*
X69900Y-45500D03*
X50600Y-46200D03*
X50000Y-46200D03*
G54D16*
X43250Y-51850D03*
X43250Y-52450D03*
G54D15*
X49950Y-54800D03*
X50550Y-54800D03*
G54D16*
X59000Y-51900D03*
X59000Y-51300D03*
X62100Y-49900D03*
X62100Y-50500D03*
G54D17*
X60825Y-48400D03*
X60825Y-47400D03*
X63275Y-47400D03*
X63275Y-48400D03*
G54D16*
X62850Y-51900D03*
X62850Y-51300D03*
M02*
